<svg xmlns="http://www.w3.org/2000/svg" xmlns:xlink="http://www.w3.org/1999/xlink" width="190" height="167.667" viewBox="0 0 190 167.667">
  <defs>
    <clipPath id="clip-path">
      <rect id="Rectángulo_401573" data-name="Rectángulo 401573" width="28.836" height="167.666" transform="translate(0 -8)" fill="#692cb7"/>
    </clipPath>
    <clipPath id="clip-path-2">
      <rect id="Rectángulo_401572" data-name="Rectángulo 401572" width="72.283" height="261.91" fill="#692cb7"/>
    </clipPath>
    <clipPath id="clip-path-3">
      <rect id="Rectángulo_403255" data-name="Rectángulo 403255" width="100.051" height="100.051" transform="translate(1290.051 440)" fill="#fff" stroke="#707070" stroke-width="1"/>
    </clipPath>
  </defs>
  <g id="_10" data-name="10" transform="translate(-1230.051 -419.999)">
    <g id="Grupo_1101503" data-name="Grupo 1101503" transform="translate(1420.051 541.798) rotate(180)">
      <g id="Grupo_1099687" data-name="Grupo 1099687" transform="translate(0 -37.867)" clip-path="url(#clip-path)">
        <g id="Grupo_1099686" data-name="Grupo 1099686" transform="translate(-6.669 -54.734)" opacity="0.45" style="mix-blend-mode: multiply;isolation: isolate">
          <g id="Grupo_1099685" data-name="Grupo 1099685">
            <g id="Grupo_1099684" data-name="Grupo 1099684" clip-path="url(#clip-path-2)">
              <path id="Trazado_873516" data-name="Trazado 873516" d="M.729,22,90.783-1.142,89.711,4.695-.343,27.834Z" transform="matrix(0.898, -0.44, 0.44, 0.898, -10.337, 204.136)" fill="#692cb7"/>
              <path id="Trazado_873517" data-name="Trazado 873517" d="M.729,22,90.783-1.142,89.711,4.695-.343,27.834Z" transform="matrix(0.898, -0.44, 0.44, 0.898, -10.337, 187.82)" fill="#692cb7"/>
              <path id="Trazado_873518" data-name="Trazado 873518" d="M.729,22,90.783-1.142,89.711,4.695-.343,27.834Z" transform="matrix(0.898, -0.44, 0.44, 0.898, -10.337, 171.505)" fill="#692cb7"/>
              <path id="Trazado_873519" data-name="Trazado 873519" d="M.729,22,90.783-1.142,89.711,4.695-.343,27.834Z" transform="matrix(0.898, -0.44, 0.44, 0.898, -10.337, 155.19)" fill="#692cb7"/>
              <path id="Trazado_873520" data-name="Trazado 873520" d="M.729,22,90.783-1.142,89.711,4.695-.343,27.834Z" transform="matrix(0.898, -0.44, 0.44, 0.898, -10.337, 138.875)" fill="#692cb7"/>
              <path id="Trazado_873521" data-name="Trazado 873521" d="M.729,22,90.783-1.142,89.711,4.695-.343,27.834Z" transform="matrix(0.898, -0.44, 0.44, 0.898, -10.337, 122.559)" fill="#692cb7"/>
              <path id="Trazado_873522" data-name="Trazado 873522" d="M.729,22,90.783-1.142,89.711,4.695-.343,27.834Z" transform="matrix(0.898, -0.44, 0.44, 0.898, -10.337, 106.244)" fill="#692cb7"/>
              <path id="Trazado_873523" data-name="Trazado 873523" d="M.729,22,90.783-1.142,89.711,4.695-.343,27.834Z" transform="matrix(0.898, -0.44, 0.44, 0.898, -10.337, 89.929)" fill="#692cb7"/>
              <path id="Trazado_873524" data-name="Trazado 873524" d="M.729,22,90.783-1.142,89.711,4.695-.343,27.834Z" transform="matrix(0.898, -0.44, 0.44, 0.898, -10.337, 73.614)" fill="#692cb7"/>
              <path id="Trazado_873525" data-name="Trazado 873525" d="M.729,22,90.783-1.142,89.711,4.695-.343,27.834Z" transform="matrix(0.898, -0.44, 0.44, 0.898, -10.337, 57.299)" fill="#692cb7"/>
              <path id="Trazado_873526" data-name="Trazado 873526" d="M.729,22,90.783-1.142,89.711,4.695-.343,27.834Z" transform="translate(-10.337 40.983) rotate(-26.114)" fill="#692cb7"/>
            </g>
          </g>
        </g>
      </g>
      <rect id="Rectángulo_401574" data-name="Rectángulo 401574" width="161" height="167.666" transform="translate(29 -45.868)" fill="#efe8f7"/>
    </g>
    <g id="Enmascarar_grupo_1098720" data-name="Enmascarar grupo 1098720" transform="translate(-29 13.808)" clip-path="url(#clip-path-3)">
      <g id="Artboard441" transform="translate(1290.051 443.386)">
        <g id="Grupo_1101953" data-name="Grupo 1101953" transform="translate(0 0)">
          <g id="Grupo_1101952" data-name="Grupo 1101952" transform="translate(1.708 1.617)">
            <g id="Grupo_1101942" data-name="Grupo 1101942">
              <g id="Grupo_1101941" data-name="Grupo 1101941">
                <circle id="Elipse_11563" data-name="Elipse 11563" cx="8.977" cy="8.977" r="8.977" fill="#8ac9fe"/>
                <path id="Trazado_913086" data-name="Trazado 913086" d="M7.869,4.609a9.1,9.1,0,0,1,1.009-.056,8.977,8.977,0,1,1-1.009,17.9,8.978,8.978,0,0,0,0-17.842Z" transform="translate(0.1 -4.553)" fill="#60b7ff" fill-rule="evenodd"/>
              </g>
            </g>
            <g id="Grupo_1101944" data-name="Grupo 1101944" transform="translate(73.101)">
              <g id="Grupo_1101943" data-name="Grupo 1101943">
                <circle id="Elipse_11564" data-name="Elipse 11564" cx="8.977" cy="8.977" r="8.977" fill="#8ac9fe"/>
                <path id="Trazado_913087" data-name="Trazado 913087" d="M59.744,4.609a9.1,9.1,0,0,1,1.009-.056,8.977,8.977,0,1,1-1.009,17.9,8.978,8.978,0,0,0,0-17.842Z" transform="translate(-51.775 -4.553)" fill="#60b7ff" fill-rule="evenodd"/>
              </g>
            </g>
            <g id="Grupo_1101945" data-name="Grupo 1101945" transform="translate(19.178 8.644)">
              <path id="Trazado_913088" data-name="Trazado 913088" d="M47.327,15.04a22.393,22.393,0,0,1,6.566,2.722l4.267-1.893L63.188,20.9l-1.893,4.267a22.406,22.406,0,0,1,2.722,6.566l4.354,1.676v7.112l-4.354,1.676a22.423,22.423,0,0,1-2.722,6.563l1.893,4.267-5.027,5.03-4.267-1.9a22.406,22.406,0,0,1-6.566,2.725l-1.676,4.351H38.539L36.863,58.88A22.411,22.411,0,0,1,30.3,56.158l-4.267,1.9L21,53.024l1.9-4.264a22.476,22.476,0,0,1-2.725-6.566l-4.351-1.676V33.405l4.351-1.676A22.408,22.408,0,0,1,22.9,25.163L21,20.9l5.03-5.027L30.3,17.762a22.466,22.466,0,0,1,6.566-2.722l1.676-4.354h7.112Z" transform="translate(-15.823 -10.687)" fill="#9facba" fill-rule="evenodd"/>
              <path id="Trazado_913089" data-name="Trazado 913089" d="M53.947,16.505l1.434-.636L60.408,20.9l-1.893,4.267a22.406,22.406,0,0,1,2.722,6.566l4.354,1.676v7.112l-4.354,1.676a22.423,22.423,0,0,1-2.722,6.563l1.893,4.267-5.027,5.03-1.434-.636,4.394-4.394-1.9-4.267a22.412,22.412,0,0,0,2.722-6.563l4.354-1.676V33.405L59.167,31.73a22.4,22.4,0,0,0-2.722-6.566l1.9-4.267Zm-31.33,0,.636-.636,4.264,1.893c-.3.168-.6.341-.891.524Zm21.93-1.465a22.393,22.393,0,0,1,6.566,2.722l-1.176.524a29.3,29.3,0,0,0-7.46-3.246L40.8,10.687h2.07ZM27.52,56.158l-4.267,1.9-.636-.636,4.009-1.781q.438.27.894.521Zm23.594,0a22.406,22.406,0,0,1-6.566,2.725l-1.676,4.351H40.8l1.676-4.351a29.377,29.377,0,0,0,7.463-3.246Z" transform="translate(-13.043 -10.687)" fill="#8d9ca8" fill-rule="evenodd"/>
              <path id="Trazado_913090" data-name="Trazado 913090" d="M38.037,20.6a12.3,12.3,0,1,1-12.3,12.3,12.3,12.3,0,0,1,12.3-12.3Z" transform="translate(-11.765 -6.629)" fill="#eceff1" fill-rule="evenodd"/>
              <path id="Trazado_913091" data-name="Trazado 913091" d="M38.037,20.6c.28,0,.557.01.834.03a12.3,12.3,0,0,0,0,24.538c-.277.018-.555.027-.834.027a12.3,12.3,0,0,1,0-24.6Z" transform="translate(-11.765 -6.629)" fill="#d1d1d6" fill-rule="evenodd"/>
            </g>
            <g id="Grupo_1101950" data-name="Grupo 1101950" transform="translate(53.72 31.809)">
              <g id="Grupo_1101949" data-name="Grupo 1101949">
                <path id="Trazado_913092" data-name="Trazado 913092" d="M81.263,32.329H41.64a1.307,1.307,0,0,0-1.3,1.3v48.29a1.308,1.308,0,0,0,1.3,1.308H81.263a1.308,1.308,0,0,0,1.308-1.308V33.633A1.307,1.307,0,0,0,81.263,32.329Z" transform="translate(-40.336 -24.996)" fill="#eceff1" fill-rule="evenodd"/>
                <path id="Trazado_913093" data-name="Trazado 913093" d="M69.687,32.329H68.629v50.9h1.058a1.308,1.308,0,0,0,1.308-1.308V33.633a1.307,1.307,0,0,0-1.308-1.3Z" transform="translate(-28.759 -24.996)" fill="#d1d1d6" fill-rule="evenodd"/>
                <path id="Trazado_913094" data-name="Trazado 913094" d="M49.14,30.65h4.734a4.607,4.607,0,0,1,8.957,0h4.73a1.227,1.227,0,0,1,1.227,1.223v4.6A1.227,1.227,0,0,1,67.56,37.7H49.14a1.226,1.226,0,0,1-1.223-1.223v-4.6A1.226,1.226,0,0,1,49.14,30.65Z" transform="translate(-37.234 -27.125)" fill="#e3a76f" fill-rule="evenodd"/>
                <path id="Trazado_913095" data-name="Trazado 913095" d="M67.56,29.626a1.227,1.227,0,0,1,1.227,1.223v4.6a1.227,1.227,0,0,1-1.227,1.223H49.14a1.226,1.226,0,0,1-1.223-1.223h18.42a1.229,1.229,0,0,0,1.223-1.227Z" transform="translate(-37.234 -26.102)" fill="#c48958" fill-rule="evenodd"/>
                <g id="Grupo_1101946" data-name="Grupo 1101946" transform="translate(6.554 15.406)">
                  <path id="Trazado_913096" data-name="Trazado 913096" d="M45.932,38.058h7.223A.948.948,0,0,1,54.1,39v7.223a.945.945,0,0,1-.945.945H45.932a.945.945,0,0,1-.945-.945V39a.948.948,0,0,1,.945-.945Z" transform="translate(-44.987 -38.058)" fill="#8ac9fe" fill-rule="evenodd"/>
                  <path id="Trazado_913097" data-name="Trazado 913097" d="M49.7,38.058h1.527a.948.948,0,0,1,.945.945v7.223a.945.945,0,0,1-.945.945H49.7a.948.948,0,0,0,.945-.945V39a.95.95,0,0,0-.945-.945Z" transform="translate(-43.058 -38.058)" fill="#60b7ff" fill-rule="evenodd"/>
                </g>
                <g id="Grupo_1101947" data-name="Grupo 1101947" transform="translate(6.554 29.134)">
                  <path id="Trazado_913098" data-name="Trazado 913098" d="M45.932,47.8h7.223a.948.948,0,0,1,.945.945v7.227a.945.945,0,0,1-.945.941H45.932a.945.945,0,0,1-.945-.941V48.745A.948.948,0,0,1,45.932,47.8Z" transform="translate(-44.987 -47.8)" fill="#ffe177" fill-rule="evenodd"/>
                  <path id="Trazado_913099" data-name="Trazado 913099" d="M49.7,47.8h1.527a.948.948,0,0,1,.945.945v7.227a.945.945,0,0,1-.945.941H49.7a.947.947,0,0,0,.945-.941V48.745A.95.95,0,0,0,49.7,47.8Z" transform="translate(-43.058 -47.8)" fill="#ffd064" fill-rule="evenodd"/>
                </g>
                <g id="Grupo_1101948" data-name="Grupo 1101948" transform="translate(6.554 42.247)">
                  <path id="Trazado_913100" data-name="Trazado 913100" d="M45.932,57.105h7.223a.948.948,0,0,1,.945.945v7.227a.945.945,0,0,1-.945.941H45.932a.945.945,0,0,1-.945-.941V58.051A.948.948,0,0,1,45.932,57.105Z" transform="translate(-44.987 -57.105)" fill="#fe646f" fill-rule="evenodd"/>
                  <path id="Trazado_913101" data-name="Trazado 913101" d="M49.7,57.105h1.527a.948.948,0,0,1,.945.945v7.227a.945.945,0,0,1-.945.941H49.7a.947.947,0,0,0,.945-.941V58.051A.95.95,0,0,0,49.7,57.105Z" transform="translate(-43.058 -57.105)" fill="#fd4755" fill-rule="evenodd"/>
                </g>
              </g>
            </g>
            <g id="Grupo_1101951" data-name="Grupo 1101951" transform="translate(8.753 44.164)">
              <path id="Trazado_913102" data-name="Trazado 913102" d="M34.164,58.678l-5.148-.542v-11a6.1,6.1,0,1,0-12.194,0v11.54l-5.148-1.366V47.138a11.245,11.245,0,1,1,22.49,0Z" transform="translate(-7.097 -35.893)" fill="#d1d1d6" fill-rule="evenodd"/>
              <path id="Trazado_913103" data-name="Trazado 913103" d="M10.481,46.034H38.015a2.059,2.059,0,0,1,2.055,2.055V69.973a2.059,2.059,0,0,1-2.055,2.053H10.481a2.059,2.059,0,0,1-2.055-2.053V48.089A2.059,2.059,0,0,1,10.481,46.034Z" transform="translate(-8.426 -31.743)" fill="#ffd064" fill-rule="evenodd"/>
              <path id="Trazado_913104" data-name="Trazado 913104" d="M27.8,46.034h2.284a2.059,2.059,0,0,1,2.055,2.055V69.973a2.059,2.059,0,0,1-2.055,2.053H27.8a2.058,2.058,0,0,0,2.055-2.053V48.089A2.059,2.059,0,0,0,27.8,46.034Z" transform="translate(-0.497 -31.743)" fill="#ffc338" fill-rule="evenodd"/>
              <path id="Trazado_913105" data-name="Trazado 913105" d="M20.816,49.716a4,4,0,0,1,2.1,7.41v6.107a2.1,2.1,0,0,1-4.2,0V57.126a4,4,0,0,1,2.1-7.41Z" transform="translate(-4.994 -30.237)" fill="#f5b829" fill-rule="evenodd"/>
            </g>
          </g>
          <path id="Trazado_913106" data-name="Trazado 913106" d="M44,67.736V87.328a3.585,3.585,0,0,1-3.584,3.584H13.976a3.59,3.59,0,0,1-3.589-3.584V66.315a3.6,3.6,0,0,1,3.589-3.584h.8V59.81A12.46,12.46,0,0,1,25.153,47.566q-.2-.591-.365-1.192L21.209,45a1.614,1.614,0,0,1-1.034-1.506V36.382a1.614,1.614,0,0,1,1.034-1.506L24.788,33.5a24.137,24.137,0,0,1,2.269-5.469L25.5,24.523a1.614,1.614,0,0,1,.333-1.8L30.857,17.7a1.614,1.614,0,0,1,1.8-.333l3.506,1.559a23.956,23.956,0,0,1,5.464-2.264l1.383-3.585a1.613,1.613,0,0,1,1.505-1.033h7.109a1.614,1.614,0,0,1,1.506,1.035L54.5,16.662a23.946,23.946,0,0,1,5.462,2.264l3.506-1.559a1.614,1.614,0,0,1,1.8.333L70.3,22.726a1.614,1.614,0,0,1,.334,1.795l-1.554,3.507A23.909,23.909,0,0,1,71.342,33.5l3.576,1.376a1.611,1.611,0,0,1,.762.609,5.917,5.917,0,0,1,7.07,3.015h4.434A1.614,1.614,0,0,1,88.8,40.113v1.792h8.114a4.153,4.153,0,0,1,4.142,4.142v46.5a4.149,4.149,0,0,1-4.142,4.139H58a4.149,4.149,0,0,1-4.142-4.139V64.9l-.726,1.887a1.614,1.614,0,0,1-1.506,1.034H44.512A1.611,1.611,0,0,1,44,67.736Zm-25.987-5h1.719V59.81a7.466,7.466,0,1,1,14.931,0v2.922h1.715V59.81a9.183,9.183,0,1,0-18.366,0Zm4.947,0h8.476V59.81a4.238,4.238,0,1,0-8.476,0Zm16.646,0H40.1q-.248-.087-.494-.179ZM28.548,47.471A12.459,12.459,0,0,1,39.579,59.057a20.67,20.67,0,0,0,3.63,1.227,1.614,1.614,0,0,1,1.134.991l1.277,3.319h4.893l1.277-3.319a1.614,1.614,0,0,1,1.133-.99q.468-.111.93-.244V52.7a14.018,14.018,0,1,1,8.23-12.772,14.106,14.106,0,0,1-.138,1.972H66.11V40.113A1.614,1.614,0,0,1,67.724,38.5h4.434a5.908,5.908,0,0,1,.566-.919V37.49l-3.319-1.277a1.614,1.614,0,0,1-.991-1.134,20.713,20.713,0,0,0-2.524-6.1,1.614,1.614,0,0,1-.1-1.5l1.442-3.255-3.459-3.459-3.254,1.447a1.614,1.614,0,0,1-1.5-.1,20.747,20.747,0,0,0-6.092-2.524,1.613,1.613,0,0,1-1.133-.991l-1.277-3.325H45.619L44.336,18.6a1.614,1.614,0,0,1-1.132.989,20.747,20.747,0,0,0-6.092,2.524,1.614,1.614,0,0,1-1.5.1l-3.254-1.447L28.9,24.225l1.447,3.254a1.614,1.614,0,0,1-.1,1.5,20.916,20.916,0,0,0-2.532,6.1,1.614,1.614,0,0,1-.99,1.13L23.4,37.49v4.893l3.319,1.277a1.613,1.613,0,0,1,.989,1.128,21.192,21.192,0,0,0,.837,2.683ZM88.8,45.133v1.552A1.614,1.614,0,0,1,87.183,48.3H67.724a1.614,1.614,0,0,1-1.614-1.614V45.133H58a.917.917,0,0,0-.915.915v46.5a.915.915,0,0,0,.915.912H96.911a.915.915,0,0,0,.915-.912v-46.5a.917.917,0,0,0-.915-.915Zm-34.943,3.91v-3A4.153,4.153,0,0,1,58,41.905h.681a10.79,10.79,0,1,0-10.614,8.821A10.74,10.74,0,0,0,53.854,49.042ZM13.976,65.959a.36.36,0,0,0-.361.357V87.328a.36.36,0,0,0,.361.357H40.411a.357.357,0,0,0,.357-.357V66.315a.357.357,0,0,0-.357-.357ZM27.194,67.71a5.461,5.461,0,0,1,3.63,9.535V82.3a3.63,3.63,0,1,1-7.26,0V77.245a5.458,5.458,0,0,1,3.63-9.535Zm0,3.227a2.231,2.231,0,0,0-1.169,4.131,1.614,1.614,0,0,1,.767,1.374V82.3a.4.4,0,0,0,.8,0V76.442a1.614,1.614,0,0,1,.767-1.374,2.233,2.233,0,0,0-1.169-4.131Zm42.144-29.21v3.344H85.569V41.727H81.63a1.614,1.614,0,0,1-1.569-1.236,2.683,2.683,0,0,0-5.215,0,1.614,1.614,0,0,1-1.569,1.236Zm8.114-.241a1.135,1.135,0,1,1,1.137-1.134A1.136,1.136,0,0,1,77.452,41.486Zm.679,14.856a1.614,1.614,0,0,1,0-3.227H89.374a1.614,1.614,0,1,1,0,3.227Zm0,12.016a1.614,1.614,0,0,1,0-3.227H89.374a1.614,1.614,0,1,1,0,3.227Zm0,4.284a1.614,1.614,0,0,1,0-3.227h5.621a1.614,1.614,0,1,1,0,3.227Zm0-12.016a1.614,1.614,0,0,1,0-3.227h5.621a1.614,1.614,0,1,1,0,3.227Zm0,22.465a1.614,1.614,0,0,1,0-3.227H89.374a1.614,1.614,0,1,1,0,3.227Zm0,4.284a1.614,1.614,0,0,1,0-3.227h5.621a1.614,1.614,0,0,1,0,3.227ZM65.226,51.3h4.768a3.194,3.194,0,0,1,3.188,3.188v4.768a3.2,3.2,0,0,1-3.188,3.188H65.226a3.2,3.2,0,0,1-3.185-3.188V54.487A3.194,3.194,0,0,1,65.226,51.3Zm.043,3.227v4.689h4.686V54.527Zm-.043,23.522h4.768a3.194,3.194,0,0,1,3.188,3.184V86a3.194,3.194,0,0,1-3.188,3.188H65.226A3.194,3.194,0,0,1,62.041,86V81.233A3.194,3.194,0,0,1,65.226,78.049Zm.043,3.227v4.686h4.686V81.276Zm-.043-16.6h4.768a3.194,3.194,0,0,1,3.188,3.188V72.63a3.194,3.194,0,0,1-3.188,3.184H65.226a3.194,3.194,0,0,1-3.185-3.184V67.862A3.194,3.194,0,0,1,65.226,64.674Zm.043,3.227v4.686h4.686V67.9ZM11.593,3.405A10.591,10.591,0,1,1,1,14,10.6,10.6,0,0,1,11.593,3.405Zm0,3.227A7.363,7.363,0,1,0,18.956,14a7.367,7.367,0,0,0-7.363-7.363ZM6.707,15.363a1.614,1.614,0,0,1,2.28-2.284l1.1,1.1,4.17-3.781a1.614,1.614,0,1,1,2.168,2.391L11.115,17.6a1.614,1.614,0,0,1-2.224-.053ZM84.693,3.405A10.591,10.591,0,1,1,74.1,14,10.6,10.6,0,0,1,84.693,3.405Zm0,3.227A7.363,7.363,0,1,0,92.057,14a7.367,7.367,0,0,0-7.363-7.363Zm-4.886,8.731a1.614,1.614,0,0,1,2.28-2.284l1.1,1.1,4.17-3.781a1.614,1.614,0,1,1,2.168,2.391L84.216,17.6a1.614,1.614,0,0,1-2.224-.053Z" transform="translate(-1.002 -3.405)" fill-rule="evenodd"/>
        </g>
      </g>
    </g>
  </g>
</svg>
