<svg xmlns="http://www.w3.org/2000/svg" xmlns:xlink="http://www.w3.org/1999/xlink" width="190" height="91" viewBox="0 0 190 91">
  <defs>
    <clipPath id="clip-path">
      <rect id="Rectángulo_401573" data-name="Rectángulo 401573" width="28.836" height="87" fill="none"/>
    </clipPath>
    <clipPath id="clip-path-2">
      <rect id="Rectángulo_401572" data-name="Rectángulo 401572" width="72.283" height="205.455" fill="none"/>
    </clipPath>
    <clipPath id="clip-path-3">
      <rect id="Rectángulo_403255" data-name="Rectángulo 403255" width="71" height="71" fill="#fff" stroke="#707070" stroke-width="1"/>
    </clipPath>
  </defs>
  <g id="_15" data-name="15" transform="translate(-180.051 -391)">
    <g id="Grupo_1101503" data-name="Grupo 1101503" transform="translate(180.051 391)">
      <g id="Grupo_1099687" data-name="Grupo 1099687" transform="translate(0 0.333)" clip-path="url(#clip-path)">
        <g id="Grupo_1099686" data-name="Grupo 1099686" transform="translate(-6.669 -43.137)" opacity="0.45" style="mix-blend-mode: multiply;isolation: isolate">
          <g id="Grupo_1099685" data-name="Grupo 1099685">
            <g id="Grupo_1099684" data-name="Grupo 1099684" clip-path="url(#clip-path-2)">
              <path id="Trazado_873516" data-name="Trazado 873516" d="M3.011,19.235,87.333,7.789,86.8,12.52,2.48,23.966Z" transform="matrix(0.898, -0.44, 0.44, 0.898, -11.17, 159.431)" fill="#2d0464"/>
              <path id="Trazado_873517" data-name="Trazado 873517" d="M3.011,19.235,87.333,7.789,86.8,12.52,2.48,23.966Z" transform="matrix(0.898, -0.44, 0.44, 0.898, -11.17, 146.632)" fill="#2d0464"/>
              <path id="Trazado_873518" data-name="Trazado 873518" d="M3.011,19.235,87.333,7.789,86.8,12.52,2.48,23.966Z" transform="matrix(0.898, -0.44, 0.44, 0.898, -11.17, 133.833)" fill="#2d0464"/>
              <path id="Trazado_873519" data-name="Trazado 873519" d="M3.011,19.235,87.333,7.789,86.8,12.52,2.48,23.966Z" transform="matrix(0.898, -0.44, 0.44, 0.898, -11.17, 121.035)" fill="#2d0464"/>
              <path id="Trazado_873520" data-name="Trazado 873520" d="M3.011,19.235,87.333,7.789,86.8,12.52,2.48,23.966Z" transform="matrix(0.898, -0.44, 0.44, 0.898, -11.17, 108.236)" fill="#2d0464"/>
              <path id="Trazado_873521" data-name="Trazado 873521" d="M3.011,19.235,87.333,7.789,86.8,12.52,2.48,23.966Z" transform="matrix(0.898, -0.44, 0.44, 0.898, -11.17, 95.438)" fill="#2d0464"/>
              <path id="Trazado_873522" data-name="Trazado 873522" d="M3.011,19.235,87.333,7.789,86.8,12.52,2.48,23.966Z" transform="matrix(0.898, -0.44, 0.44, 0.898, -11.17, 82.639)" fill="#2d0464"/>
              <path id="Trazado_873523" data-name="Trazado 873523" d="M3.011,19.235,87.333,7.789,86.8,12.52,2.48,23.966Z" transform="matrix(0.898, -0.44, 0.44, 0.898, -11.17, 69.841)" fill="#2d0464"/>
              <path id="Trazado_873524" data-name="Trazado 873524" d="M3.011,19.235,87.333,7.789,86.8,12.52,2.48,23.966Z" transform="matrix(0.898, -0.44, 0.44, 0.898, -11.17, 57.043)" fill="#2d0464"/>
              <path id="Trazado_873525" data-name="Trazado 873525" d="M3.011,19.235,87.333,7.789,86.8,12.52,2.48,23.966Z" transform="matrix(0.898, -0.44, 0.44, 0.898, -11.17, 44.244)" fill="#2d0464"/>
              <path id="Trazado_873526" data-name="Trazado 873526" d="M3.011,19.235,87.333,7.789,86.8,12.52,2.48,23.966Z" transform="translate(-11.17 31.445) rotate(-26.114)" fill="#2d0464"/>
            </g>
          </g>
        </g>
      </g>
      <rect id="Rectángulo_401574" data-name="Rectángulo 401574" width="161" height="91" transform="translate(29)" fill="#efe8f7"/>
    </g>
    <g id="Enmascarar_grupo_1098715" data-name="Enmascarar grupo 1098715" transform="translate(254.051 401)" clip-path="url(#clip-path-3)">
      <g id="controlador" transform="translate(1.523 1.04)">
        <g id="Grupo_1101903" data-name="Grupo 1101903">
          <path id="Trazado_912980" data-name="Trazado 912980" d="M49.446,4.331V59.815a3.292,3.292,0,0,1-3.291,3.291H4.813a3.291,3.291,0,0,1-3.291-3.291V4.331A3.29,3.29,0,0,1,4.813,1.04H46.156A3.291,3.291,0,0,1,49.446,4.331Z" transform="translate(-1.523 -1.04)" fill="#e5e1e5"/>
          <path id="Trazado_912981" data-name="Trazado 912981" d="M49.446,28.871V59.815a3.292,3.292,0,0,1-3.291,3.291H31.6V31.327a2.456,2.456,0,0,1,2.456-2.456H49.446Z" transform="translate(-1.523 -1.04)" fill="#d7d0d6"/>
          <path id="Trazado_912982" data-name="Trazado 912982" d="M49.446,25.147v6.516H43.564a1.716,1.716,0,0,1-1.717-1.715V26.862a1.716,1.716,0,0,1,1.717-1.715h5.882Z" transform="translate(-1.523 -1.04)" fill="#d7d0d6"/>
          <path id="Trazado_912983" data-name="Trazado 912983" d="M46.156,1.04H41.99a3.29,3.29,0,0,1,3.29,3.29V59.814a3.29,3.29,0,0,1-3.29,3.29h4.166a3.29,3.29,0,0,0,3.29-3.29V4.33A3.29,3.29,0,0,0,46.156,1.04Z" transform="translate(-1.523 -1.04)" fill="#d7d0d6"/>
          <g id="Grupo_1101902" data-name="Grupo 1101902" transform="translate(32.858 24.107)">
            <path id="Trazado_912984" data-name="Trazado 912984" d="M49.446,28.871H36.837a2.456,2.456,0,0,0-2.456,2.456V67.5a2.456,2.456,0,0,0,2.456,2.456H67.022A2.456,2.456,0,0,0,69.477,67.5V31.327a2.456,2.456,0,0,0-2.456-2.456H49.446Z" transform="translate(-34.381 -25.147)" fill="#fd4755"/>
            <path id="Trazado_912985" data-name="Trazado 912985" d="M67.022,28.871H62.578a2.456,2.456,0,0,1,2.456,2.456V67.5a2.456,2.456,0,0,1-2.456,2.456h4.443A2.456,2.456,0,0,0,69.477,67.5V31.327A2.456,2.456,0,0,0,67.022,28.871Z" transform="translate(-34.381 -25.147)" fill="#fb2b3a"/>
            <path id="Trazado_912986" data-name="Trazado 912986" d="M65.034,28.871V64.414a1.1,1.1,0,0,1-1.1,1.1H39.926a1.1,1.1,0,0,1-1.1-1.1V28.871Z" transform="translate(-34.381 -25.147)" fill="#fff0ad"/>
            <path id="Trazado_912987" data-name="Trazado 912987" d="M56.445,28.871v1.076a1.716,1.716,0,0,1-1.717,1.715H43.564a1.716,1.716,0,0,1-1.717-1.715V28.871Z" transform="translate(-34.381 -25.147)" fill="#ffe177"/>
            <path id="Trazado_912988" data-name="Trazado 912988" d="M62.251,28.871V64.276a1.24,1.24,0,0,1-1.24,1.24h2.921a1.1,1.1,0,0,0,1.1-1.1V28.871Z" transform="translate(-34.381 -25.147)" fill="#ffe177"/>
            <path id="Trazado_912989" data-name="Trazado 912989" d="M57.512,31.664H46.346a1.716,1.716,0,0,1-1.716-1.716V26.863a1.716,1.716,0,0,1,1.716-1.716H57.512a1.716,1.716,0,0,1,1.716,1.716v3.085A1.716,1.716,0,0,1,57.512,31.664Z" transform="translate(-34.381 -25.147)" fill="#838383"/>
            <path id="Trazado_912990" data-name="Trazado 912990" d="M57.512,25.147H54.729a1.716,1.716,0,0,1,1.716,1.716v3.085a1.716,1.716,0,0,1-1.716,1.716h2.783a1.716,1.716,0,0,0,1.716-1.716V26.863A1.716,1.716,0,0,0,57.512,25.147Z" transform="translate(-34.381 -25.147)" fill="#696969"/>
            <g id="Grupo_1101899" data-name="Grupo 1101899" transform="translate(10.09 11.063)">
              <path id="Trazado_912991" data-name="Trazado 912991" d="M49.017,41.85H45.566a1.1,1.1,0,0,1-1.095-1.095V37.3a1.1,1.1,0,0,1,1.095-1.095h3.452A1.1,1.1,0,0,1,50.112,37.3v3.452A1.1,1.1,0,0,1,49.017,41.85Z" transform="translate(-44.471 -36.209)" fill="#6c7fd8"/>
            </g>
            <g id="Grupo_1101900" data-name="Grupo 1101900" transform="translate(10.09 20.708)">
              <path id="Trazado_912992" data-name="Trazado 912992" d="M49.017,51.495H45.566A1.1,1.1,0,0,1,44.471,50.4V46.949a1.1,1.1,0,0,1,1.095-1.095h3.452a1.1,1.1,0,0,1,1.095,1.095V50.4A1.1,1.1,0,0,1,49.017,51.495Z" transform="translate(-44.471 -45.854)" fill="#6c7fd8"/>
            </g>
            <g id="Grupo_1101901" data-name="Grupo 1101901" transform="translate(10.09 30.353)">
              <path id="Trazado_912993" data-name="Trazado 912993" d="M49.017,61.14H45.566a1.1,1.1,0,0,1-1.095-1.095V56.594A1.1,1.1,0,0,1,45.566,55.5h3.452a1.1,1.1,0,0,1,1.095,1.095v3.452A1.1,1.1,0,0,1,49.017,61.14Z" transform="translate(-44.471 -55.499)" fill="#6c7fd8"/>
            </g>
          </g>
          <path id="Trazado_912994" data-name="Trazado 912994" d="M9.683,13.282V11.288A2.088,2.088,0,0,1,11.77,9.2H39.2a2.088,2.088,0,0,1,2.088,2.088v1.994A2.088,2.088,0,0,1,39.2,15.37H11.77A2.087,2.087,0,0,1,9.683,13.282Z" transform="translate(-1.523 -1.04)" fill="#0ed2b3"/>
          <path id="Trazado_912995" data-name="Trazado 912995" d="M39.2,9.2H35.032a2.088,2.088,0,0,1,2.088,2.088v1.994a2.088,2.088,0,0,1-2.088,2.088H39.2a2.088,2.088,0,0,0,2.088-2.088V11.288A2.088,2.088,0,0,0,39.2,9.2Z" transform="translate(-1.523 -1.04)" fill="#0ab69f"/>
          <circle id="Elipse_11556" data-name="Elipse 11556" cx="9.577" cy="9.577" r="9.577" transform="translate(8.16 19.924)" fill="#ffd15b"/>
          <path id="Trazado_912996" data-name="Trazado 912996" d="M19.26,20.964a9.654,9.654,0,0,0-1.392.1,9.577,9.577,0,0,1,0,18.95A9.577,9.577,0,1,0,19.26,20.964Z" transform="translate(-1.523 -1.04)" fill="#ffc344"/>
        </g>
        <g id="Grupo_1101908" data-name="Grupo 1101908">
          <g id="Grupo_1101907" data-name="Grupo 1101907" transform="translate(32.858 24.107)">
            <path id="Trazado_912997" data-name="Trazado 912997" d="M59.228,28.871h7.793a2.456,2.456,0,0,1,2.456,2.456V67.5a2.456,2.456,0,0,1-2.456,2.456H36.837A2.456,2.456,0,0,1,34.381,67.5V31.327a2.456,2.456,0,0,1,2.456-2.456H44.63" transform="translate(-34.381 -25.147)" fill="none" stroke="#000" stroke-linecap="round" stroke-linejoin="round" stroke-miterlimit="10" stroke-width="2.08"/>
            <path id="Trazado_912998" data-name="Trazado 912998" d="M65.034,60.749v3.665a1.1,1.1,0,0,1-1.1,1.1h-24a1.1,1.1,0,0,1-1.1-1.1V28.871" transform="translate(-34.381 -25.147)" fill="none" stroke="#000" stroke-linecap="round" stroke-linejoin="round" stroke-miterlimit="10" stroke-width="2.08"/>
            <line id="Línea_669" data-name="Línea 669" y2="27.012" transform="translate(30.653 3.724)" fill="none" stroke="#000" stroke-linecap="round" stroke-linejoin="round" stroke-miterlimit="10" stroke-width="2.08"/>
            <path id="Trazado_912999" data-name="Trazado 912999" d="M57.512,31.664H46.346a1.716,1.716,0,0,1-1.716-1.716V26.863a1.716,1.716,0,0,1,1.716-1.716H57.512a1.716,1.716,0,0,1,1.716,1.716v3.085A1.716,1.716,0,0,1,57.512,31.664Z" transform="translate(-34.381 -25.147)" fill="none" stroke="#000" stroke-linecap="round" stroke-linejoin="round" stroke-miterlimit="10" stroke-width="2.08"/>
            <g id="Grupo_1101904" data-name="Grupo 1101904" transform="translate(10.09 11.063)">
              <path id="Trazado_913000" data-name="Trazado 913000" d="M49.017,41.85H45.566a1.1,1.1,0,0,1-1.095-1.095V37.3a1.1,1.1,0,0,1,1.095-1.095h3.452A1.1,1.1,0,0,1,50.112,37.3v3.452A1.1,1.1,0,0,1,49.017,41.85Z" transform="translate(-44.471 -36.209)" fill="none" stroke="#000" stroke-linecap="round" stroke-linejoin="round" stroke-miterlimit="10" stroke-width="2.08"/>
              <line id="Línea_670" data-name="Línea 670" x2="4.741" transform="translate(10.016 2.82)" fill="none" stroke="#000" stroke-linecap="round" stroke-linejoin="round" stroke-miterlimit="10" stroke-width="2.08"/>
            </g>
            <g id="Grupo_1101905" data-name="Grupo 1101905" transform="translate(10.09 20.708)">
              <path id="Trazado_913001" data-name="Trazado 913001" d="M49.017,51.495H45.566A1.1,1.1,0,0,1,44.471,50.4V46.949a1.1,1.1,0,0,1,1.095-1.095h3.452a1.1,1.1,0,0,1,1.095,1.095V50.4A1.1,1.1,0,0,1,49.017,51.495Z" transform="translate(-44.471 -45.854)" fill="none" stroke="#000" stroke-linecap="round" stroke-linejoin="round" stroke-miterlimit="10" stroke-width="2.08"/>
              <line id="Línea_671" data-name="Línea 671" x2="4.741" transform="translate(10.016 2.82)" fill="none" stroke="#000" stroke-linecap="round" stroke-linejoin="round" stroke-miterlimit="10" stroke-width="2.08"/>
            </g>
            <g id="Grupo_1101906" data-name="Grupo 1101906" transform="translate(10.09 30.353)">
              <path id="Trazado_913002" data-name="Trazado 913002" d="M49.017,61.14H45.566a1.1,1.1,0,0,1-1.095-1.095V56.594A1.1,1.1,0,0,1,45.566,55.5h3.452a1.1,1.1,0,0,1,1.095,1.095v3.452A1.1,1.1,0,0,1,49.017,61.14Z" transform="translate(-44.471 -55.499)" fill="none" stroke="#000" stroke-linecap="round" stroke-linejoin="round" stroke-miterlimit="10" stroke-width="2.08"/>
              <line id="Línea_672" data-name="Línea 672" x2="4.741" transform="translate(10.016 2.82)" fill="none" stroke="#000" stroke-linecap="round" stroke-linejoin="round" stroke-miterlimit="10" stroke-width="2.08"/>
            </g>
          </g>
          <path id="Trazado_913003" data-name="Trazado 913003" d="M34.381,63.105H4.813a3.291,3.291,0,0,1-3.291-3.291V4.331A3.29,3.29,0,0,1,4.813,1.04H46.156a3.291,3.291,0,0,1,3.291,3.291v15.92" transform="translate(-1.523 -1.04)" fill="none" stroke="#000" stroke-linecap="round" stroke-linejoin="round" stroke-miterlimit="10" stroke-width="2.08"/>
          <path id="Trazado_913004" data-name="Trazado 913004" d="M19.735,9.2H39.2a2.088,2.088,0,0,1,2.088,2.088v1.994A2.088,2.088,0,0,1,39.2,15.37H11.77a2.088,2.088,0,0,1-2.088-2.088V11.288A2.088,2.088,0,0,1,11.77,9.2h3.083" transform="translate(-1.523 -1.04)" fill="none" stroke="#000" stroke-linecap="round" stroke-linejoin="round" stroke-miterlimit="10" stroke-width="2.08"/>
          <path id="Trazado_913005" data-name="Trazado 913005" d="M15.589,39.389v11.1a7.9,7.9,0,0,0,7.9,7.9h10.89" transform="translate(-1.523 -1.04)" fill="none" stroke="#000" stroke-linecap="round" stroke-linejoin="round" stroke-miterlimit="10" stroke-width="2.08"/>
          <path id="Trazado_913006" data-name="Trazado 913006" d="M21.726,39.8V49.871a2.8,2.8,0,0,0,2.8,2.8h9.852" transform="translate(-1.523 -1.04)" fill="none" stroke="#000" stroke-linecap="round" stroke-linejoin="round" stroke-miterlimit="10" stroke-width="2.08"/>
          <line id="Línea_673" data-name="Línea 673" x1="3.814" transform="translate(29.354 21.961)" fill="none" stroke="#000" stroke-linecap="round" stroke-linejoin="round" stroke-miterlimit="10" stroke-width="2.08"/>
          <line id="Línea_674" data-name="Línea 674" transform="translate(37.301 21.961)" fill="none" stroke="#000" stroke-linecap="round" stroke-linejoin="round" stroke-miterlimit="10" stroke-width="2.08"/>
          <path id="Trazado_913007" data-name="Trazado 913007" d="M19.4,35.232l1.812-4.691H17.307l1.812-4.691" transform="translate(-1.523 -1.04)" fill="none" stroke="#000" stroke-linecap="round" stroke-linejoin="round" stroke-miterlimit="10" stroke-width="2.08"/>
          <circle id="Elipse_11557" data-name="Elipse 11557" cx="9.577" cy="9.577" r="9.577" transform="translate(8.16 19.924)" fill="none" stroke="#000" stroke-linecap="round" stroke-linejoin="round" stroke-miterlimit="10" stroke-width="2.08"/>
        </g>
      </g>
    </g>
  </g>
</svg>
