<svg xmlns="http://www.w3.org/2000/svg" xmlns:xlink="http://www.w3.org/1999/xlink" width="290.934" height="115" viewBox="0 0 290.934 115">
  <defs>
    <clipPath id="clip-path">
      <rect id="Rectángulo_401573" data-name="Rectángulo 401573" width="28.836" height="111" fill="#3ba935"/>
    </clipPath>
    <clipPath id="clip-path-2">
      <rect id="Rectángulo_401572" data-name="Rectángulo 401572" width="72.283" height="262.133" fill="#3ba935"/>
    </clipPath>
  </defs>
  <g id="_19" data-name="19" transform="translate(-180.051 -2288.95)">
    <g id="Grupo_1101824" data-name="Grupo 1101824" transform="translate(180.051 2288.95)">
      <g id="Grupo_1099687" data-name="Grupo 1099687" transform="translate(0 0.333)" clip-path="url(#clip-path)">
        <g id="Grupo_1099686" data-name="Grupo 1099686" transform="translate(-6.669 -55.037)" opacity="0.45" style="mix-blend-mode: multiply;isolation: isolate">
          <g id="Grupo_1099685" data-name="Grupo 1099685">
            <g id="Grupo_1099684" data-name="Grupo 1099684" clip-path="url(#clip-path-2)">
              <path id="Trazado_873516" data-name="Trazado 873516" d="M1.075,23.185,91.151,0,90.077,5.841,0,29.026Z" transform="matrix(0.898, -0.44, 0.44, 0.898, -11.17, 203.412)" fill="#3ba935"/>
              <path id="Trazado_873517" data-name="Trazado 873517" d="M1.075,23.185,91.151,0,90.077,5.841,0,29.026Z" transform="matrix(0.898, -0.44, 0.44, 0.898, -11.17, 187.082)" fill="#3ba935"/>
              <path id="Trazado_873518" data-name="Trazado 873518" d="M1.075,23.185,91.151,0,90.077,5.841,0,29.026Z" transform="matrix(0.898, -0.44, 0.44, 0.898, -11.17, 170.753)" fill="#3ba935"/>
              <path id="Trazado_873519" data-name="Trazado 873519" d="M1.075,23.185,91.151,0,90.077,5.841,0,29.026Z" transform="matrix(0.898, -0.44, 0.44, 0.898, -11.17, 154.424)" fill="#3ba935"/>
              <path id="Trazado_873520" data-name="Trazado 873520" d="M1.075,23.185,91.151,0,90.077,5.841,0,29.026Z" transform="matrix(0.898, -0.44, 0.44, 0.898, -11.17, 138.095)" fill="#3ba935"/>
              <path id="Trazado_873521" data-name="Trazado 873521" d="M1.075,23.185,91.151,0,90.077,5.841,0,29.026Z" transform="matrix(0.898, -0.44, 0.44, 0.898, -11.17, 121.766)" fill="#3ba935"/>
              <path id="Trazado_873522" data-name="Trazado 873522" d="M1.075,23.185,91.151,0,90.077,5.841,0,29.026Z" transform="matrix(0.898, -0.44, 0.44, 0.898, -11.17, 105.437)" fill="#3ba935"/>
              <path id="Trazado_873523" data-name="Trazado 873523" d="M1.075,23.185,91.151,0,90.077,5.841,0,29.026Z" transform="matrix(0.898, -0.44, 0.44, 0.898, -11.17, 89.108)" fill="#3ba935"/>
              <path id="Trazado_873524" data-name="Trazado 873524" d="M1.075,23.185,91.151,0,90.077,5.841,0,29.026Z" transform="matrix(0.898, -0.44, 0.44, 0.898, -11.17, 72.779)" fill="#3ba935"/>
              <path id="Trazado_873525" data-name="Trazado 873525" d="M1.075,23.185,91.151,0,90.077,5.841,0,29.026Z" transform="matrix(0.898, -0.44, 0.44, 0.898, -11.17, 56.449)" fill="#3ba935"/>
              <path id="Trazado_873526" data-name="Trazado 873526" d="M1.075,23.185,91.151,0,90.077,5.841,0,29.026Z" transform="translate(-11.17 40.12) rotate(-26.114)" fill="#3ba935"/>
            </g>
          </g>
        </g>
      </g>
      <rect id="Rectángulo_401574" data-name="Rectángulo 401574" width="261.934" height="115" transform="translate(29)" fill="#ebf6ea"/>
    </g>
    <g id="sensor-de-movimiento" transform="translate(272.51 2292.899)">
      <g id="Grupo_1107653" data-name="Grupo 1107653" transform="translate(30.176 30.176)">
        <g id="Grupo_1107652" data-name="Grupo 1107652">
          <path id="Trazado_915544" data-name="Trazado 915544" d="M144.341,133.482v-5.1a3.287,3.287,0,0,1,3.277-3.277h3.2a3.287,3.287,0,0,1,3.277,3.277v5.1Zm-10.86,20.132h-5.1a3.287,3.287,0,0,1-3.277-3.277v-3.2a3.287,3.287,0,0,1,3.277-3.277h5.1Zm20.132,10.859v5.1a3.287,3.287,0,0,1-3.277,3.277h-3.2a3.287,3.287,0,0,1-3.277-3.277v-5.1Zm10.86-20.132h5.1a3.287,3.287,0,0,1,3.277,3.277v3.2a3.287,3.287,0,0,1-3.277,3.277h-5.1Z" transform="translate(-125.103 -125.103)" fill="#f76c82" fill-rule="evenodd"/>
          <path id="Trazado_915545" data-name="Trazado 915545" d="M165.507,161.041h25.707a4.475,4.475,0,0,1,4.466,4.466v25.707a4.475,4.475,0,0,1-4.466,4.466H165.507a4.475,4.475,0,0,1-4.466-4.466V165.507A4.475,4.475,0,0,1,165.507,161.041Z" transform="translate(-154.486 -154.486)" fill="#636c77" fill-rule="evenodd"/>
          <path id="Trazado_915546" data-name="Trazado 915546" d="M222.263,219.774H230.5a2.492,2.492,0,0,1,2.489,2.489V230.5a2.492,2.492,0,0,1-2.489,2.489h-8.237a2.492,2.492,0,0,1-2.489-2.489v-8.237a2.492,2.492,0,0,1,2.489-2.489Z" transform="translate(-202.507 -202.507)" fill="#fdcd56" fill-rule="evenodd"/>
        </g>
      </g>
      <path id="Trazado_915547" data-name="Trazado 915547" d="M76.649,52.693a2,2,0,0,0-2-2h-2v7.2h2a2,2,0,0,0,2-2ZM70.094,41.2a3.194,3.194,0,0,0-3.19-3.19H41.2a3.193,3.193,0,0,0-3.189,3.19V66.9a3.194,3.194,0,0,0,3.189,3.19H66.9a3.2,3.2,0,0,0,3.19-3.19ZM57.41,72.648h-7.2v2a2,2,0,0,0,2,2h3.2a2,2,0,0,0,2-2ZM50.691,35.455h7.2v-2a2,2,0,0,0-2-2h-3.2a2,2,0,0,0-2,2ZM35.454,57.41v-7.2h-2a2,2,0,0,0-2,2v3.2a2,2,0,0,0,2,2h2ZM79.2,52.693v3.2a4.559,4.559,0,0,1-4.554,4.555h-2V66.9A5.751,5.751,0,0,1,66.9,72.648h-6.94v2A4.559,4.559,0,0,1,55.41,79.2h-3.2a4.56,4.56,0,0,1-4.555-4.555v-2H41.2A5.751,5.751,0,0,1,35.454,66.9v-6.94h-2A4.56,4.56,0,0,1,28.9,55.41v-3.2a4.559,4.559,0,0,1,4.554-4.555h2V41.2A5.751,5.751,0,0,1,41.2,35.455h6.941v-2A4.56,4.56,0,0,1,52.692,28.9h3.2a4.56,4.56,0,0,1,4.554,4.554v2H66.9A5.751,5.751,0,0,1,72.647,41.2v6.94h2A4.559,4.559,0,0,1,79.2,52.693ZM59.023,59.475H49.078a.458.458,0,0,1-.451-.452V49.079a.458.458,0,0,1,.451-.452h9.945a.458.458,0,0,1,.451.452v9.944A.458.458,0,0,1,59.023,59.475Zm3-9.527v2.825h1.484a1.277,1.277,0,0,1,0,2.553H62.028v2.825h1.484a1.277,1.277,0,0,1,0,2.554h-2a3.025,3.025,0,0,1-.806.806v2a1.277,1.277,0,1,1-2.553,0V62.029H55.327v1.483a1.277,1.277,0,1,1-2.553,0V62.029H49.95v1.483a1.277,1.277,0,1,1-2.554,0v-2a3.051,3.051,0,0,1-.806-.806h-2a1.277,1.277,0,0,1,0-2.554h1.484V55.327H44.589a1.277,1.277,0,1,1,0-2.553h1.484V49.949H44.589a1.277,1.277,0,1,1,0-2.553h2a3.079,3.079,0,0,1,.806-.806v-2a1.277,1.277,0,0,1,2.554,0v1.484h2.824V44.59a1.277,1.277,0,0,1,2.553,0v1.484h2.825V44.59a1.277,1.277,0,0,1,2.553,0v2a3.052,3.052,0,0,1,.806.806h2a1.277,1.277,0,0,1,0,2.553ZM17.7,54.051a11.989,11.989,0,0,1,3.533-8.531,1.276,1.276,0,1,0-1.806-1.8,14.614,14.614,0,0,0,0,20.668,1.277,1.277,0,0,0,1.806-1.806A11.98,11.98,0,0,1,17.7,54.051Zm7.88-5.99a1.279,1.279,0,0,1,0,1.806,5.915,5.915,0,0,0,0,8.368,1.277,1.277,0,0,1-1.806,1.806,8.47,8.47,0,0,1,0-11.979,1.277,1.277,0,0,1,1.806,0Zm-14.026,5.99a18.092,18.092,0,0,0,5.333,12.874,1.277,1.277,0,1,1-1.806,1.806,20.761,20.761,0,0,1,0-29.361,1.277,1.277,0,0,1,1.806,1.806,18.092,18.092,0,0,0-5.334,12.876ZM43.715,86.869a1.277,1.277,0,0,0,0,1.806,14.615,14.615,0,0,0,20.669,0,1.277,1.277,0,0,0-1.806-1.806,12.063,12.063,0,0,1-17.059,0,1.277,1.277,0,0,0-1.8,0Zm23.21,4.346a1.277,1.277,0,0,1,1.806,1.806,20.761,20.761,0,0,1-29.362,0,1.276,1.276,0,1,1,1.806-1.8,18.208,18.208,0,0,0,25.75,0ZM60.039,84.33a8.471,8.471,0,0,1-11.979,0,1.277,1.277,0,0,1,1.806-1.808,5.912,5.912,0,0,0,8.367,0,1.278,1.278,0,0,1,1.806,1.808ZM93.02,39.37a1.277,1.277,0,0,0-1.806,1.806,18.205,18.205,0,0,1,0,25.75,1.276,1.276,0,1,0,1.8,1.806,20.758,20.758,0,0,0,0-29.361Zm-8.692,8.693a1.277,1.277,0,0,0-1.806,1.806,5.911,5.911,0,0,1,0,8.366,1.277,1.277,0,0,0,1.806,1.806,8.466,8.466,0,0,0,0-11.978Zm4.346-4.346a14.616,14.616,0,0,1,0,20.67,1.277,1.277,0,0,1-1.806-1.806,12.061,12.061,0,0,0,0-17.059,1.277,1.277,0,0,1,1.806-1.806ZM63.484,21.608a1.277,1.277,0,0,0,.9-2.18,14.616,14.616,0,0,0-20.67,0,1.277,1.277,0,0,0,1.8,1.806,12.063,12.063,0,0,1,17.06,0A1.266,1.266,0,0,0,63.484,21.608ZM48.062,23.774a8.471,8.471,0,0,1,11.979,0,1.277,1.277,0,1,1-1.806,1.806,5.917,5.917,0,0,0-8.367,0,1.277,1.277,0,0,1-1.806-1.806ZM39.37,16.887a1.277,1.277,0,0,1,0-1.806,20.758,20.758,0,0,1,29.361,0,1.277,1.277,0,1,1-1.806,1.8,18.2,18.2,0,0,0-25.75,0A1.278,1.278,0,0,1,39.37,16.887Z" fill-rule="evenodd"/>
    </g>
  </g>
</svg>
