<svg xmlns="http://www.w3.org/2000/svg" xmlns:xlink="http://www.w3.org/1999/xlink" width="190" height="213.001" viewBox="0 0 190 213.001">
  <defs>
    <clipPath id="clip-path">
      <rect id="Rectángulo_401573" data-name="Rectángulo 401573" width="28.836" height="209.333" fill="#73c8e2"/>
    </clipPath>
    <clipPath id="clip-path-2">
      <rect id="Rectángulo_401572" data-name="Rectángulo 401572" width="72.283" height="494.356" fill="#73c8e2"/>
    </clipPath>
    <clipPath id="clip-path-3">
      <rect id="Rectángulo_401571" data-name="Rectángulo 401571" width="93" height="93" fill="#fff" stroke="#707070" stroke-width="1"/>
    </clipPath>
  </defs>
  <g id="_23" data-name="23" transform="translate(-180.051 -737.999)">
    <g id="Grupo_1099688" data-name="Grupo 1099688" transform="translate(180.051 737.999)">
      <g id="Grupo_1099687" data-name="Grupo 1099687" clip-path="url(#clip-path)">
        <g id="Grupo_1099686" data-name="Grupo 1099686" transform="translate(-6.669 -103.795)" opacity="0.45" style="mix-blend-mode: multiply;isolation: isolate">
          <g id="Grupo_1099685" data-name="Grupo 1099685">
            <g id="Grupo_1099684" data-name="Grupo 1099684" clip-path="url(#clip-path-2)">
              <path id="Trazado_873516" data-name="Trazado 873516" d="M-3.045,59.609,110.609-11.675,107.3-1.286-6.35,70Z" transform="matrix(0.898, -0.44, 0.44, 0.898, -23.502, 367.118)" fill="#73c8e2"/>
              <path id="Trazado_873517" data-name="Trazado 873517" d="M-3.045,59.609,110.609-11.675,107.3-1.286-6.35,70Z" transform="matrix(0.898, -0.44, 0.44, 0.898, -23.502, 336.322)" fill="#73c8e2"/>
              <path id="Trazado_873518" data-name="Trazado 873518" d="M-3.045,59.609,110.609-11.675,107.3-1.286-6.35,70Z" transform="matrix(0.898, -0.44, 0.44, 0.898, -23.502, 305.527)" fill="#73c8e2"/>
              <path id="Trazado_873519" data-name="Trazado 873519" d="M-3.045,59.609,110.609-11.675,107.3-1.286-6.35,70Z" transform="matrix(0.898, -0.44, 0.44, 0.898, -23.502, 274.733)" fill="#73c8e2"/>
              <path id="Trazado_873520" data-name="Trazado 873520" d="M-3.045,59.609,110.609-11.675,107.3-1.286-6.35,70Z" transform="matrix(0.898, -0.44, 0.44, 0.898, -23.502, 243.937)" fill="#73c8e2"/>
              <path id="Trazado_873521" data-name="Trazado 873521" d="M-3.045,59.609,110.609-11.675,107.3-1.286-6.35,70Z" transform="matrix(0.898, -0.44, 0.44, 0.898, -23.502, 213.142)" fill="#73c8e2"/>
              <path id="Trazado_873522" data-name="Trazado 873522" d="M-3.045,59.609,110.609-11.675,107.3-1.286-6.35,70Z" transform="matrix(0.898, -0.44, 0.44, 0.898, -23.502, 182.347)" fill="#73c8e2"/>
              <path id="Trazado_873523" data-name="Trazado 873523" d="M-3.045,59.609,110.609-11.675,107.3-1.286-6.35,70Z" transform="matrix(0.898, -0.44, 0.44, 0.898, -23.502, 151.552)" fill="#73c8e2"/>
              <path id="Trazado_873524" data-name="Trazado 873524" d="M-3.045,59.609,110.609-11.675,107.3-1.286-6.35,70Z" transform="matrix(0.898, -0.44, 0.44, 0.898, -23.502, 120.757)" fill="#73c8e2"/>
              <path id="Trazado_873525" data-name="Trazado 873525" d="M-3.045,59.609,110.609-11.675,107.3-1.286-6.35,70Z" transform="matrix(0.898, -0.44, 0.44, 0.898, -23.502, 89.962)" fill="#73c8e2"/>
              <path id="Trazado_873526" data-name="Trazado 873526" d="M-3.045,59.609,110.609-11.675,107.3-1.286-6.35,70Z" transform="translate(-23.502 59.167) rotate(-26.114)" fill="#73c8e2"/>
            </g>
          </g>
        </g>
      </g>
      <rect id="Rectángulo_401574" data-name="Rectángulo 401574" width="161" height="213" transform="translate(29 0.001)" fill="#e2f4f9"/>
    </g>
    <g id="Enmascarar_grupo_1098705" data-name="Enmascarar grupo 1098705" transform="translate(243.051 798)" clip-path="url(#clip-path-3)">
      <g id="obediente" transform="translate(0 0)">
        <path id="Trazado_912437" data-name="Trazado 912437" d="M1.816,1.816h71.17V91.184H1.816Z" transform="translate(0 0)" fill="#d1a184"/>
        <path id="Trazado_912438" data-name="Trazado 912438" d="M9.082,9.082H65.72V83.918H9.082Z" transform="translate(0 0)" fill="#fff"/>
        <g id="Grupo_1101492" data-name="Grupo 1101492" transform="translate(49.485 34.957)">
          <path id="Trazado_912439" data-name="Trazado 912439" d="M91.184,60.119V51.493H87.732a17.816,17.816,0,0,0-2.046-4.938l2.441-2.441-6.1-6.1-2.441,2.441a17.814,17.814,0,0,0-4.938-2.046V34.957H66.021v3.452a17.816,17.816,0,0,0-4.938,2.046l-2.441-2.441-6.1,6.1,2.441,2.441a17.814,17.814,0,0,0-2.046,4.938H49.485v8.626h3.452a17.816,17.816,0,0,0,2.046,4.938L52.541,67.5l6.1,6.1,2.441-2.441A17.812,17.812,0,0,0,66.021,73.2v3.452h8.626V73.2a17.816,17.816,0,0,0,4.938-2.046L82.027,73.6l6.1-6.1-2.441-2.441a17.814,17.814,0,0,0,2.046-4.938Z" transform="translate(-49.485 -34.957)" fill="#a0e5a5"/>
        </g>
        <g id="Grupo_1101493" data-name="Grupo 1101493" transform="translate(59.621 48.556)">
          <path id="Trazado_912440" data-name="Trazado 912440" d="M68.209,64.423a3.621,3.621,0,0,1-2.569-1.064L59.621,57.34,64.758,52.2l3.45,3.45,7.1-7.1,5.138,5.138-9.665,9.665a3.621,3.621,0,0,1-2.569,1.064Z" transform="translate(-59.621 -48.556)" fill="#66e0f7"/>
        </g>
        <path id="Trazado_912441" data-name="Trazado 912441" d="M20.525,1.816H54.277v9.809H20.525Z" transform="translate(0 0)" fill="#66e0f7"/>
        <g id="Grupo_1101494" data-name="Grupo 1101494">
          <path id="Trazado_912442" data-name="Trazado 912442" d="M32.407,26.264H56.853a1.816,1.816,0,0,0,0-3.633H32.407a1.816,1.816,0,0,0,0,3.633Z" transform="translate(0 0)"/>
          <path id="Trazado_912443" data-name="Trazado 912443" d="M24.194,19.987l-3.977,3.977-.984-.984a1.817,1.817,0,1,0-2.569,2.569l2.268,2.268a1.816,1.816,0,0,0,2.569,0l5.261-5.261a1.816,1.816,0,1,0-2.569-2.569Z" transform="translate(0 0)"/>
          <path id="Trazado_912444" data-name="Trazado 912444" d="M49.485,34.561H32.407a1.816,1.816,0,1,0,0,3.633H49.485a1.816,1.816,0,0,0,0-3.633Z" transform="translate(0 0)"/>
          <path id="Trazado_912445" data-name="Trazado 912445" d="M24.194,31.917l-3.977,3.977-.984-.984a1.817,1.817,0,0,0-2.569,2.569l2.268,2.268a1.816,1.816,0,0,0,2.569,0l5.261-5.261a1.816,1.816,0,1,0-2.569-2.569Z" transform="translate(0 0)"/>
          <path id="Trazado_912446" data-name="Trazado 912446" d="M32.407,50.123H42.791a1.816,1.816,0,0,0,0-3.633H32.407a1.816,1.816,0,0,0,0,3.633Z" transform="translate(0 0)"/>
          <path id="Trazado_912447" data-name="Trazado 912447" d="M24.194,43.847l-3.977,3.977-.984-.984a1.817,1.817,0,0,0-2.569,2.569l2.268,2.268a1.816,1.816,0,0,0,2.569,0l5.261-5.261a1.816,1.816,0,1,0-2.569-2.569Z" transform="translate(0 0)"/>
          <path id="Trazado_912448" data-name="Trazado 912448" d="M32.407,62.053H42.791a1.816,1.816,0,0,0,0-3.633H32.407a1.816,1.816,0,0,0,0,3.633Z" transform="translate(0 0)"/>
          <path id="Trazado_912449" data-name="Trazado 912449" d="M24.194,55.777l-3.977,3.977-.984-.984a1.817,1.817,0,0,0-2.569,2.569l2.268,2.268a1.816,1.816,0,0,0,2.569,0l5.261-5.261a1.816,1.816,0,0,0-2.569-2.569Z" transform="translate(0 0)"/>
          <path id="Trazado_912450" data-name="Trazado 912450" d="M32.407,70.351a1.816,1.816,0,0,0,0,3.633H46.5a1.816,1.816,0,0,0,0-3.633Z" transform="translate(0 0)"/>
          <path id="Trazado_912451" data-name="Trazado 912451" d="M24.194,67.707l-3.977,3.977-.984-.984a1.817,1.817,0,0,0-2.569,2.569l2.268,2.268a1.816,1.816,0,0,0,2.569,0l5.261-5.261a1.816,1.816,0,1,0-2.569-2.569Z" transform="translate(0 0)"/>
          <path id="Trazado_912452" data-name="Trazado 912452" d="M91.184,49.677H89.1a19.615,19.615,0,0,0-1.162-2.805L89.411,45.4a1.817,1.817,0,0,0,0-2.569l-6.1-6.1a1.816,1.816,0,0,0-2.569,0L79.269,38.2a19.591,19.591,0,0,0-2.805-1.162V34.957A1.816,1.816,0,0,0,74.8,33.148V1.816A1.816,1.816,0,0,0,72.986,0H1.816A1.816,1.816,0,0,0,0,1.816V91.184A1.816,1.816,0,0,0,1.816,93h71.17A1.816,1.816,0,0,0,74.8,91.184V78.464a1.816,1.816,0,0,0,1.661-1.809V74.572a19.6,19.6,0,0,0,2.805-1.162l1.474,1.474a1.817,1.817,0,0,0,2.569,0l6.1-6.1a1.817,1.817,0,0,0,0-2.569l-1.474-1.473A19.62,19.62,0,0,0,89.1,61.936h2.084A1.816,1.816,0,0,0,93,60.12V51.493a1.817,1.817,0,0,0-1.816-1.817ZM71.17,33.14H67.537V9.082A1.816,1.816,0,0,0,65.72,7.266H56.093V3.633H71.17ZM51.257,45.4l1.474,1.473a19.62,19.62,0,0,0-1.162,2.805H49.485a1.816,1.816,0,0,0-1.816,1.816v8.626a1.816,1.816,0,0,0,1.816,1.816h2.084a19.592,19.592,0,0,0,1.162,2.805l-1.474,1.474a1.816,1.816,0,0,0,0,2.569l6.1,6.1a1.816,1.816,0,0,0,2.569,0L61.4,73.409a19.639,19.639,0,0,0,2.5,1.058V82.1H10.9V10.9h7.811v.727a1.816,1.816,0,0,0,1.816,1.816h8.9a1.816,1.816,0,0,0,0-3.633H22.342V3.633H52.461V9.809H45.773a1.816,1.816,0,1,0,0,3.633h8.5a1.816,1.816,0,0,0,1.816-1.816V10.9H63.9V37.145A19.575,19.575,0,0,0,61.4,38.2l-1.473-1.474a1.816,1.816,0,0,0-2.569,0l-6.1,6.1a1.816,1.816,0,0,0,0,2.569ZM3.633,89.367V3.633H18.709V7.266H9.082A1.816,1.816,0,0,0,7.266,9.082V83.918a1.816,1.816,0,0,0,1.816,1.816H65.72a1.816,1.816,0,0,0,1.816-1.816V78.472H71.17V89.367ZM89.367,58.3H87.732a1.817,1.817,0,0,0-1.763,1.381,16,16,0,0,1-1.838,4.435,1.816,1.816,0,0,0,.27,2.223L85.558,67.5,82.027,71.03,80.87,69.873a1.816,1.816,0,0,0-2.223-.27,15.992,15.992,0,0,1-4.435,1.838A1.817,1.817,0,0,0,72.831,73.2v1.635H67.837V73.2a1.816,1.816,0,0,0-1.381-1.763A15.987,15.987,0,0,1,62.022,69.6a1.816,1.816,0,0,0-2.223.27L58.641,71.03,55.11,67.5l1.157-1.157a1.817,1.817,0,0,0,.27-2.223A15.994,15.994,0,0,1,54.7,59.684,1.816,1.816,0,0,0,52.936,58.3H51.3V53.309h1.635A1.816,1.816,0,0,0,54.7,51.929a15.987,15.987,0,0,1,1.838-4.435,1.816,1.816,0,0,0-.27-2.223L55.11,44.113l3.531-3.531L59.8,41.739a1.816,1.816,0,0,0,2.223.27,15.994,15.994,0,0,1,4.435-1.838,1.817,1.817,0,0,0,1.381-1.763V36.773h4.994v1.635a1.816,1.816,0,0,0,1.381,1.763,15.984,15.984,0,0,1,4.435,1.838,1.816,1.816,0,0,0,2.223-.27l1.157-1.157,3.531,3.531L84.4,45.27a1.817,1.817,0,0,0-.27,2.223,15.993,15.993,0,0,1,1.838,4.435,1.817,1.817,0,0,0,1.763,1.381h1.635Z" transform="translate(0 0)"/>
          <path id="Trazado_912453" data-name="Trazado 912453" d="M76.589,47.272a1.817,1.817,0,0,0-2.569,0l-5.812,5.812-2.166-2.166a1.816,1.816,0,0,0-2.569,0l-5.138,5.138a1.817,1.817,0,0,0,0,2.569l6.019,6.019a5.449,5.449,0,0,0,7.706,0l9.665-9.665a1.816,1.816,0,0,0,0-2.569Zm-7.1,14.8a1.816,1.816,0,0,1-2.569,0L62.189,57.34l2.569-2.569,2.166,2.166a1.816,1.816,0,0,0,2.569,0L75.3,51.125l2.569,2.569Z" transform="translate(0 0)"/>
          <circle id="Elipse_11514" data-name="Elipse 11514" cx="1.816" cy="1.816" r="1.816" transform="translate(35.783 9.809)"/>
        </g>
      </g>
    </g>
  </g>
</svg>
