<svg xmlns="http://www.w3.org/2000/svg" width="76.52" height="66.253" viewBox="0 0 76.52 66.253">
  <path id="_28" data-name="28" d="M37.623,68.882a1.046,1.046,0,1,1-1.643,1.3,16.79,16.79,0,0,1-2.441-16.44,1.046,1.046,0,0,1,1.95.76,14.69,14.69,0,0,0,2.134,14.384Zm35-27.626a18.191,18.191,0,0,0-25.515-3A1.046,1.046,0,0,0,48.4,39.9,16.075,16.075,0,1,1,68.319,65.133a1.046,1.046,0,1,0,1.3,1.643A18.19,18.19,0,0,0,72.619,41.256Zm-3.393,2.682a13.861,13.861,0,0,0-19.44-2.291,1.046,1.046,0,1,0,1.3,1.643A11.75,11.75,0,1,1,65.642,61.736a1.046,1.046,0,1,0,1.3,1.642,13.86,13.86,0,0,0,2.287-19.44Zm-3.4,2.683a9.523,9.523,0,0,0-13.366-1.576,1.046,1.046,0,0,0,1.3,1.643,7.425,7.425,0,1,1,9.2,11.655,1.046,1.046,0,0,0,1.3,1.642A9.527,9.527,0,0,0,65.829,46.62ZM60.853,68.252c1.958,4.017,2.246,6.494.879,7.573l-.022.016a1.053,1.053,0,0,1-.153.144A20.268,20.268,0,0,1,49.137,80.23a20.7,20.7,0,0,1-5.242-.676l2.717,13.394h1.873a3.834,3.834,0,0,1,3.83,3.83v2.783a1.046,1.046,0,0,1-1.046,1.046H28.833a1.046,1.046,0,0,1-1.046-1.046V96.778a3.834,3.834,0,0,1,3.829-3.829h1.871l3.354-16.532a22.451,22.451,0,1,1,1.606-32.988c1.321.243,3.038,1.24,5.184,3A55.582,55.582,0,0,1,49.1,51.7l4.23-.432a5.189,5.189,0,1,1,5.08,6.433L57,61.716a55.613,55.613,0,0,1,3.85,6.536Zm-4.924-13.82a3.083,3.083,0,1,0-.651-2.282A3.095,3.095,0,0,0,55.929,54.432Zm-5.118-.8c.81.941,1.619,1.922,2.419,2.934s1.568,2.03,2.3,3.038l.809-2.312a5.167,5.167,0,0,1-3.088-3.909Zm-8.182-5.306c-3.071-2.589-4.541-2.937-4.859-2.855-.154.288-.161,1.795,1.643,5.384a68.017,68.017,0,0,0,7.2,10.934,68.149,68.149,0,0,0,8.961,9.538c3.074,2.591,4.544,2.936,4.858,2.855.153-.289.157-1.8-1.65-5.391a51.212,51.212,0,0,0-2.65-4.587L54.8,68.012a1.046,1.046,0,0,1-1.975-.692l1.853-5.3c-.954-1.373-1.99-2.773-3.089-4.165s-2.218-2.724-3.331-3.97l-5.586.571a1.046,1.046,0,0,1-.213-2.082l4.02-.411a51.221,51.221,0,0,0-3.847-3.645ZM32.45,71.62a44.131,44.131,0,0,1-4.359,7.126,20.293,20.293,0,0,0,7.277-3.825,20.637,20.637,0,0,1-2.285-2.455q-.328-.416-.633-.846Zm-7.511,7.768a42.746,42.746,0,0,0,6.186-9.9l-.01-.02H23.5V79.513q.724-.037,1.44-.125Zm-3.533.126V69.47H13.751a42.881,42.881,0,0,0,6.214,9.918c.476.058.956.1,1.442.126ZM19.6,39.026a39.094,39.094,0,0,0-6.143,9.869h7.951V38.851c-.61.031-1.213.091-1.808.175Zm3.9-.175V48.895h7.925a38.774,38.774,0,0,0-6.12-9.872c-.6-.083-1.2-.141-1.8-.171ZM12.68,50.987a25.106,25.106,0,0,0-1.26,7.151h9.986v-7.15Zm-1.226,9.244a26.26,26.26,0,0,0,1.474,7.147h8.477V60.231Zm18.681,7.147A20.2,20.2,0,0,1,28.7,60.231H23.5v7.147Zm.563-16.39H23.5v7.151h5.267c.017-.209.037-.418.061-.628A20.434,20.434,0,0,1,30.7,50.987Zm5.414-6.9a20.163,20.163,0,0,0-7.58-4.346A39.634,39.634,0,0,1,33,47.273a20.523,20.523,0,0,1,3.109-3.186ZM4.891,48.895h6.345a37.911,37.911,0,0,1,5.128-9.139A20.457,20.457,0,0,0,4.891,48.895ZM3.817,67.378h6.942a28.286,28.286,0,0,1-1.35-7.147H2.119a20.208,20.208,0,0,0,1.7,7.147Zm-1.7-9.239H9.376a27.244,27.244,0,0,1,1.15-7.151H3.818a20.214,20.214,0,0,0-1.7,7.151Zm14.7,20.608a41.552,41.552,0,0,1-5.3-9.275H4.89a20.449,20.449,0,0,0,11.925,9.275Zm31.67,16.3H31.616a1.739,1.739,0,0,0-1.737,1.737v1.737H50.222V96.778A1.739,1.739,0,0,0,48.485,95.041ZM41.6,78.808a20.183,20.183,0,0,1-2.833-1.377L35.622,92.949h8.854Zm16.632-3.117a19.042,19.042,0,0,1-3.664-2.479,68.591,68.591,0,0,1-9.6-10.13,68.4,68.4,0,0,1-7.623-11.689,19.089,19.089,0,0,1-1.56-4.143A18.4,18.4,0,0,0,33.2,68.9l0,0a18.374,18.374,0,0,0,25.035,6.783Z" transform="translate(0 -34.355)" fill="#e2dacc"/>
</svg>
