<svg xmlns="http://www.w3.org/2000/svg" xmlns:xlink="http://www.w3.org/1999/xlink" width="190" height="115" viewBox="0 0 190 115">
  <defs>
    <clipPath id="clip-path">
      <rect id="Rectángulo_401573" data-name="Rectángulo 401573" width="28.836" height="111" fill="#3ba935"/>
    </clipPath>
    <clipPath id="clip-path-2">
      <rect id="Rectángulo_401572" data-name="Rectángulo 401572" width="72.283" height="262.133" fill="#3ba935"/>
    </clipPath>
    <clipPath id="clip-path-3">
      <rect id="Rectángulo_403337" data-name="Rectángulo 403337" width="71" height="71" transform="translate(249.051 3223.95)" fill="#3ba935" stroke="#707070" stroke-width="1"/>
    </clipPath>
  </defs>
  <g id="_32" data-name="32" transform="translate(-180 -3012.45)">
    <g id="Grupo_1101831" data-name="Grupo 1101831" transform="translate(180 3012.783)">
      <g id="Grupo_1099687" data-name="Grupo 1099687" clip-path="url(#clip-path)">
        <g id="Grupo_1099686" data-name="Grupo 1099686" transform="translate(-6.669 -55.037)" opacity="0.45" style="mix-blend-mode: multiply;isolation: isolate">
          <g id="Grupo_1099685" data-name="Grupo 1099685">
            <g id="Grupo_1099684" data-name="Grupo 1099684" clip-path="url(#clip-path-2)">
              <path id="Trazado_873516" data-name="Trazado 873516" d="M-.222,17.8,89.855-5.386,88.78.455-1.3,23.64Z" transform="matrix(0.898, -0.44, 0.44, 0.898, -7.635, 207.677)" fill="#3ba935"/>
              <path id="Trazado_873517" data-name="Trazado 873517" d="M-.222,17.8,89.855-5.386,88.78.455-1.3,23.64Z" transform="matrix(0.898, -0.44, 0.44, 0.898, -7.635, 191.348)" fill="#3ba935"/>
              <path id="Trazado_873518" data-name="Trazado 873518" d="M-.222,17.8,89.855-5.386,88.78.455-1.3,23.64Z" transform="matrix(0.898, -0.44, 0.44, 0.898, -7.635, 175.019)" fill="#3ba935"/>
              <path id="Trazado_873519" data-name="Trazado 873519" d="M-.222,17.8,89.855-5.386,88.78.455-1.3,23.64Z" transform="matrix(0.898, -0.44, 0.44, 0.898, -7.635, 158.69)" fill="#3ba935"/>
              <path id="Trazado_873520" data-name="Trazado 873520" d="M-.222,17.8,89.855-5.386,88.78.455-1.3,23.64Z" transform="matrix(0.898, -0.44, 0.44, 0.898, -7.635, 142.36)" fill="#3ba935"/>
              <path id="Trazado_873521" data-name="Trazado 873521" d="M-.222,17.8,89.855-5.386,88.78.455-1.3,23.64Z" transform="matrix(0.898, -0.44, 0.44, 0.898, -7.635, 126.031)" fill="#3ba935"/>
              <path id="Trazado_873522" data-name="Trazado 873522" d="M-.222,17.8,89.855-5.386,88.78.455-1.3,23.64Z" transform="matrix(0.898, -0.44, 0.44, 0.898, -7.635, 109.702)" fill="#3ba935"/>
              <path id="Trazado_873523" data-name="Trazado 873523" d="M-.222,17.8,89.855-5.386,88.78.455-1.3,23.64Z" transform="matrix(0.898, -0.44, 0.44, 0.898, -7.635, 93.373)" fill="#3ba935"/>
              <path id="Trazado_873524" data-name="Trazado 873524" d="M-.222,17.8,89.855-5.386,88.78.455-1.3,23.64Z" transform="matrix(0.898, -0.44, 0.44, 0.898, -7.635, 77.044)" fill="#3ba935"/>
              <path id="Trazado_873525" data-name="Trazado 873525" d="M-.222,17.8,89.855-5.386,88.78.455-1.3,23.64Z" transform="matrix(0.898, -0.44, 0.44, 0.898, -7.635, 60.715)" fill="#3ba935"/>
              <path id="Trazado_873526" data-name="Trazado 873526" d="M-.222,17.8,89.855-5.386,88.78.455-1.3,23.64Z" transform="translate(-7.635 44.385) rotate(-26.114)" fill="#3ba935"/>
            </g>
          </g>
        </g>
      </g>
      <rect id="Rectángulo_401574" data-name="Rectángulo 401574" width="161" height="115" transform="translate(29 -0.333)" fill="#ebf6ea"/>
    </g>
    <g id="Enmascarar_grupo_1098719" data-name="Enmascarar grupo 1098719" transform="translate(-0.051 -189.5)" clip-path="url(#clip-path-3)">
      <g id="protocolo" transform="translate(248.488 3223.387)">
        <rect id="Rectángulo_403410" data-name="Rectángulo 403410" width="39.162" height="46.711" rx="2.959" transform="translate(16.42 7.906)" fill="#b6dbff"/>
        <path id="Trazado_913069" data-name="Trazado 913069" d="M19.379,7.906H50.352a2.961,2.961,0,0,1,2.959,2.959V51.658a2.961,2.961,0,0,1-2.959,2.959H19.379a2.961,2.961,0,0,1-2.959-2.959V10.865a2.961,2.961,0,0,1,2.959-2.959Z" fill="#e3f1ff"/>
        <g id="Grupo_1101940" data-name="Grupo 1101940">
          <path id="Trazado_913070" data-name="Trazado 913070" d="M36,1.561a3.622,3.622,0,0,0-3.622,3.622v.5l-3.591-.628a1.792,1.792,0,0,0-2.1,1.765v3.9H45.314v-3.9a1.792,1.792,0,0,0-2.1-1.765l-3.591.628v-.5A3.622,3.622,0,0,0,36,1.561Z" fill="#c86f5c" fill-rule="evenodd"/>
          <path id="Trazado_913071" data-name="Trazado 913071" d="M32.379,5.183v.5l-3.591-.628a1.792,1.792,0,0,0-2.1,1.765v3.9h17V7.1a1.792,1.792,0,0,0-2.1-1.765l-1.965.343-.876.153-.46.08c.057-5-5.908-4.312-5.908-.731Z" fill="#f29988" fill-rule="evenodd"/>
          <path id="Trazado_913072" data-name="Trazado 913072" d="M57.31,18.64a26.213,26.213,0,0,0,7.234,2.872L67,22.139V32.675a8.484,8.484,0,0,1-1.2,4.4c-1.832,3.084-5.532,5.04-8.531,6.853l-1.69,1.021-1.69-1.021c-3-1.813-6.7-3.769-8.531-6.853a8.485,8.485,0,0,1-1.2-4.4V22.139l2.458-.627a26.215,26.215,0,0,0,7.234-2.872l1.73-1.08,1.73,1.08Z" fill="#f2671f" fill-rule="evenodd"/>
          <path id="Trazado_913073" data-name="Trazado 913073" d="M57.31,18.64a26.213,26.213,0,0,0,7.234,2.872l1.4.358V32.252a8.484,8.484,0,0,1-1.2,4.4c-1.832,3.084-5.532,5.04-8.531,6.853l-1.511.913-.812-.491c-3-1.813-6.7-3.769-8.531-6.853a8.485,8.485,0,0,1-1.2-4.4V22.14l2.458-.627a26.215,26.215,0,0,0,7.234-2.872l1.73-1.08,1.73,1.08Z" fill="#ff8748" fill-rule="evenodd"/>
          <path id="Trazado_913074" data-name="Trazado 913074" d="M56.582,61.183a10.327,10.327,0,0,1,10.284,9.388H46.3A10.327,10.327,0,0,1,56.582,61.183Z" fill="#fdc72e" fill-rule="evenodd"/>
          <path id="Trazado_913075" data-name="Trazado 913075" d="M64,70.571H46.3a10.329,10.329,0,0,1,9.321-9.344A10.625,10.625,0,0,1,64,70.571Z" fill="#fcdb35" fill-rule="evenodd"/>
        </g>
        <circle id="Elipse_11560" data-name="Elipse 11560" cx="4.918" cy="4.918" r="4.918" transform="matrix(0.994, -0.109, 0.109, 0.994, 51.149, 51.884)" fill="#fdb0a0"/>
        <path id="Trazado_913076" data-name="Trazado 913076" d="M55.586,61.049a4.919,4.919,0,0,1,0-9.634,4.919,4.919,0,0,1,0,9.634Z" fill="#ffcec0" fill-rule="evenodd"/>
        <path id="Trazado_913077" data-name="Trazado 913077" d="M36,61.183a10.327,10.327,0,0,1,10.284,9.388H25.717A10.327,10.327,0,0,1,36,61.183Z" fill="#2a92fa" fill-rule="evenodd"/>
        <path id="Trazado_913078" data-name="Trazado 913078" d="M43.42,70.571h-17.7a10.329,10.329,0,0,1,9.321-9.344,10.625,10.625,0,0,1,8.382,9.344Z" fill="#4eb1fc" fill-rule="evenodd"/>
        <circle id="Elipse_11561" data-name="Elipse 11561" cx="4.919" cy="4.919" r="4.919" transform="matrix(0.984, -0.179, 0.179, 0.984, 30.28, 52.288)" fill="#fdb0a0"/>
        <path id="Trazado_913079" data-name="Trazado 913079" d="M35.005,61.049a4.919,4.919,0,0,1,0-9.634,4.919,4.919,0,0,1,0,9.634Z" fill="#ffcec0" fill-rule="evenodd"/>
        <path id="Trazado_913080" data-name="Trazado 913080" d="M15.42,61.183A10.327,10.327,0,0,1,25.7,70.571H5.136A10.327,10.327,0,0,1,15.42,61.183Z" fill="#a0d904" fill-rule="evenodd"/>
        <path id="Trazado_913081" data-name="Trazado 913081" d="M22.839,70.571H5.136a10.329,10.329,0,0,1,9.321-9.344,10.625,10.625,0,0,1,8.382,9.344Z" fill="#baed2c" fill-rule="evenodd"/>
        <circle id="Elipse_11562" data-name="Elipse 11562" cx="4.919" cy="4.919" r="4.919" transform="matrix(0.984, -0.179, 0.179, 0.984, 9.695, 52.285)" fill="#fdb0a0"/>
        <path id="Trazado_913082" data-name="Trazado 913082" d="M14.425,61.049a4.919,4.919,0,0,1,0-9.634,4.919,4.919,0,0,1,0,9.634Z" fill="#ffcec0" fill-rule="evenodd"/>
        <path id="Trazado_913083" data-name="Trazado 913083" d="M47.425,24.677c-.33.092-.632.172-.9.241v8a5.212,5.212,0,0,0,.743,2.737c1.385,2.332,4.991,4.374,7.568,5.932.242-.146.492-.3.747-.446l.45-.365-8.605-16.1Z" fill="#f2671f" fill-rule="evenodd"/>
        <path id="Trazado_913084" data-name="Trazado 913084" d="M55.58,21.41a30.26,30.26,0,0,1-8.156,3.267v8a5.212,5.212,0,0,0,.743,2.737C49.553,37.744,53,39.58,55.58,41.138c2.577-1.558,6.028-3.394,7.413-5.726a5.212,5.212,0,0,0,.743-2.737v-8A30.261,30.261,0,0,1,55.58,21.41Z" fill="#f3f3ff" fill-rule="evenodd"/>
        <path id="Trazado_913085" data-name="Trazado 913085" d="M52.637,30.341a.986.986,0,1,0-1.707.986l1.9,3.286a.985.985,0,0,0,.726.484.932.932,0,0,0,.13.009.986.986,0,0,0,.7-.289l5.693-5.692a.986.986,0,0,0-1.395-1.395l-4.784,4.784-1.255-2.173Zm2.941-7.78a31.086,31.086,0,0,0,7.169,2.874v7.24a4.2,4.2,0,0,1-.6,2.233c-1.087,1.831-3.744,3.406-6.087,4.8l-.478.283L55.1,39.7c-2.344-1.391-5-2.966-6.087-4.8a4.2,4.2,0,0,1-.606-2.233v-7.24a31.082,31.082,0,0,0,7.17-2.874Zm.522-1.987a29.154,29.154,0,0,0,7.877,3.148.986.986,0,0,1,.743.955v8a6.168,6.168,0,0,1-.881,3.24c-1.344,2.263-4.23,3.975-6.777,5.486-.334.2-.661.392-.974.581a.983.983,0,0,1-1.02,0Q54.6,41.7,54.1,41.4c-2.547-1.511-5.433-3.223-6.778-5.486a6.175,6.175,0,0,1-.881-3.24v-8a.986.986,0,0,1,.742-.955,29.166,29.166,0,0,0,7.878-3.148.984.984,0,0,1,1.044,0ZM54.592,50.666a5.943,5.943,0,0,0-3.322,2.976H41.308a5.906,5.906,0,0,0-10.619,0H20.727a5.939,5.939,0,0,0-3.322-2.976V10.879a1.976,1.976,0,0,1,1.974-1.972h6.269v1.849a.986.986,0,0,0,.986.987H45.364a.986.986,0,0,0,.986-.987V8.906H52.62a1.975,1.975,0,0,1,1.973,1.972v6.133l-1.266.79a21.726,21.726,0,0,1-4.818,2.14H32.49a.986.986,0,1,0,0,1.972H43.2a.988.988,0,0,0-.029.224V27.75H32.49a.986.986,0,0,0,0,1.972H43.171v2.461H32.49a.986.986,0,0,0,0,1.973H43.282a9.415,9.415,0,0,0,1.229,3.426,11.706,11.706,0,0,0,1.934,2.408H32.49a.986.986,0,0,0,0,1.972H48.863c1.154.81,2.367,1.532,3.518,2.216q.509.3,1,.6l1.215.734v5.156Zm1.988,1.628a3.935,3.935,0,1,0,3.934,3.936A3.94,3.94,0,0,0,56.581,52.293Zm0,9.876a9.288,9.288,0,0,0-9.15,7.422h18.3A9.292,9.292,0,0,0,56.581,62.169ZM45.149,69.591a9.351,9.351,0,0,0-18.3,0Zm-20.58,0a9.351,9.351,0,0,0-18.3,0h18.3ZM39.935,56.229A3.935,3.935,0,1,0,36,60.164a3.941,3.941,0,0,0,3.936-3.935Zm1.972,0a5.961,5.961,0,0,0-.033-.616H50.7a5.96,5.96,0,0,0-.033.616,5.9,5.9,0,0,0,2.2,4.593,11.322,11.322,0,0,0-6.582,5.98,11.322,11.322,0,0,0-6.582-5.98A5.9,5.9,0,0,0,41.907,56.229Zm-20.582,0a5.961,5.961,0,0,0-.032-.616h8.83c-.02.2-.031.407-.031.616a5.9,5.9,0,0,0,2.2,4.593,11.317,11.317,0,0,0-6.582,5.98,11.325,11.325,0,0,0-6.58-5.98,5.9,5.9,0,0,0,2.2-4.593Zm-9.842,0a3.935,3.935,0,1,0,3.934-3.936,3.939,3.939,0,0,0-3.934,3.936ZM27.62,9.77H44.378V6.836a.815.815,0,0,0-.956-.8l-3.61.632a.986.986,0,0,1-1.156-.972v-.5a2.656,2.656,0,1,0-5.312,0v.5a.987.987,0,0,1-1.156.972l-3.611-.632a.817.817,0,0,0-.957.8Zm29.166,9.706A26.85,26.85,0,0,0,64.3,22.467l1.716.437v9.77a7.533,7.533,0,0,1-1.062,3.9c-1.5,2.532-4.521,4.327-7.183,5.909q-.515.306-1.01.6l-1.18.713L54.4,43.088c-.33-.2-.668-.4-1.01-.6-2.662-1.583-5.68-3.377-7.185-5.909a7.545,7.545,0,0,1-1.062-3.9V22.9l1.716-.437a26.827,26.827,0,0,0,7.513-2.992l1.207-.754ZM56.564,45.51v4.811h.016a5.9,5.9,0,0,1,3.709,10.5,11.326,11.326,0,0,1,7.563,9.668.988.988,0,0,1-.983,1.074H5.128a.987.987,0,0,1-.983-1.074,11.326,11.326,0,0,1,7.563-9.668,5.9,5.9,0,0,1,3.709-10.5h.016V10.879a3.95,3.95,0,0,1,3.946-3.945h6.269v-.1a2.787,2.787,0,0,1,3.268-2.747l2.5.437a4.629,4.629,0,0,1,9.162,0l2.5-.437A2.788,2.788,0,0,1,46.35,6.836v.1h6.269a3.949,3.949,0,0,1,3.945,3.945v6.133l1.266.79a24.917,24.917,0,0,0,6.954,2.753l2.46.627a.985.985,0,0,1,.741.955V32.674a9.478,9.478,0,0,1-1.338,4.908c-1.761,2.964-5.007,4.894-7.872,6.6-.338.2-.672.4-1,.6l-1.213.734ZM27.9,40.266,24.35,43.818,23.5,42.356a.986.986,0,1,0-1.707.986l1.486,2.576a.989.989,0,0,0,.726.485,1.018,1.018,0,0,0,.13.008.99.99,0,0,0,.7-.289L29.3,41.66A.986.986,0,0,0,27.9,40.266Zm0-12.241L24.35,31.578,23.5,30.115A.986.986,0,0,0,21.8,31.1l1.486,2.575a.989.989,0,0,0,.726.485,1.017,1.017,0,0,0,.13.008.99.99,0,0,0,.7-.289L29.3,29.419A.986.986,0,0,0,27.9,28.025Zm0-12.241L24.35,19.337,23.5,17.874a.986.986,0,1,0-1.707.987l1.486,2.575a.986.986,0,0,0,.726.485.925.925,0,0,0,.13.009.994.994,0,0,0,.7-.289L29.3,17.179A.986.986,0,0,0,27.9,15.784ZM49.235,44.425H32.489a.986.986,0,1,0,0,1.972H49.235a.986.986,0,1,0,0-1.972ZM31.5,16.5a.986.986,0,0,0,.986.986H49.347a.986.986,0,0,0,0-1.973H32.489a.986.986,0,0,0-.986.987Z" fill-rule="evenodd"/>
      </g>
    </g>
  </g>
</svg>
