<svg xmlns="http://www.w3.org/2000/svg" xmlns:xlink="http://www.w3.org/1999/xlink" width="190" height="126.492" viewBox="0 0 190 126.492">
  <defs>
    <clipPath id="clip-path">
      <rect id="Rectángulo_401573" data-name="Rectángulo 401573" width="28.836" height="122.492" fill="#3ba935"/>
    </clipPath>
    <clipPath id="clip-path-2">
      <rect id="Rectángulo_401572" data-name="Rectángulo 401572" width="72.283" height="289.273" fill="#3ba935"/>
    </clipPath>
  </defs>
  <g id="_39" data-name="39" transform="translate(-284.975 -4803.55)">
    <g id="Grupo_1107370" data-name="Grupo 1107370" transform="translate(284.975 4803.883)">
      <g id="Grupo_1099687" data-name="Grupo 1099687" clip-path="url(#clip-path)">
        <g id="Grupo_1099686" data-name="Grupo 1099686" transform="translate(-6.669 -60.736)" opacity="0.45" style="mix-blend-mode: multiply;isolation: isolate">
          <g id="Grupo_1099685" data-name="Grupo 1099685">
            <g id="Grupo_1099684" data-name="Grupo 1099684" clip-path="url(#clip-path-2)">
              <path id="Trazado_873516" data-name="Trazado 873516" d="M.147,25.077,92.98-3.73,91.644,2.642-1.188,31.449Z" transform="matrix(0.898, -0.44, 0.44, 0.898, -11.17, 224.472)" fill="#3ba935"/>
              <path id="Trazado_873517" data-name="Trazado 873517" d="M.147,25.077,92.98-3.73,91.644,2.642-1.188,31.449Z" transform="matrix(0.898, -0.44, 0.44, 0.898, -11.17, 206.452)" fill="#3ba935"/>
              <path id="Trazado_873518" data-name="Trazado 873518" d="M.147,25.077,92.98-3.73,91.644,2.642-1.188,31.449Z" transform="matrix(0.898, -0.44, 0.44, 0.898, -11.17, 188.432)" fill="#3ba935"/>
              <path id="Trazado_873519" data-name="Trazado 873519" d="M.147,25.077,92.98-3.73,91.644,2.642-1.188,31.449Z" transform="matrix(0.898, -0.44, 0.44, 0.898, -11.17, 170.412)" fill="#3ba935"/>
              <path id="Trazado_873520" data-name="Trazado 873520" d="M.147,25.077,92.98-3.73,91.644,2.642-1.188,31.449Z" transform="matrix(0.898, -0.44, 0.44, 0.898, -11.17, 152.392)" fill="#3ba935"/>
              <path id="Trazado_873521" data-name="Trazado 873521" d="M.147,25.077,92.98-3.73,91.644,2.642-1.188,31.449Z" transform="matrix(0.898, -0.44, 0.44, 0.898, -11.17, 134.372)" fill="#3ba935"/>
              <path id="Trazado_873522" data-name="Trazado 873522" d="M.147,25.077,92.98-3.73,91.644,2.642-1.188,31.449Z" transform="matrix(0.898, -0.44, 0.44, 0.898, -11.17, 116.353)" fill="#3ba935"/>
              <path id="Trazado_873523" data-name="Trazado 873523" d="M.147,25.077,92.98-3.73,91.644,2.642-1.188,31.449Z" transform="matrix(0.898, -0.44, 0.44, 0.898, -11.17, 98.333)" fill="#3ba935"/>
              <path id="Trazado_873524" data-name="Trazado 873524" d="M.147,25.077,92.98-3.73,91.644,2.642-1.188,31.449Z" transform="matrix(0.898, -0.44, 0.44, 0.898, -11.17, 80.314)" fill="#3ba935"/>
              <path id="Trazado_873525" data-name="Trazado 873525" d="M.147,25.077,92.98-3.73,91.644,2.642-1.188,31.449Z" transform="matrix(0.898, -0.44, 0.44, 0.898, -11.17, 62.294)" fill="#3ba935"/>
              <path id="Trazado_873526" data-name="Trazado 873526" d="M.147,25.077,92.98-3.73,91.644,2.642-1.188,31.449Z" transform="translate(-11.17 44.274) rotate(-26.114)" fill="#3ba935"/>
            </g>
          </g>
        </g>
      </g>
      <rect id="Rectángulo_401574" data-name="Rectángulo 401574" width="161" height="126.492" transform="translate(29 -0.333)" fill="#ebf6ea"/>
    </g>
    <g id="plan" transform="translate(344.718 4778.717)">
      <g id="Grupo_1107657" data-name="Grupo 1107657" transform="translate(1.276 54.981)">
        <path id="Trazado_915560" data-name="Trazado 915560" d="M7.511,156.773H89.16a3.469,3.469,0,0,1,2.8,2.8v44.357a3.475,3.475,0,0,1-2.8,2.8H15.627a8.118,8.118,0,0,1-8.116-8.121V156.773Z" transform="translate(-7.511 -140.536)" fill="#ecf4ff" fill-rule="evenodd"/>
        <path id="Trazado_915561" data-name="Trazado 915561" d="M15.627,61.218a8.114,8.114,0,0,0-8.116,8.116V119.3a8.114,8.114,0,0,1,8.116-8.116,7.583,7.583,0,0,1,4.027,1.065.564.564,0,0,0,.867-.53V63.891a1.974,1.974,0,0,0-.987-1.676A8.031,8.031,0,0,0,15.627,61.218Z" transform="translate(-7.511 -61.218)" fill="#cbe2ff" fill-rule="evenodd"/>
        <path id="Trazado_915562" data-name="Trazado 915562" d="M125.25,195.041h12.129a1.244,1.244,0,0,1,1.238,1.238V208.4a1.241,1.241,0,0,1-1.238,1.238H125.25a1.237,1.237,0,0,1-1.233-1.238V196.279a1.24,1.24,0,0,1,1.233-1.238Z" transform="translate(-104.22 -172.302)" fill="#cbe2ff" fill-rule="evenodd"/>
        <path id="Trazado_915563" data-name="Trazado 915563" d="M411.262,107.564l-5.689-1.729-5.2,1.729v40.6l5.477,1.426,5.414-1.426Z" transform="translate(-333.615 -98.254)" fill="#ff6978" fill-rule="evenodd"/>
        <path id="Trazado_915564" data-name="Trazado 915564" d="M406.5,364.284l2.037-4.007,2.722-5.361H400.371l2.721,5.361,2.038,4.007A.747.747,0,0,0,406.5,364.284Z" transform="translate(-333.615 -305.009)" fill="#ffcbbe" fill-rule="evenodd"/>
        <path id="Trazado_915565" data-name="Trazado 915565" d="M411.262,70.529V64.546a3.338,3.338,0,0,0-3.328-3.328H403.7a3.339,3.339,0,0,0-3.333,3.328v5.982Z" transform="translate(-333.615 -61.218)" fill="#ff8793" fill-rule="evenodd"/>
        <path id="Trazado_915566" data-name="Trazado 915566" d="M117.8,378.861h8.3l1.363-4.508-1.363-3.507h-8.3a2.583,2.583,0,0,0-2.086,2.091v3.839A2.583,2.583,0,0,0,117.8,378.861Z" transform="translate(-97.326 -318.233)" fill="#f2ce7e" fill-rule="evenodd"/>
        <path id="Trazado_915567" data-name="Trazado 915567" d="M176.856,337.166H187.25l1.421-5.125-1.421-7.885v-1.45a2.583,2.583,0,0,0-2.09-2.091h-6.214a2.582,2.582,0,0,0-2.09,2.091v14.46Z" transform="translate(-148.081 -276.539)" fill="#b3e59f" fill-rule="evenodd"/>
        <path id="Trazado_915568" data-name="Trazado 915568" d="M238.028,354.461h10.39l1.05-3.453-1.05-4.561v-2.909a2.583,2.583,0,0,0-2.09-2.086h-8.3Z" transform="translate(-198.858 -293.833)" fill="#f2ce7e" fill-rule="evenodd"/>
        <path id="Trazado_915569" data-name="Trazado 915569" d="M299.172,378.861h8.3a2.583,2.583,0,0,0,2.086-2.085v-3.839a2.583,2.583,0,0,0-2.086-2.091h-8.3Z" transform="translate(-249.612 -318.233)" fill="#b3e59f" fill-rule="evenodd"/>
        <path id="Trazado_915570" data-name="Trazado 915570" d="M88.449,202.614H14.917a8.08,8.08,0,0,1-3.295-.7,8.113,8.113,0,0,0,7.418,4.821H92.572a3.475,3.475,0,0,0,2.8-2.8V159.576a3.469,3.469,0,0,0-2.8-2.8h-1.32V199.81a3.475,3.475,0,0,1-2.8,2.8Z" transform="translate(-10.923 -140.536)" fill="#cbe2ff" fill-rule="evenodd"/>
        <path id="Trazado_915571" data-name="Trazado 915571" d="M46,77.455V111.21a7.346,7.346,0,0,1,3.256,1.036.564.564,0,0,0,.867-.53V63.891a1.974,1.974,0,0,0-.987-1.676,8.032,8.032,0,0,0-3.906-1,8.269,8.269,0,0,0-2.057.26,8.261,8.261,0,0,1,1.84.737A1.975,1.975,0,0,1,46,63.891V77.455Z" transform="translate(-37.112 -61.218)" fill="#bed8fb" fill-rule="evenodd"/>
        <path id="Trazado_915572" data-name="Trazado 915572" d="M440.2,116.011v40.6h4.123v-40.6Z" transform="translate(-366.675 -106.7)" fill="#eb616f" fill-rule="evenodd"/>
        <path id="Trazado_915573" data-name="Trazado 915573" d="M423.914,64.546v5.982h4.123V64.546a3.338,3.338,0,0,0-3.328-3.328h-4.128A3.339,3.339,0,0,1,423.914,64.546Z" transform="translate(-350.391 -61.218)" fill="#f77b87" fill-rule="evenodd"/>
      </g>
      <path id="Trazado_915574" data-name="Trazado 915574" d="M77.651,63.02V58.309a2.072,2.072,0,0,0-2.057-2.057H71.365a2.064,2.064,0,0,0-2.057,2.057V63.02h8.343Zm-53.273,22.9a1.274,1.274,0,0,1,1.8-1.8l1.161,1.161,3.222-3.227a1.276,1.276,0,0,1,1.8,1.806l-4.123,4.123a1.276,1.276,0,0,1-1.8,0ZM72.2,71.218a1.274,1.274,0,1,1,2.548,0V97.965a1.274,1.274,0,1,1-2.548,0ZM52.112,114.337h7.842V108.87H52.112Zm9.113,2.548H19.662a1.279,1.279,0,0,1-1.276-1.277v-8.015a1.274,1.274,0,0,1,1.276-1.272H28.78V99.058a1.27,1.27,0,0,1,1.272-1.271H40.446a1.27,1.27,0,0,1,1.272,1.271v2.264h9.118a1.279,1.279,0,0,1,1.276,1.276v3.723h9.113a1.274,1.274,0,0,1,1.276,1.272v8.015a1.278,1.278,0,0,1-1.276,1.277Zm-19.508-2.548H49.56V103.875H41.718Zm-10.39,0H39.17v-14H31.328Zm-10.395,0H28.78V108.87H20.934Zm-5.375-44.4h51.2V58.309a4.621,4.621,0,0,1,4.61-4.6h4.229a4.621,4.621,0,0,1,4.6,4.6V69.941h5.53A1.274,1.274,0,0,1,87,71.218v49.963a1.27,1.27,0,0,1-1.272,1.272H50.446a1.274,1.274,0,0,1,0-2.548H84.452V72.489H80.2V81.7a1.274,1.274,0,1,1-2.548,0V65.568H69.308v38.047h8.343V87.479a1.274,1.274,0,1,1,2.548,0v17.407a1.352,1.352,0,0,1-.217.723l-5.366,10.568a1.3,1.3,0,0,1-.568.568,1.269,1.269,0,0,1-1.705-.563l-5.385-10.6a1.356,1.356,0,0,1-.2-.7v-32.4h-51.2v9.643a1.274,1.274,0,1,1-2.548,0V57.283a6.759,6.759,0,0,0-3.617-1.031A6.841,6.841,0,0,0,2.548,63.1V106.63c.067-.072.135-.145.2-.212a9.367,9.367,0,0,1,6.642-2.75,9.511,9.511,0,0,1,2.986.486c.212.072.424.154.631.241V87.908a1.274,1.274,0,1,1,2.548,0v18.674a1.274,1.274,0,0,1-2.042,1.012,6.673,6.673,0,0,0-1.946-1.026A6.847,6.847,0,1,0,9.393,119.9H44.675a1.274,1.274,0,0,1,0,2.548H9.393A9.39,9.39,0,0,1,0,113.06V63.1a9.393,9.393,0,0,1,14.99-7.543,1.284,1.284,0,0,1,.568,1.065V69.941Zm61.293,36.221H70.1l3.377,6.642Zm-17.032-28.5a1.274,1.274,0,0,1,0,2.548H42.57a1.274,1.274,0,0,1,0-2.548ZM52.647,89.829a1.274,1.274,0,1,1,0,2.548H42.571a1.274,1.274,0,0,1,0-2.548Zm7.172-6.084a1.274,1.274,0,0,1,0,2.548H42.57a1.274,1.274,0,0,1,0-2.548Zm-38.746-7.3h14.6a1.274,1.274,0,0,1,1.272,1.276v14.6A1.274,1.274,0,0,1,35.673,93.6h-14.6A1.276,1.276,0,0,1,19.8,92.32V77.72A1.276,1.276,0,0,1,21.073,76.444ZM34.4,79H22.345V91.048H34.4Z" transform="translate(0 0)"/>
    </g>
  </g>
</svg>
