<svg xmlns="http://www.w3.org/2000/svg" xmlns:xlink="http://www.w3.org/1999/xlink" width="190" height="115" viewBox="0 0 190 115">
  <defs>
    <clipPath id="clip-path">
      <rect id="Rectángulo_401573" data-name="Rectángulo 401573" width="28.836" height="111" fill="#3ba935"/>
    </clipPath>
    <clipPath id="clip-path-2">
      <rect id="Rectángulo_401572" data-name="Rectángulo 401572" width="72.283" height="262.133" fill="#3ba935"/>
    </clipPath>
  </defs>
  <g id="_43" data-name="43" transform="translate(-180.051 -2288.95)">
    <g id="Grupo_1101824" data-name="Grupo 1101824" transform="translate(180.051 2288.95)">
      <g id="Grupo_1099687" data-name="Grupo 1099687" transform="translate(0 0.333)" clip-path="url(#clip-path)">
        <g id="Grupo_1099686" data-name="Grupo 1099686" transform="translate(-6.669 -55.037)" opacity="0.45" style="mix-blend-mode: multiply;isolation: isolate">
          <g id="Grupo_1099685" data-name="Grupo 1099685">
            <g id="Grupo_1099684" data-name="Grupo 1099684" clip-path="url(#clip-path-2)">
              <path id="Trazado_873516" data-name="Trazado 873516" d="M1.075,23.185,91.151,0,90.077,5.841,0,29.026Z" transform="matrix(0.898, -0.44, 0.44, 0.898, -11.17, 203.412)" fill="#3ba935"/>
              <path id="Trazado_873517" data-name="Trazado 873517" d="M1.075,23.185,91.151,0,90.077,5.841,0,29.026Z" transform="matrix(0.898, -0.44, 0.44, 0.898, -11.17, 187.082)" fill="#3ba935"/>
              <path id="Trazado_873518" data-name="Trazado 873518" d="M1.075,23.185,91.151,0,90.077,5.841,0,29.026Z" transform="matrix(0.898, -0.44, 0.44, 0.898, -11.17, 170.753)" fill="#3ba935"/>
              <path id="Trazado_873519" data-name="Trazado 873519" d="M1.075,23.185,91.151,0,90.077,5.841,0,29.026Z" transform="matrix(0.898, -0.44, 0.44, 0.898, -11.17, 154.424)" fill="#3ba935"/>
              <path id="Trazado_873520" data-name="Trazado 873520" d="M1.075,23.185,91.151,0,90.077,5.841,0,29.026Z" transform="matrix(0.898, -0.44, 0.44, 0.898, -11.17, 138.095)" fill="#3ba935"/>
              <path id="Trazado_873521" data-name="Trazado 873521" d="M1.075,23.185,91.151,0,90.077,5.841,0,29.026Z" transform="matrix(0.898, -0.44, 0.44, 0.898, -11.17, 121.766)" fill="#3ba935"/>
              <path id="Trazado_873522" data-name="Trazado 873522" d="M1.075,23.185,91.151,0,90.077,5.841,0,29.026Z" transform="matrix(0.898, -0.44, 0.44, 0.898, -11.17, 105.437)" fill="#3ba935"/>
              <path id="Trazado_873523" data-name="Trazado 873523" d="M1.075,23.185,91.151,0,90.077,5.841,0,29.026Z" transform="matrix(0.898, -0.44, 0.44, 0.898, -11.17, 89.108)" fill="#3ba935"/>
              <path id="Trazado_873524" data-name="Trazado 873524" d="M1.075,23.185,91.151,0,90.077,5.841,0,29.026Z" transform="matrix(0.898, -0.44, 0.44, 0.898, -11.17, 72.779)" fill="#3ba935"/>
              <path id="Trazado_873525" data-name="Trazado 873525" d="M1.075,23.185,91.151,0,90.077,5.841,0,29.026Z" transform="matrix(0.898, -0.44, 0.44, 0.898, -11.17, 56.449)" fill="#3ba935"/>
              <path id="Trazado_873526" data-name="Trazado 873526" d="M1.075,23.185,91.151,0,90.077,5.841,0,29.026Z" transform="translate(-11.17 40.12) rotate(-26.114)" fill="#3ba935"/>
            </g>
          </g>
        </g>
      </g>
      <rect id="Rectángulo_401574" data-name="Rectángulo 401574" width="161" height="115" transform="translate(29)" fill="#ebf6ea"/>
    </g>
    <g id="Filled_outline" data-name="Filled outline" transform="translate(231.217 2295.841)">
      <path id="Trazado_915602" data-name="Trazado 915602" d="M92.615,72H138.76a4.614,4.614,0,0,1,4.615,4.614v35.762a3.461,3.461,0,0,1-3.461,3.461H91.461A3.461,3.461,0,0,1,88,112.377V76.614A4.614,4.614,0,0,1,92.615,72Z" transform="translate(-61.617 -47.925)" fill="#4db7e5"/>
      <path id="Trazado_915603" data-name="Trazado 915603" d="M433.154,72H432v43.838h2.307V72.145A4.624,4.624,0,0,0,433.154,72Z" transform="translate(-356.011 -47.925)" fill="#48add9"/>
      <path id="Trazado_915604" data-name="Trazado 915604" d="M167.223,24H132.615A4.615,4.615,0,0,0,128,28.615V77.067h43.838V28.615A4.615,4.615,0,0,0,167.223,24Z" transform="translate(-95.849 -6.846)" fill="#348fd9"/>
      <path id="Trazado_915605" data-name="Trazado 915605" d="M182.107,100,140,142.107h42.107Z" transform="translate(-106.119 -71.887)" fill="#3086cd"/>
      <path id="Trazado_915606" data-name="Trazado 915606" d="M205.994,135q0,.582-.043,1.154a14.978,14.978,0,0,1-12.866,13.7c-.309.045-.62.078-.934.1q-.571.043-1.154.043t-1.154-.043c-.314-.025-.626-.058-.934-.1a14.808,14.808,0,0,1-3.493-.927,15,15,0,0,1-9.373-12.771Q176,135.58,176,135t.043-1.154a14.979,14.979,0,0,1,12.7-13.675q.543-.082,1.1-.125Q190.415,120,191,120t1.154.043c.314.025.626.058.934.1a14.8,14.8,0,0,1,3.49.926,15.048,15.048,0,0,1,7.729,7,14.877,14.877,0,0,1,1.647,5.768Q205.994,134.415,205.994,135Z" transform="translate(-136.927 -89.003)" fill="#4db7e5"/>
      <path id="Trazado_915607" data-name="Trazado 915607" d="M205.951,136.151q.043-.571.043-1.154t-.043-1.154H200.2a29.341,29.341,0,0,0-.79-5.768h4.89a14.908,14.908,0,0,0-1.485-2.307h-4.072a23.725,23.725,0,0,0-2.172-4.7,14.8,14.8,0,0,0-3.49-.926l.8,1.038a20.207,20.207,0,0,1,2.407,4.584h-4.146v-5.725Q191.58,120,191,120t-1.154.043v5.725H185.7a20.133,20.133,0,0,1,2.42-4.6c.014-.019.026-.039.039-.058l.59-.94a14.852,14.852,0,0,0-3.327.9,23.649,23.649,0,0,0-2.172,4.7h-4.072a14.908,14.908,0,0,0-1.485,2.307h4.89a29.314,29.314,0,0,0-.79,5.768h-5.746Q176,134.415,176,135t.043,1.154h5.748a28.91,28.91,0,0,0,1.1,6.922h-4.537a15.056,15.056,0,0,0,1.82,2.307h3.5a22.443,22.443,0,0,0,1.742,3.542,14.806,14.806,0,0,0,3.493.927l-.8-1.04a19.1,19.1,0,0,1-1.934-3.429h3.673v4.571q.571.043,1.154.043t1.154-.043V145.38h3.673a19.028,19.028,0,0,1-1.934,3.429l-.8,1.04a14.807,14.807,0,0,0,3.493-.927,22.317,22.317,0,0,0,1.742-3.542h3.5a15.056,15.056,0,0,0,1.82-2.307H199.1a28.955,28.955,0,0,0,1.1-6.922Zm-16.107,6.922h-4.538a26.375,26.375,0,0,1-1.206-6.922h5.744Zm0-9.229H184.1a26.808,26.808,0,0,1,.861-5.768h4.884Zm6.845,9.229h-4.538v-6.922h5.744a26.427,26.427,0,0,1-1.206,6.922Zm-4.538-9.229v-5.768h4.884a26.847,26.847,0,0,1,.861,5.768Z" transform="translate(-136.927 -89.003)" fill="#60d1e0"/>
      <path id="Trazado_915608" data-name="Trazado 915608" d="M109.592,361.154a3.938,3.938,0,0,1-2.785,1.154H97.38a3.939,3.939,0,0,1-2.785-1.154A3.939,3.939,0,0,0,91.81,360H72v3.461a3.461,3.461,0,0,0,3.461,3.461h53.067a3.461,3.461,0,0,0,3.461-3.461V360H112.377a3.939,3.939,0,0,0-2.785,1.154Z" transform="translate(-47.925 -294.394)" fill="#e0e0de"/>
      <path id="Trazado_915609" data-name="Trazado 915609" d="M435.461,360v3.461A3.461,3.461,0,0,1,432,366.922h4.615a3.461,3.461,0,0,0,3.461-3.461V360Z" transform="translate(-356.011 -294.394)" fill="#d6d6d4"/>
      <path id="Trazado_915610" data-name="Trazado 915610" d="M56.3,354.6v14.42a2.564,2.564,0,0,1-.355,1.308,2.591,2.591,0,0,1-2.241,1.288H26.6a2.591,2.591,0,0,1-2.241-1.288A2.564,2.564,0,0,1,24,369.016V354.6a2.564,2.564,0,0,1,.355-1.308A2.591,2.591,0,0,1,26.6,352h27.11a2.591,2.591,0,0,1,2.241,1.288A2.564,2.564,0,0,1,56.3,354.6Z" transform="translate(-6.846 -287.548)" fill="#ffb531"/>
      <path id="Trazado_915611" data-name="Trazado 915611" d="M58.052,353.288c-3.572,1.989-9.317,3.279-15.8,3.279s-12.224-1.291-15.8-3.279A2.591,2.591,0,0,1,28.7,352h27.11A2.591,2.591,0,0,1,58.052,353.288Z" transform="translate(-8.952 -287.548)" fill="#ffcb73"/>
      <path id="Trazado_915612" data-name="Trazado 915612" d="M58.052,459.609a2.591,2.591,0,0,1-2.241,1.288H28.7a2.591,2.591,0,0,1-2.241-1.288c3.572-1.989,9.317-3.279,15.8-3.279S54.48,457.621,58.052,459.609Z" transform="translate(-8.952 -376.833)" fill="#ffa912"/>
      <path id="Trazado_915613" data-name="Trazado 915613" d="M60.69,216A12.69,12.69,0,0,0,48,228.69v6.922h4.615V228.69a8.075,8.075,0,0,1,16.151,0v6.922H73.38V228.69A12.69,12.69,0,0,0,60.69,216Z" transform="translate(-27.385 -171.159)" fill="#e0e0de"/>
      <path id="Trazado_915614" data-name="Trazado 915614" d="M118.919,395.372a3.461,3.461,0,1,0-4.615,3.248v2.52h2.307v-2.52A3.455,3.455,0,0,0,118.919,395.372Z" transform="translate(-82.154 -321.691)" fill="#95573a"/>
      <path id="Trazado_915615" data-name="Trazado 915615" d="M138.835,64.452h-1.154V28.69a5.775,5.775,0,0,0-5.768-5.768V21.768A5.775,5.775,0,0,0,126.145,16H91.536a5.775,5.775,0,0,0-5.768,5.768v1.154A5.775,5.775,0,0,0,80,28.69V42.533h2.307V28.69a3.465,3.465,0,0,1,3.461-3.461V41.38h2.307V21.768a3.465,3.465,0,0,1,3.461-3.461h34.609a3.465,3.465,0,0,1,3.461,3.461V60.991h2.307V25.229a3.465,3.465,0,0,1,3.461,3.461V64.452H119.223a5.053,5.053,0,0,0-3.6,1.491,2.774,2.774,0,0,1-1.976.816h-5.964v2.307h5.964a5.067,5.067,0,0,0,3.608-1.491,2.761,2.761,0,0,1,1.964-.816h18.458v2.307a2.31,2.31,0,0,1-2.307,2.307H107.687v2.307h27.687a4.62,4.62,0,0,0,4.614-4.615V65.606a1.154,1.154,0,0,0-1.154-1.154Z" transform="translate(-54.771)"/>
      <path id="Trazado_915616" data-name="Trazado 915616" d="M120,272h2.307v8.075H120Z" transform="translate(-89.003 -219.084)"/>
      <path id="Trazado_915617" data-name="Trazado 915617" d="M159.995,48H162.3v2.307h-2.307Z" transform="translate(-123.23 -27.385)"/>
      <path id="Trazado_915618" data-name="Trazado 915618" d="M191.995,48H194.3v2.307h-2.307Z" transform="translate(-150.616 -27.385)"/>
      <path id="Trazado_915619" data-name="Trazado 915619" d="M223.995,48H226.3v2.307h-2.307Z" transform="translate(-178.001 -27.385)"/>
      <path id="Trazado_915620" data-name="Trazado 915620" d="M160,80h34.609v2.307H160Z" transform="translate(-123.235 -54.771)"/>
      <path id="Trazado_915621" data-name="Trazado 915621" d="M183.188,141.537c-.244-.063-.49-.134-.731-.212l-.705,2.2c.284.091.574.175.854.247a16.149,16.149,0,1,0-9.489-24.316A15.947,15.947,0,0,0,171,124.426l2.245.531a13.634,13.634,0,0,1,1.488-3.726H178.3a29.471,29.471,0,0,0-.812,6.922c0,.8.032,1.606.1,2.4l2.3-.184c-.028-.352-.049-.707-.064-1.062h5.744v6.922H182.1v2.307h3.461v3.409A13.813,13.813,0,0,1,183.188,141.537Zm12.676-3a13.9,13.9,0,0,1-2.626,1.824c.29-.59.56-1.2.8-1.824Zm2.093-2.307h-3.135a29.013,29.013,0,0,0,1.1-6.922h4.591A13.6,13.6,0,0,1,197.956,136.228ZM183.6,114.666a13.781,13.781,0,0,1,1.96-.3v4.563h-4.143A20.4,20.4,0,0,1,183.6,114.666Zm4.267-.3a13.806,13.806,0,0,1,1.96.3,20.4,20.4,0,0,1,2.183,4.258h-4.143Zm4.883,6.87a26.832,26.832,0,0,1,.861,5.768h-5.744v-5.768ZM200.513,127h-4.587a29.271,29.271,0,0,0-.79-5.768H198.7A13.712,13.712,0,0,1,200.512,127Zm-3.482-8.075h-2.565a24.788,24.788,0,0,0-1.239-2.994,13.715,13.715,0,0,1,3.8,2.994Zm-16.822-2.994a24.79,24.79,0,0,0-1.238,2.994h-2.565A13.714,13.714,0,0,1,180.209,115.93ZM179.821,127a26.822,26.822,0,0,1,.861-5.768h4.883V127Zm8.051,2.307h5.744a26.424,26.424,0,0,1-1.207,6.922h-4.537Zm3.67,9.229a19.238,19.238,0,0,1-1.708,3.1,13.764,13.764,0,0,1-1.963.306v-3.409Z" transform="translate(-132.648 -82.159)"/>
      <path id="Trazado_915622" data-name="Trazado 915622" d="M47.148,227.635v-5.791a13.844,13.844,0,1,0-27.687,0v5.791A3.885,3.885,0,0,0,16,231.491v14.161a3.884,3.884,0,0,0,3.879,3.879H46.73a3.884,3.884,0,0,0,3.879-3.879V231.491a3.885,3.885,0,0,0-3.461-3.856ZM33.3,210.307a11.549,11.549,0,0,1,11.536,11.536v5.768H42.533v-5.768a9.229,9.229,0,0,0-18.458,0v5.768H21.768v-5.768A11.549,11.549,0,0,1,33.3,210.307Zm6.922,17.3H26.383v-5.768a6.922,6.922,0,0,1,13.844,0Zm8.075,18.04a1.574,1.574,0,0,1-1.572,1.572H19.879a1.574,1.574,0,0,1-1.572-1.572V231.491a1.574,1.574,0,0,1,1.572-1.572H46.73a1.574,1.574,0,0,1,1.572,1.572Z" transform="translate(0 -164.313)"/>
      <path id="Trazado_915623" data-name="Trazado 915623" d="M115.467,392a3.461,3.461,0,0,0-1.154,6.723v2.506h2.307v-2.506A3.461,3.461,0,0,0,115.467,392Zm0,4.615a1.154,1.154,0,1,1,1.154-1.154A1.154,1.154,0,0,1,115.467,396.615Z" transform="translate(-82.163 -321.78)"/>
    </g>
  </g>
</svg>
