<svg xmlns="http://www.w3.org/2000/svg" xmlns:xlink="http://www.w3.org/1999/xlink" width="190" height="117" viewBox="0 0 190 117">
  <defs>
    <clipPath id="clip-path">
      <rect id="Rectángulo_401573" data-name="Rectángulo 401573" width="28.836" height="113.256" fill="#692cb7"/>
    </clipPath>
    <clipPath id="clip-path-2">
      <rect id="Rectángulo_401572" data-name="Rectángulo 401572" width="72.283" height="267.463" fill="#692cb7"/>
    </clipPath>
  </defs>
  <g id="_44" data-name="44" transform="translate(-180.051 -397)">
    <g id="_40" data-name="40" transform="translate(370.051 513.924) rotate(180)">
      <g id="Grupo_1099687" data-name="Grupo 1099687" clip-path="url(#clip-path)">
        <g id="Grupo_1099686" data-name="Grupo 1099686" transform="translate(-6.669 -56.156)" opacity="0.45" style="mix-blend-mode: multiply;isolation: isolate">
          <g id="Grupo_1099685" data-name="Grupo 1099685">
            <g id="Grupo_1099684" data-name="Grupo 1099684" clip-path="url(#clip-path-2)">
              <path id="Trazado_873516" data-name="Trazado 873516" d="M7.389,36.14,98.006,11.851,96.881,17.8,6.263,42.085Z" transform="matrix(0.898, -0.44, 0.44, 0.898, -22.542, 199.107)" fill="#692cb7"/>
              <path id="Trazado_873517" data-name="Trazado 873517" d="M7.389,36.14,98.006,11.851,96.881,17.8,6.263,42.085Z" transform="matrix(0.898, -0.44, 0.44, 0.898, -22.542, 182.446)" fill="#692cb7"/>
              <path id="Trazado_873518" data-name="Trazado 873518" d="M7.389,36.14,98.006,11.851,96.881,17.8,6.263,42.085Z" transform="matrix(0.898, -0.44, 0.44, 0.898, -22.542, 165.785)" fill="#692cb7"/>
              <path id="Trazado_873519" data-name="Trazado 873519" d="M7.389,36.14,98.006,11.851,96.881,17.8,6.263,42.085Z" transform="matrix(0.898, -0.44, 0.44, 0.898, -22.542, 149.124)" fill="#692cb7"/>
              <path id="Trazado_873520" data-name="Trazado 873520" d="M7.389,36.14,98.006,11.851,96.881,17.8,6.263,42.085Z" transform="matrix(0.898, -0.44, 0.44, 0.898, -22.542, 132.463)" fill="#692cb7"/>
              <path id="Trazado_873521" data-name="Trazado 873521" d="M7.389,36.14,98.006,11.851,96.881,17.8,6.263,42.085Z" transform="matrix(0.898, -0.44, 0.44, 0.898, -22.542, 115.801)" fill="#692cb7"/>
              <path id="Trazado_873522" data-name="Trazado 873522" d="M7.389,36.14,98.006,11.851,96.881,17.8,6.263,42.085Z" transform="matrix(0.898, -0.44, 0.44, 0.898, -22.542, 99.14)" fill="#692cb7"/>
              <path id="Trazado_873523" data-name="Trazado 873523" d="M7.389,36.14,98.006,11.851,96.881,17.8,6.263,42.085Z" transform="matrix(0.898, -0.44, 0.44, 0.898, -22.542, 82.479)" fill="#692cb7"/>
              <path id="Trazado_873524" data-name="Trazado 873524" d="M7.389,36.14,98.006,11.851,96.881,17.8,6.263,42.085Z" transform="matrix(0.898, -0.44, 0.44, 0.898, -22.542, 65.818)" fill="#692cb7"/>
              <path id="Trazado_873525" data-name="Trazado 873525" d="M7.389,36.14,98.006,11.851,96.881,17.8,6.263,42.085Z" transform="matrix(0.898, -0.44, 0.44, 0.898, -22.542, 49.157)" fill="#692cb7"/>
              <path id="Trazado_873526" data-name="Trazado 873526" d="M7.389,36.14,98.006,11.851,96.881,17.8,6.263,42.085Z" transform="translate(-22.542 32.496) rotate(-26.114)" fill="#692cb7"/>
            </g>
          </g>
        </g>
      </g>
      <rect id="Rectángulo_401574" data-name="Rectángulo 401574" width="161" height="117" transform="translate(29 -0.076)" fill="#efe8f7"/>
    </g>
    <g id="computacion-en-la-nube_1_" data-name="computacion-en-la-nube (1)" transform="translate(227.467 417.666)">
      <g id="Grupo_1107674" data-name="Grupo 1107674" transform="translate(1.22 1.22)">
        <g id="Grupo_1107659" data-name="Grupo 1107659" transform="translate(67.124)">
          <path id="Trazado_915575" data-name="Trazado 915575" d="M62.1,1V15.645L56,8.323Z" transform="translate(-56 -1)" fill="#dfb28b"/>
        </g>
        <g id="Grupo_1107660" data-name="Grupo 1107660" transform="translate(53.699)">
          <path id="Trazado_915576" data-name="Trazado 915576" d="M45,1l6.1,7.323L45,15.645Z" transform="translate(-45 -1)" fill="#dfb28b"/>
        </g>
        <g id="Grupo_1107661" data-name="Grupo 1107661" transform="translate(53.699 7.323)">
          <path id="Trazado_915577" data-name="Trazado 915577" d="M58.425,7l6.1,7.323H45L51.1,7Z" transform="translate(-45 -7)" fill="#d3a06c"/>
        </g>
        <g id="Grupo_1107662" data-name="Grupo 1107662" transform="translate(53.699)">
          <path id="Trazado_915578" data-name="Trazado 915578" d="M64.527,1l-6.1,7.323H51.1L45,1Z" transform="translate(-45 -1)" fill="#cf9e76"/>
        </g>
        <g id="Grupo_1107663" data-name="Grupo 1107663" transform="translate(59.801 68.344)">
          <path id="Trazado_915579" data-name="Trazado 915579" d="M50,57h7.323v4.882H50Z" transform="translate(-50 -57)" fill="#aab2bd"/>
        </g>
        <g id="Grupo_1107664" data-name="Grupo 1107664" transform="translate(53.699 63.462)">
          <path id="Trazado_915580" data-name="Trazado 915580" d="M64.527,53v2.441a2.448,2.448,0,0,1-2.441,2.441H47.441A2.448,2.448,0,0,1,45,55.441V53Z" transform="translate(-45 -53)" fill="#ccd1d9"/>
        </g>
        <g id="Grupo_1107665" data-name="Grupo 1107665" transform="translate(53.699 53.699)">
          <path id="Trazado_915581" data-name="Trazado 915581" d="M64.527,47.441v7.323H45V47.441A2.448,2.448,0,0,1,47.441,45H62.086A2.448,2.448,0,0,1,64.527,47.441Z" transform="translate(-45 -45)" fill="#69d6f4"/>
        </g>
        <g id="Grupo_1107666" data-name="Grupo 1107666" transform="translate(0 28.07)">
          <path id="Trazado_915582" data-name="Trazado 915582" d="M10.763,26.441v2.441H1V26.441A2.448,2.448,0,0,1,3.441,24H8.323A2.448,2.448,0,0,1,10.763,26.441Z" transform="translate(-1 -24)" fill="#969faa"/>
        </g>
        <g id="Grupo_1107667" data-name="Grupo 1107667" transform="translate(0 40.274)">
          <path id="Trazado_915583" data-name="Trazado 915583" d="M10.763,36.441V34H1v2.441a2.448,2.448,0,0,0,2.441,2.441H8.323A2.448,2.448,0,0,0,10.763,36.441Z" transform="translate(-1 -34)" fill="#969faa"/>
        </g>
        <g id="Grupo_1107668" data-name="Grupo 1107668" transform="translate(0 32.952)">
          <path id="Trazado_915584" data-name="Trazado 915584" d="M1,28h9.763v7.323H1Z" transform="translate(-1 -28)" fill="#69d6f4"/>
        </g>
        <g id="Grupo_1107669" data-name="Grupo 1107669" transform="translate(0 56.14)">
          <circle id="Elipse_11574" data-name="Elipse 11574" cx="5" cy="5" r="5" transform="translate(-0.22 -0.36)" fill="#f0d0b4"/>
        </g>
        <g id="Grupo_1107670" data-name="Grupo 1107670" transform="translate(0 65.903)">
          <path id="Trazado_915585" data-name="Trazado 915585" d="M10.763,59.882v2.441H1V59.882a4.882,4.882,0,1,1,9.763,0Z" transform="translate(-1 -55)" fill="#ff826e"/>
        </g>
        <g id="Grupo_1107671" data-name="Grupo 1107671" transform="translate(4.882 4.882)">
          <path id="Trazado_915586" data-name="Trazado 915586" d="M9.882,8.661v1.22A2.441,2.441,0,0,1,5,9.882V7.441A2.448,2.448,0,0,1,7.441,5,2.459,2.459,0,0,1,9.882,7.441Z" transform="translate(-5 -5)" fill="#ff826e"/>
        </g>
        <g id="Grupo_1107672" data-name="Grupo 1107672" transform="translate(14.645 14.645)">
          <path id="Trazado_915587" data-name="Trazado 915587" d="M53.909,30.281a19.113,19.113,0,0,0-2.246-5.394l1.428-2.868-5.175-5.175-2.868,1.428a19.113,19.113,0,0,0-5.394-2.246L38.629,13H31.306l-1.025,3.027a19.113,19.113,0,0,0-5.394,2.246l-2.868-1.428-5.175,5.175,1.428,2.868a19.113,19.113,0,0,0-2.246,5.394L13,31.306v7.323l3.027,1.025a19.113,19.113,0,0,0,2.246,5.394l-1.428,2.868,5.175,5.175,2.868-1.428a19.113,19.113,0,0,0,5.394,2.246l1.025,3.027h7.323l1.025-3.027a19.113,19.113,0,0,0,5.394-2.246l2.868,1.428,5.175-5.175-1.428-2.868a19.113,19.113,0,0,0,2.246-5.394l3.027-1.025V31.306ZM47.868,41.888V41.9a14.644,14.644,0,0,1-25.8,0v-.012a4.863,4.863,0,0,1-2.746-3.027,4.813,4.813,0,0,1-.22-1.452,4.87,4.87,0,0,1,1.257-3.271,14.631,14.631,0,0,1,29.217,0,4.87,4.87,0,0,1,1.257,3.271,4.643,4.643,0,0,1-.391,1.892A4.777,4.777,0,0,1,47.868,41.888Z" transform="translate(-13 -13)" fill="#fcd770"/>
        </g>
        <g id="Grupo_1107673" data-name="Grupo 1107673" transform="translate(20.747 29.29)">
          <path id="Trazado_915588" data-name="Trazado 915588" d="M19.257,31.493a4.866,4.866,0,0,1,3.625-1.611,4.654,4.654,0,0,1,1.318.207,6.078,6.078,0,0,1,11.2-2.148,4.942,4.942,0,0,1,2.124-.5,4.858,4.858,0,0,1,4.589,3.283,4.8,4.8,0,0,1,2.734-.842,4.881,4.881,0,0,1,4.882,4.882,4.643,4.643,0,0,1-.391,1.892,4.918,4.918,0,0,1-4.491,2.99H22.882a4.767,4.767,0,0,1-1.916-.4,4.863,4.863,0,0,1-2.746-3.027A4.813,4.813,0,0,1,18,34.763a4.87,4.87,0,0,1,1.257-3.271Z" transform="translate(-18 -25)" fill="#e6e9ed"/>
        </g>
      </g>
      <g id="Grupo_1107675" data-name="Grupo 1107675">
        <path id="Trazado_915589" data-name="Trazado 915589" d="M12,30.649v9.078l3.238,1.091a20.611,20.611,0,0,0,1.864,4.5l-1.518,3.062L22,54.8l3.062-1.519a20.516,20.516,0,0,0,4.5,1.864l1.091,3.237h9.076l1.091-3.238a20.541,20.541,0,0,0,4.5-1.864l3.062,1.519,6.417-6.418-1.518-3.062a20.586,20.586,0,0,0,1.864-4.5l3.237-1.09V30.649l-3.238-1.091a20.611,20.611,0,0,0-1.864-4.5L54.793,22l-6.417-6.418L45.314,17.1a20.557,20.557,0,0,0-4.5-1.862L39.726,12H30.649l-1.091,3.238a20.582,20.582,0,0,0-4.5,1.862L22,15.582,15.582,22,17.1,25.062a20.586,20.586,0,0,0-1.864,4.5Zm5.275.8.161-.65a18.168,18.168,0,0,1,2.1-5.059l.348-.574-1.33-2.68,3.938-3.94,2.68,1.33.574-.347a18.192,18.192,0,0,1,5.057-2.1l.65-.16.954-2.834h5.569l.954,2.834.65.16a18.118,18.118,0,0,1,5.057,2.1l.574.347,2.68-1.33,3.938,3.94-1.33,2.68.348.574a18.153,18.153,0,0,1,2.1,5.059l.161.65,2.835.954v5.569l-2.834.954-.161.65a18.168,18.168,0,0,1-2.1,5.059l-.348.574,1.33,2.68-3.938,3.94-2.68-1.33-.574.347a18.246,18.246,0,0,1-5.057,2.1l-.65.16-.954,2.833H32.4L31.45,53.1l-.65-.16a18.173,18.173,0,0,1-5.057-2.1l-.574-.347-2.68,1.33-3.938-3.94,1.33-2.68-.348-.574a18.153,18.153,0,0,1-2.1-5.059l-.161-.65-2.835-.954V32.4Z" transform="translate(2.645 2.645)"/>
        <path id="Trazado_915590" data-name="Trazado 915590" d="M62.306,44H47.661A3.666,3.666,0,0,0,44,47.661v9.763a3.666,3.666,0,0,0,3.661,3.661H50.1v2.441H47.661v2.441H62.306V63.527H59.866V61.086h2.441a3.666,3.666,0,0,0,3.661-3.661V47.661A3.666,3.666,0,0,0,62.306,44ZM47.661,46.441H62.306a1.222,1.222,0,0,1,1.22,1.22v6.1H46.441v-6.1A1.222,1.222,0,0,1,47.661,46.441Zm9.763,17.086H52.543V61.086h4.882Zm4.882-4.882H47.661a1.222,1.222,0,0,1-1.22-1.22V56.2H63.527v1.22A1.222,1.222,0,0,1,62.306,58.645Z" transform="translate(9.699 9.699)"/>
        <path id="Trazado_915591" data-name="Trazado 915591" d="M64.132,30.5a8.542,8.542,0,0,0-12.082,0l1.726,1.726a6.1,6.1,0,0,1,8.631,0Z" transform="translate(11.473 6.172)"/>
        <path id="Trazado_915592" data-name="Trazado 915592" d="M54.878,33.066,56.6,34.792a1.245,1.245,0,0,1,1.724,0l1.727-1.726A3.751,3.751,0,0,0,54.878,33.066Z" transform="translate(12.097 7.06)"/>
        <path id="Trazado_915593" data-name="Trazado 915593" d="M44,0V17.086H65.968V0ZM58.074,7.323H51.895L47.827,2.441H62.143Zm-8.34,1.22-3.293,3.952v-7.9Zm2.161,1.22h6.179l4.068,4.882H47.826Zm8.339-1.22,3.293-3.952v7.9Z" transform="translate(9.699)"/>
        <path id="Trazado_915594" data-name="Trazado 915594" d="M17.086,14.645v-6.1A8.543,8.543,0,1,0,0,8.543v2.441a8.553,8.553,0,0,0,8.543,8.543h1.22V17.086H8.543a6.109,6.109,0,0,1-6.1-6.1V8.543a6.1,6.1,0,0,1,12.2,0v6.1a1.22,1.22,0,0,1-2.441,0v-6.1a3.661,3.661,0,1,0-7.323,0v2.441a3.666,3.666,0,0,0,3.661,3.661,3.62,3.62,0,0,0,1.22-.225v.225a3.661,3.661,0,0,0,7.323,0ZM8.543,12.2a1.222,1.222,0,0,1-1.22-1.22V8.543a1.22,1.22,0,0,1,2.441,0v2.441A1.222,1.222,0,0,1,8.543,12.2Z"/>
        <path id="Trazado_915595" data-name="Trazado 915595" d="M12.2,52.1a6.1,6.1,0,1,0-9.726,4.882A6.08,6.08,0,0,0,0,61.866v3.661H12.2V61.866a6.08,6.08,0,0,0-2.479-4.882A6.08,6.08,0,0,0,12.2,52.1ZM9.763,61.866v1.22H2.441v-1.22a3.661,3.661,0,1,1,7.323,0ZM6.1,55.763A3.661,3.661,0,1,1,9.763,52.1,3.666,3.666,0,0,1,6.1,55.763Z" transform="translate(0 10.14)"/>
        <path id="Trazado_915596" data-name="Trazado 915596" d="M8.543,23H3.661A3.666,3.666,0,0,0,0,26.661v12.2a3.666,3.666,0,0,0,3.661,3.661H8.543A3.666,3.666,0,0,0,12.2,38.866v-12.2A3.666,3.666,0,0,0,8.543,23ZM3.661,25.441H8.543a1.222,1.222,0,0,1,1.22,1.22v1.22H2.441v-1.22A1.222,1.222,0,0,1,3.661,25.441Zm6.1,4.882V35.2H2.441V30.323Zm-1.22,9.763H3.661a1.222,1.222,0,0,1-1.22-1.22v-1.22H9.763v1.22A1.222,1.222,0,0,1,8.543,40.086Z" transform="translate(0 5.07)"/>
        <path id="Trazado_915597" data-name="Trazado 915597" d="M20.3,41.692a15.849,15.849,0,0,0,27.582,0,6.02,6.02,0,0,0,1.989-9.112,15.829,15.829,0,0,0-31.555-.051A6.067,6.067,0,0,0,20.3,41.692Zm13.791,5.6A13.388,13.388,0,0,1,23.77,42.409H44.4A13.388,13.388,0,0,1,34.086,47.29ZM45.07,39.968H23.1a3.661,3.661,0,1,1,0-7.323,3.571,3.571,0,0,1,.99.159l1.311.373.227-1.345a4.852,4.852,0,0,1,8.952-1.709l.577.949,1-.486a3.644,3.644,0,0,1,5.028,2.077l.524,1.5,1.312-.888a3.661,3.661,0,1,1,2.049,6.7ZM34.086,20.441a13.416,13.416,0,0,1,13,10.132,5.913,5.913,0,0,0-4.2.034,6.118,6.118,0,0,0-6.815-2.6,7.289,7.289,0,0,0-12.539,2.214,5.916,5.916,0,0,0-2.431.3A13.413,13.413,0,0,1,34.086,20.441Z" transform="translate(3.747 3.968)"/>
        <path id="Trazado_915598" data-name="Trazado 915598" d="M34.441,8.441H44.2V6H32v4.882h2.441Z" transform="translate(7.054 1.323)"/>
        <path id="Trazado_915599" data-name="Trazado 915599" d="M30.645,10.882h2.441V6H16V8.441H30.645Z" transform="translate(3.527 1.323)"/>
        <path id="Trazado_915600" data-name="Trazado 915600" d="M34.441,52H32v4.882H44.2V54.441H34.441Z" transform="translate(7.054 11.462)"/>
        <path id="Trazado_915601" data-name="Trazado 915601" d="M31.527,54.441H12v2.441H33.968V52H31.527Z" transform="translate(2.645 11.462)"/>
      </g>
    </g>
  </g>
</svg>
