<svg xmlns="http://www.w3.org/2000/svg" width="1030" height="168.5" viewBox="0 0 1030 168.5">
  <g id="_50" data-name="50" transform="translate(-285 -2747.5)">
    <rect id="Rectángulo_403335" data-name="Rectángulo 403335" width="1030" height="168" transform="translate(285 2748)" fill="#e2f4f9"/>
    <text id="Finalmente_el_registro_y_almacenamiento_de_eventos_de_red_son_componentes_esenciales_de_una_estrategia_de_monitoreo_y_gestión_efectiva._Los_logs_de_red_o_registros_de_eventos_permiten_a_los_administradores_realizar_auditorías_investigar_incidentes_y_an" data-name="Finalmente, el registro y almacenamiento de eventos de red son componentes esenciales de una estrategia de monitoreo y gestión efectiva. Los logs de red, o registros de eventos, permiten a los administradores realizar auditorías, investigar incidentes y an" transform="translate(424 2779)" fill="#12263f" font-size="16" font-family="Roboto-Regular, Roboto"><tspan x="0" y="17">Finalmente, el registro y almacenamiento de eventos de red son componentes esenciales de una estrategia de </tspan><tspan x="0" y="41">monitoreo y gestión efectiva. Los logs de red, o registros de eventos, permiten a los administradores realizar auditorías, </tspan><tspan x="0" y="65">investigar incidentes y analizar cualquier anomalía en el funcionamiento de la red. Mantener estos registros </tspan><tspan x="0" y="89">actualizados facilita la resolución de problemas, permite tener un historial de incidentes y mejora el control sobre el </tspan><tspan x="0" y="113">acceso a la red</tspan></text>
    <rect id="Rectángulo_403336" data-name="Rectángulo 403336" width="52" height="13" transform="translate(285 2747.5)" fill="#73c8e2"/>
    <g id="Grupo_1102212" data-name="Grupo 1102212" transform="translate(321 2801.25)">
      <circle id="Elipse_11521" data-name="Elipse 11521" cx="37" cy="37" r="37" fill="#fbfbf9"/>
      <g id="anadir" transform="translate(16.051 14.434)">
        <path id="Trazado_915624" data-name="Trazado 915624" d="M17.813,36.75H4.688A4.693,4.693,0,0,1,0,32.063V7.688A4.693,4.693,0,0,1,4.688,3h3.75a.938.938,0,0,1,0,1.875H4.688A2.816,2.816,0,0,0,1.875,7.688V32.063a2.816,2.816,0,0,0,2.813,2.813H17.813a.938.938,0,0,1,0,1.875Z" transform="translate(0 2.625)" fill="#692cb7"/>
        <path id="Trazado_915625" data-name="Trazado 915625" d="M20.438,14.25a.938.938,0,0,1-.937-.937V7.688a2.816,2.816,0,0,0-2.812-2.812h-3.75a.938.938,0,0,1,0-1.875h3.75a4.693,4.693,0,0,1,4.688,4.688v5.625A.938.938,0,0,1,20.438,14.25Z" transform="translate(10.5 2.625)" fill="#692cb7"/>
        <path id="Trazado_915626" data-name="Trazado 915626" d="M18.063,11.25H6.813A2.816,2.816,0,0,1,4,8.438V4.688a.938.938,0,0,1,.938-.937H7.844a4.689,4.689,0,0,1,9.188,0h2.906a.938.938,0,0,1,.938.938v3.75A2.816,2.816,0,0,1,18.063,11.25ZM5.875,5.625V8.438a.939.939,0,0,0,.938.938h11.25A.939.939,0,0,0,19,8.438V5.625H16.188a.938.938,0,0,1-.937-.937,2.813,2.813,0,0,0-5.625,0,.938.938,0,0,1-.937.938Z" transform="translate(3.5)" fill="#692cb7"/>
        <path id="Trazado_915627" data-name="Trazado 915627" d="M23.188,35.375A12.188,12.188,0,1,1,35.375,23.188,12.2,12.2,0,0,1,23.188,35.375Zm0-22.5A10.313,10.313,0,1,0,33.5,23.188,10.325,10.325,0,0,0,23.188,12.875Z" transform="translate(9.625 9.625)" fill="#692cb7"/>
        <path id="Trazado_915628" data-name="Trazado 915628" d="M17.938,27.125A.938.938,0,0,1,17,26.188V14.938a.938.938,0,0,1,1.875,0v11.25A.938.938,0,0,1,17.938,27.125Z" transform="translate(14.875 12.25)" fill="#692cb7"/>
        <path id="Trazado_915629" data-name="Trazado 915629" d="M26.188,18.875H14.938a.938.938,0,0,1,0-1.875h11.25a.938.938,0,0,1,0,1.875Z" transform="translate(12.25 14.875)" fill="#692cb7"/>
        <path id="Trazado_915630" data-name="Trazado 915630" d="M22.688,9.875H3.938A.938.938,0,0,1,3.938,8h18.75a.938.938,0,0,1,0,1.875Z" transform="translate(2.625 7)" fill="#692cb7"/>
        <path id="Trazado_915631" data-name="Trazado 915631" d="M17.063,12.875H3.938a.938.938,0,0,1,0-1.875H17.063a.938.938,0,0,1,0,1.875Z" transform="translate(2.625 9.625)" fill="#692cb7"/>
        <path id="Trazado_915632" data-name="Trazado 915632" d="M13.313,15.875H3.938a.938.938,0,0,1,0-1.875h9.375a.938.938,0,0,1,0,1.875Z" transform="translate(2.625 12.25)" fill="#692cb7"/>
      </g>
    </g>
  </g>
</svg>
