<svg xmlns="http://www.w3.org/2000/svg" xmlns:xlink="http://www.w3.org/1999/xlink" width="190" height="91.333" viewBox="0 0 190 91.333">
  <defs>
    <clipPath id="clip-path">
      <rect id="Rectángulo_401573" data-name="Rectángulo 401573" width="28.836" height="91.333" fill="none"/>
    </clipPath>
    <clipPath id="clip-path-2">
      <rect id="Rectángulo_401572" data-name="Rectángulo 401572" width="72.283" height="161.428" fill="none"/>
    </clipPath>
    <clipPath id="clip-path-3">
      <rect id="Rectángulo_401571" data-name="Rectángulo 401571" width="73" height="73" transform="translate(-0.333 -0.166)" fill="#fff" stroke="#707070" stroke-width="1"/>
    </clipPath>
  </defs>
  <g id="Grupo_1102221" data-name="Grupo 1102221" transform="translate(-180 -960.999)">
    <g id="Grupo_1099688" data-name="Grupo 1099688" transform="translate(180 960.999)">
      <g id="Grupo_1099687" data-name="Grupo 1099687" clip-path="url(#clip-path)">
        <g id="Grupo_1099686" data-name="Grupo 1099686" transform="translate(-6.669 -33.893)" opacity="0.45" style="mix-blend-mode: multiply;isolation: isolate">
          <g id="Grupo_1099685" data-name="Grupo 1099685">
            <g id="Grupo_1099684" data-name="Grupo 1099684" clip-path="url(#clip-path-2)">
              <path id="Trazado_873516" data-name="Trazado 873516" d="M5.711,18.012l79.852-2.327-.108,3.868L5.6,21.88Z" transform="matrix(0.898, -0.44, 0.44, 0.898, -13.055, 124.136)" fill="#2d0464"/>
              <path id="Trazado_873517" data-name="Trazado 873517" d="M5.711,18.012l79.852-2.327-.108,3.868L5.6,21.88Z" transform="matrix(0.898, -0.44, 0.44, 0.898, -13.055, 114.08)" fill="#2d0464"/>
              <path id="Trazado_873518" data-name="Trazado 873518" d="M5.711,18.012l79.852-2.327-.108,3.868L5.6,21.88Z" transform="matrix(0.898, -0.44, 0.44, 0.898, -13.055, 104.024)" fill="#2d0464"/>
              <path id="Trazado_873519" data-name="Trazado 873519" d="M5.711,18.012l79.852-2.327-.108,3.868L5.6,21.88Z" transform="matrix(0.898, -0.44, 0.44, 0.898, -13.055, 93.968)" fill="#2d0464"/>
              <path id="Trazado_873520" data-name="Trazado 873520" d="M5.711,18.012l79.852-2.327-.108,3.868L5.6,21.88Z" transform="matrix(0.898, -0.44, 0.44, 0.898, -13.055, 83.912)" fill="#2d0464"/>
              <path id="Trazado_873521" data-name="Trazado 873521" d="M5.711,18.012l79.852-2.327-.108,3.868L5.6,21.88Z" transform="matrix(0.898, -0.44, 0.44, 0.898, -13.055, 73.856)" fill="#2d0464"/>
              <path id="Trazado_873522" data-name="Trazado 873522" d="M5.711,18.012l79.852-2.327-.108,3.868L5.6,21.88Z" transform="matrix(0.898, -0.44, 0.44, 0.898, -13.055, 63.8)" fill="#2d0464"/>
              <path id="Trazado_873523" data-name="Trazado 873523" d="M5.711,18.012l79.852-2.327-.108,3.868L5.6,21.88Z" transform="matrix(0.898, -0.44, 0.44, 0.898, -13.055, 53.744)" fill="#2d0464"/>
              <path id="Trazado_873524" data-name="Trazado 873524" d="M5.711,18.012l79.852-2.327-.108,3.868L5.6,21.88Z" transform="matrix(0.898, -0.44, 0.44, 0.898, -13.055, 43.689)" fill="#2d0464"/>
              <path id="Trazado_873525" data-name="Trazado 873525" d="M5.711,18.012l79.852-2.327-.108,3.868L5.6,21.88Z" transform="matrix(0.898, -0.44, 0.44, 0.898, -13.055, 33.633)" fill="#2d0464"/>
              <path id="Trazado_873526" data-name="Trazado 873526" d="M5.711,18.012l79.852-2.327-.108,3.868L5.6,21.88Z" transform="translate(-13.055 23.577) rotate(-26.114)" fill="#2d0464"/>
            </g>
          </g>
        </g>
      </g>
      <rect id="Rectángulo_401574" data-name="Rectángulo 401574" width="161" height="91" transform="translate(29)" fill="#efe8f7"/>
    </g>
    <g id="Enmascarar_grupo_1098713" data-name="Enmascarar grupo 1098713" transform="translate(253.333 970.166)" clip-path="url(#clip-path-3)">
      <g id="alambrado" transform="translate(0.253 0.743)">
        <g id="Grupo_1101898" data-name="Grupo 1101898" transform="translate(1.018 5.323)">
          <path id="Trazado_912957" data-name="Trazado 912957" d="M61.034,63.7l-12.906,7.52A29.889,29.889,0,0,1,7.1,60.128a30.467,30.467,0,0,1,10.995-41.41L31,11.2,39.052,25.28,27.114,32.236a14.125,14.125,0,0,0-5.1,19.2,13.857,13.857,0,0,0,19.023,5.144l11.938-6.956Z" transform="translate(-3.067 -10.165)" fill="#cad0d7" fill-rule="evenodd"/>
          <path id="Trazado_912958" data-name="Trazado 912958" d="M49.551,15.669c2.5,4.374,2.719,8.982.483,10.285s-6.082-1.191-8.584-5.565-2.718-8.982-.483-10.285S47.049,11.3,49.551,15.669Z" transform="translate(-13.567 -9.759)" fill="#a9b0bb" fill-rule="evenodd"/>
          <path id="Trazado_912959" data-name="Trazado 912959" d="M80.24,68.823c2.5,4.374,2.718,8.982.483,10.285s-6.082-1.191-8.585-5.564-2.719-8.983-.483-10.285,6.082,1.191,8.585,5.565Z" transform="translate(-22.431 -24.763)" fill="#a9b0bb" fill-rule="evenodd"/>
          <path id="Trazado_912960" data-name="Trazado 912960" d="M51.816,13.269l-5.78,3.368-1.707-2.983,5.78-3.368Z" transform="translate(-14.985 -9.907)" fill="#f76c82" fill-rule="evenodd"/>
          <path id="Trazado_912961" data-name="Trazado 912961" d="M82.5,66.423l-5.78,3.368-1.707-2.983L80.8,63.44Z" transform="translate(-23.848 -24.912)" fill="#f76c82" fill-rule="evenodd"/>
          <g id="Grupo_1101897" data-name="Grupo 1101897" transform="translate(32.815 6.444)">
            <path id="Trazado_912962" data-name="Trazado 912962" d="M56.7,21.721l-5.78,3.368-1.707-2.983,5.78-3.368Z" transform="translate(-49.209 -18.738)" fill="#cad0d7" fill-rule="evenodd"/>
            <path id="Trazado_912963" data-name="Trazado 912963" d="M87.384,74.875,81.6,78.243,79.9,75.26l5.78-3.368Z" transform="translate(-58.073 -33.742)" fill="#cad0d7" fill-rule="evenodd"/>
          </g>
        </g>
        <path id="Trazado_912964" data-name="Trazado 912964" d="M58.992,63.339,48.224,69.613A30.9,30.9,0,0,1,5.8,58.141,31.5,31.5,0,0,1,17.168,15.328L27.937,9.054a3.852,3.852,0,0,1,1.607-1.932c1.531-.892,3.73-.487,5.869,1.113l1.856-1.081a1.013,1.013,0,0,1,1.39.376l.344.6,1.885-1.1a1.013,1.013,0,0,1,1.39.376,1.033,1.033,0,0,1-.373,1.4l-1.885,1.1.344.6a1.033,1.033,0,0,1-.373,1.4l-.86.5q.2.315.386.644t.36.66l.86-.5a1.013,1.013,0,0,1,1.39.376l.344.6,1.886-1.1a1.013,1.013,0,0,1,1.39.376,1.033,1.033,0,0,1-.373,1.4l-1.886,1.1.344.6a1.032,1.032,0,0,1-.373,1.4l-1.856,1.081c.3,2.669-.448,4.794-1.979,5.686a3.952,3.952,0,0,1-2.938.351l-9.482,5.525a13.092,13.092,0,0,0-4.725,17.795,12.844,12.844,0,0,0,17.632,4.768L49.6,47.664a4.018,4.018,0,0,1,1.77-2.392c1.531-.892,3.73-.487,5.869,1.114L59.094,45.3a1.013,1.013,0,0,1,1.39.376l.344.6,1.886-1.1a1.013,1.013,0,0,1,1.39.376,1.033,1.033,0,0,1-.373,1.4l-1.886,1.1.344.6a1.032,1.032,0,0,1-.373,1.4l-.86.5q.2.315.386.645t.36.659l.86-.5a1.013,1.013,0,0,1,1.39.376l.344.6,1.885-1.1a1.013,1.013,0,0,1,1.39.376,1.033,1.033,0,0,1-.373,1.4l-1.885,1.1.344.6a1.032,1.032,0,0,1-.373,1.4l-1.856,1.081c.3,2.669-.448,4.794-1.979,5.686a3.8,3.8,0,0,1-2.462.439Zm-31.5-51.653-9.306,5.422A29.435,29.435,0,0,0,7.564,57.114a28.876,28.876,0,0,0,39.642,10.72l9.306-5.422a15.136,15.136,0,0,1-5.032-5.452,15.624,15.624,0,0,1-2.152-6.766l-8.192,4.774a14.869,14.869,0,0,1-20.413-5.52,15.157,15.157,0,0,1,5.47-20.6l8.192-4.774a15.469,15.469,0,0,1-4.73-5.264,15.292,15.292,0,0,1-2.163-7.124Zm5.962-2.309a5.368,5.368,0,0,0-1.245-.558,2.072,2.072,0,0,0-1.647.082,2.57,2.57,0,0,0-1.012,2.126,12.323,12.323,0,0,0,1.867,6.756,12.181,12.181,0,0,0,4.864,5.01,2.518,2.518,0,0,0,2.33.179,2.11,2.11,0,0,0,.894-1.4,5.5,5.5,0,0,0,.143-1.367L37.684,21.35a1.013,1.013,0,0,1-1.39-.376l-1.707-2.983a1.032,1.032,0,0,1,.373-1.4l3.155-1.838q-.17-.331-.359-.66t-.387-.644l-3.155,1.838a1.013,1.013,0,0,1-1.39-.376l-1.707-2.983a1.032,1.032,0,0,1,.373-1.4Zm4.641,1.274-.689-1.2-4.017,2.341.689,1.2Zm3.471,6.067-.689-1.2-4.017,2.34.689,1.2Zm13.714,30.81a5.374,5.374,0,0,0-1.245-.558,2.073,2.073,0,0,0-1.647.082,2.57,2.57,0,0,0-1.012,2.126,12.323,12.323,0,0,0,1.867,6.756,12.182,12.182,0,0,0,4.864,5.01,2.518,2.518,0,0,0,2.33.179,2.11,2.11,0,0,0,.894-1.4,5.5,5.5,0,0,0,.143-1.367L59.509,59.5a1.013,1.013,0,0,1-1.39-.376l-1.707-2.983a1.032,1.032,0,0,1,.373-1.4L59.94,52.9q-.17-.331-.359-.66t-.387-.644l-3.155,1.838a1.013,1.013,0,0,1-1.39-.376l-1.707-2.983a1.032,1.032,0,0,1,.373-1.4ZM59.919,48.8l-.689-1.2-4.017,2.341.689,1.2Zm3.47,6.067-.689-1.2L58.684,56l.689,1.2ZM45.747,6.575l-.9.527a1.013,1.013,0,0,1-1.39-.376,1.033,1.033,0,0,1,.373-1.4l.9-.527-.522-.912a1.033,1.033,0,0,1,.373-1.4,1.013,1.013,0,0,1,1.39.376l.522.912.9-.527a1.013,1.013,0,0,1,1.39.376,1.033,1.033,0,0,1-.373,1.4l-.9.527.522.912a1.033,1.033,0,0,1-.373,1.4,1.013,1.013,0,0,1-1.39-.376Zm21.825,38.15-.9.527a1.013,1.013,0,0,1-1.39-.376,1.033,1.033,0,0,1,.373-1.4l.9-.527-.522-.912a1.033,1.033,0,0,1,.373-1.4,1.013,1.013,0,0,1,1.39.376l.522.912.9-.527a1.013,1.013,0,0,1,1.39.376,1.033,1.033,0,0,1-.373,1.4l-.9.527.522.912a1.033,1.033,0,0,1-.373,1.4,1.013,1.013,0,0,1-1.39-.376ZM47.678,9.95a1.033,1.033,0,0,1,.373-1.4,1.013,1.013,0,0,1,1.39.376l2.061,3.6a1.033,1.033,0,0,1-.373,1.4,1.013,1.013,0,0,1-1.39-.376ZM69.5,48.1a1.033,1.033,0,0,1,.373-1.4,1.013,1.013,0,0,1,1.39.376l2.061,3.6a1.033,1.033,0,0,1-.373,1.4,1.013,1.013,0,0,1-1.39-.376Z" transform="translate(-1.635 -2.343)" fill-rule="evenodd"/>
      </g>
    </g>
  </g>
</svg>
