<svg xmlns="http://www.w3.org/2000/svg" xmlns:xlink="http://www.w3.org/1999/xlink" width="190" height="115" viewBox="0 0 190 115">
  <defs>
    <clipPath id="clip-path">
      <rect id="Rectángulo_401573" data-name="Rectángulo 401573" width="28.836" height="111" fill="none"/>
    </clipPath>
    <clipPath id="clip-path-2">
      <rect id="Rectángulo_401572" data-name="Rectángulo 401572" width="72.283" height="262.133" fill="none"/>
    </clipPath>
    <clipPath id="clip-path-3">
      <rect id="Rectángulo_403255" data-name="Rectángulo 403255" width="71" height="71" fill="#fff" stroke="#707070" stroke-width="1"/>
    </clipPath>
  </defs>
  <g id="_26" data-name="26" transform="translate(-180.051 -401)">
    <g id="Grupo_1101503" data-name="Grupo 1101503" transform="translate(180.051 401)">
      <g id="Grupo_1099687" data-name="Grupo 1099687" transform="translate(0 0.333)" clip-path="url(#clip-path)">
        <g id="Grupo_1099686" data-name="Grupo 1099686" transform="translate(-6.669 -55.037)" opacity="0.45" style="mix-blend-mode: multiply;isolation: isolate">
          <g id="Grupo_1099685" data-name="Grupo 1099685">
            <g id="Grupo_1099684" data-name="Grupo 1099684" clip-path="url(#clip-path-2)">
              <path id="Trazado_873516" data-name="Trazado 873516" d="M8.245,36.4,98.321,13.213l-1.075,5.841L7.17,42.239Z" transform="matrix(0.898, -0.44, 0.44, 0.898, -23.424, 194.703)" fill="#2d0464"/>
              <path id="Trazado_873517" data-name="Trazado 873517" d="M8.245,36.4,98.321,13.213l-1.075,5.841L7.17,42.239Z" transform="matrix(0.898, -0.44, 0.44, 0.898, -23.424, 178.374)" fill="#2d0464"/>
              <path id="Trazado_873518" data-name="Trazado 873518" d="M8.245,36.4,98.321,13.213l-1.075,5.841L7.17,42.239Z" transform="matrix(0.898, -0.44, 0.44, 0.898, -23.424, 162.044)" fill="#2d0464"/>
              <path id="Trazado_873519" data-name="Trazado 873519" d="M8.245,36.4,98.321,13.213l-1.075,5.841L7.17,42.239Z" transform="matrix(0.898, -0.44, 0.44, 0.898, -23.424, 145.716)" fill="#2d0464"/>
              <path id="Trazado_873520" data-name="Trazado 873520" d="M8.245,36.4,98.321,13.213l-1.075,5.841L7.17,42.239Z" transform="matrix(0.898, -0.44, 0.44, 0.898, -23.424, 129.386)" fill="#2d0464"/>
              <path id="Trazado_873521" data-name="Trazado 873521" d="M8.245,36.4,98.321,13.213l-1.075,5.841L7.17,42.239Z" transform="matrix(0.898, -0.44, 0.44, 0.898, -23.424, 113.057)" fill="#2d0464"/>
              <path id="Trazado_873522" data-name="Trazado 873522" d="M8.245,36.4,98.321,13.213l-1.075,5.841L7.17,42.239Z" transform="matrix(0.898, -0.44, 0.44, 0.898, -23.424, 96.728)" fill="#2d0464"/>
              <path id="Trazado_873523" data-name="Trazado 873523" d="M8.245,36.4,98.321,13.213l-1.075,5.841L7.17,42.239Z" transform="matrix(0.898, -0.44, 0.44, 0.898, -23.424, 80.399)" fill="#2d0464"/>
              <path id="Trazado_873524" data-name="Trazado 873524" d="M8.245,36.4,98.321,13.213l-1.075,5.841L7.17,42.239Z" transform="matrix(0.898, -0.44, 0.44, 0.898, -23.424, 64.07)" fill="#2d0464"/>
              <path id="Trazado_873525" data-name="Trazado 873525" d="M8.245,36.4,98.321,13.213l-1.075,5.841L7.17,42.239Z" transform="matrix(0.898, -0.44, 0.44, 0.898, -23.424, 47.741)" fill="#2d0464"/>
              <path id="Trazado_873526" data-name="Trazado 873526" d="M8.245,36.4,98.321,13.213l-1.075,5.841L7.17,42.239Z" transform="translate(-23.424 31.411) rotate(-26.114)" fill="#2d0464"/>
            </g>
          </g>
        </g>
      </g>
      <rect id="Rectángulo_401574" data-name="Rectángulo 401574" width="161" height="115" transform="translate(29)" fill="#efe8f7"/>
    </g>
    <g id="Enmascarar_grupo_1098716" data-name="Enmascarar grupo 1098716" transform="translate(254.051 423)" clip-path="url(#clip-path-3)">
      <g id="gestion-de-proyectos2" transform="translate(2.624 1.04)">
        <g id="Grupo_1101909" data-name="Grupo 1101909" transform="translate(11.311 5.882)">
          <path id="Trazado_913008" data-name="Trazado 913008" d="M25.534,12.64V6.922H15.321a1.387,1.387,0,0,0-1.387,1.387V12.64Z" transform="translate(-13.934 -6.922)" fill="#8ac9fe"/>
          <rect id="Rectángulo_403384" data-name="Rectángulo 403384" width="4.643" height="5.719" transform="translate(6.957)" fill="#60b7ff"/>
          <path id="Trazado_913009" data-name="Trazado 913009" d="M45.466,58.36v6.02H55.528a1.387,1.387,0,0,0,1.387-1.387V58.36Z" transform="translate(-13.934 -6.922)" fill="#8ac9fe"/>
          <path id="Trazado_913010" data-name="Trazado 913010" d="M52.219,58.36v4.633a1.387,1.387,0,0,1-1.387,1.387h4.7a1.387,1.387,0,0,0,1.387-1.387V58.36Z" transform="translate(-13.934 -6.922)" fill="#60b7ff"/>
        </g>
        <g id="Grupo_1101910" data-name="Grupo 1101910" transform="translate(11.311 5.882)">
          <path id="Trazado_913011" data-name="Trazado 913011" d="M25.534,12.64V6.922H15.321a1.387,1.387,0,0,0-1.387,1.387V12.64Z" transform="translate(-13.934 -6.922)" fill="none" stroke="#000" stroke-linecap="round" stroke-linejoin="round" stroke-miterlimit="10" stroke-width="2.08"/>
          <path id="Trazado_913012" data-name="Trazado 913012" d="M45.466,58.36v6.02H55.528a1.387,1.387,0,0,0,1.387-1.387V58.36Z" transform="translate(-13.934 -6.922)" fill="none" stroke="#000" stroke-linecap="round" stroke-linejoin="round" stroke-miterlimit="10" stroke-width="2.08"/>
        </g>
        <path id="Trazado_913013" data-name="Trazado 913013" d="M66.99,1.04H26.783A1.387,1.387,0,0,0,25.4,2.427V12.64H44.218a1.249,1.249,0,0,1,1.248,1.248V58.5H66.99a1.387,1.387,0,0,0,1.387-1.387V2.427A1.387,1.387,0,0,0,66.99,1.04Z" transform="translate(-2.624 -1.04)" fill="#f2fbff"/>
        <path id="Trazado_913014" data-name="Trazado 913014" d="M66.99,1.04H61.154a1.387,1.387,0,0,1,1.387,1.387V57.112A1.387,1.387,0,0,1,61.154,58.5H66.99a1.387,1.387,0,0,0,1.387-1.387V2.427A1.387,1.387,0,0,0,66.99,1.04Z" transform="translate(-2.624 -1.04)" fill="#dff6fd"/>
        <path id="Trazado_913015" data-name="Trazado 913015" d="M45.466,58.5H66.99a1.387,1.387,0,0,0,1.387-1.387V2.427A1.387,1.387,0,0,0,66.99,1.04H26.783A1.387,1.387,0,0,0,25.4,2.427V12.64" transform="translate(-2.624 -1.04)" fill="none" stroke="#000" stroke-linecap="round" stroke-linejoin="round" stroke-miterlimit="10" stroke-width="2.08"/>
        <path id="Trazado_913016" data-name="Trazado 913016" d="M44.217,69.96H4.01a1.387,1.387,0,0,1-1.387-1.387V13.888A1.387,1.387,0,0,1,4.01,12.5H44.217A1.387,1.387,0,0,1,45.6,13.888V68.573A1.387,1.387,0,0,1,44.217,69.96Z" transform="translate(-2.624 -1.04)" fill="#fef0ae"/>
        <path id="Trazado_913017" data-name="Trazado 913017" d="M44.217,12.5H38a1.387,1.387,0,0,1,1.387,1.387V68.573A1.387,1.387,0,0,1,38,69.96h6.221A1.387,1.387,0,0,0,45.6,68.573V13.888A1.387,1.387,0,0,0,44.217,12.5Z" transform="translate(-2.624 -1.04)" fill="#fee97d"/>
        <path id="Trazado_913018" data-name="Trazado 913018" d="M2.624,59.768v8.806A1.387,1.387,0,0,0,4.01,69.96H44.217A1.387,1.387,0,0,0,45.6,68.573V13.888A1.387,1.387,0,0,0,44.217,12.5H36.055" transform="translate(-2.624 -1.04)" fill="none" stroke="#000" stroke-linecap="round" stroke-linejoin="round" stroke-miterlimit="10" stroke-width="2.08"/>
        <path id="Trazado_913019" data-name="Trazado 913019" d="M31.2,12.5H4.01a1.387,1.387,0,0,0-1.387,1.387V54.914" transform="translate(-2.624 -1.04)" fill="none" stroke="#000" stroke-linecap="round" stroke-linejoin="round" stroke-miterlimit="10" stroke-width="2.08"/>
        <g id="Grupo_1101912" data-name="Grupo 1101912" transform="translate(16.702 24.753)">
          <g id="Grupo_1101911" data-name="Grupo 1101911">
            <line id="Línea_675" data-name="Línea 675" x2="19.304" fill="#fff" stroke="#000" stroke-linecap="round" stroke-linejoin="round" stroke-miterlimit="10" stroke-width="2.08"/>
            <line id="Línea_676" data-name="Línea 676" x2="12.027" transform="translate(0 4.373)" fill="#fff" stroke="#000" stroke-linecap="round" stroke-linejoin="round" stroke-miterlimit="10" stroke-width="2.08"/>
            <line id="Línea_677" data-name="Línea 677" x2="3.506" transform="translate(15.797 4.373)" fill="#fff" stroke="#000" stroke-linecap="round" stroke-linejoin="round" stroke-miterlimit="10" stroke-width="2.08"/>
          </g>
        </g>
        <g id="Grupo_1101914" data-name="Grupo 1101914" transform="translate(6.975 34.895)">
          <path id="Trazado_913020" data-name="Trazado 913020" d="M14.461,41.214H10.014A.416.416,0,0,1,9.6,40.8V36.351a.416.416,0,0,1,.416-.416h4.446a.416.416,0,0,1,.416.416V40.8A.416.416,0,0,1,14.461,41.214Z" transform="translate(-9.598 -35.935)" fill="#fff" stroke="#000" stroke-linecap="round" stroke-linejoin="round" stroke-miterlimit="10" stroke-width="2.08"/>
          <g id="Grupo_1101913" data-name="Grupo 1101913" transform="translate(9.727 0.452)">
            <line id="Línea_678" data-name="Línea 678" x2="19.304" fill="#fff" stroke="#000" stroke-linecap="round" stroke-linejoin="round" stroke-miterlimit="10" stroke-width="2.08"/>
            <line id="Línea_679" data-name="Línea 679" x2="3.582" transform="translate(0 4.374)" fill="#fff" stroke="#000" stroke-linecap="round" stroke-linejoin="round" stroke-miterlimit="10" stroke-width="2.08"/>
            <line id="Línea_680" data-name="Línea 680" x2="11.952" transform="translate(7.352 4.374)" fill="#fff" stroke="#000" stroke-linecap="round" stroke-linejoin="round" stroke-miterlimit="10" stroke-width="2.08"/>
          </g>
        </g>
        <g id="Grupo_1101916" data-name="Grupo 1101916" transform="translate(6.975 45.49)">
          <path id="Trazado_913021" data-name="Trazado 913021" d="M14.461,51.808H10.014a.416.416,0,0,1-.416-.416V46.946a.416.416,0,0,1,.416-.416h4.446a.416.416,0,0,1,.416.416v4.446A.416.416,0,0,1,14.461,51.808Z" transform="translate(-9.598 -46.53)" fill="#fff" stroke="#000" stroke-linecap="round" stroke-linejoin="round" stroke-miterlimit="10" stroke-width="2.08"/>
          <g id="Grupo_1101915" data-name="Grupo 1101915" transform="translate(9.727 0.452)">
            <line id="Línea_681" data-name="Línea 681" x2="19.304" fill="#fff" stroke="#000" stroke-linecap="round" stroke-linejoin="round" stroke-miterlimit="10" stroke-width="2.08"/>
            <line id="Línea_682" data-name="Línea 682" x2="19.304" transform="translate(0 4.374)" fill="#fff" stroke="#000" stroke-linecap="round" stroke-linejoin="round" stroke-miterlimit="10" stroke-width="2.08"/>
          </g>
        </g>
        <g id="Grupo_1101918" data-name="Grupo 1101918" transform="translate(6.975 56.084)">
          <path id="Trazado_913022" data-name="Trazado 913022" d="M14.461,62.4H10.014a.416.416,0,0,1-.416-.416V57.54a.416.416,0,0,1,.416-.416h4.446a.416.416,0,0,1,.416.416v4.446A.416.416,0,0,1,14.461,62.4Z" transform="translate(-9.598 -57.124)" fill="#fff" stroke="#000" stroke-linecap="round" stroke-linejoin="round" stroke-miterlimit="10" stroke-width="2.08"/>
          <g id="Grupo_1101917" data-name="Grupo 1101917" transform="translate(9.727 0.452)">
            <line id="Línea_683" data-name="Línea 683" x2="19.304" fill="#fff" stroke="#000" stroke-linecap="round" stroke-linejoin="round" stroke-miterlimit="10" stroke-width="2.08"/>
            <line id="Línea_684" data-name="Línea 684" x2="7.201" transform="translate(0 4.373)" fill="#fff" stroke="#000" stroke-linecap="round" stroke-linejoin="round" stroke-miterlimit="10" stroke-width="2.08"/>
            <line id="Línea_685" data-name="Línea 685" x1="8.332" transform="translate(10.971 4.373)" fill="#fff" stroke="#000" stroke-linecap="round" stroke-linejoin="round" stroke-miterlimit="10" stroke-width="2.08"/>
          </g>
        </g>
        <path id="Trazado_913023" data-name="Trazado 913023" d="M9.184,26.887l2.564,2.564,4.072-5.429" transform="translate(-2.624 -1.04)" fill="none" stroke="#000" stroke-linecap="round" stroke-linejoin="round" stroke-miterlimit="10" stroke-width="2.08"/>
        <line id="Línea_686" data-name="Línea 686" x2="5.824" transform="translate(48.166 25.487)" fill="none" stroke="#000" stroke-linecap="round" stroke-linejoin="round" stroke-miterlimit="10" stroke-width="2.08"/>
        <line id="Línea_687" data-name="Línea 687" x2="12.065" transform="translate(48.166 30.313)" fill="none" stroke="#000" stroke-linecap="round" stroke-linejoin="round" stroke-miterlimit="10" stroke-width="2.08"/>
        <line id="Línea_688" data-name="Línea 688" x2="12.065" transform="translate(48.166 35.139)" fill="none" stroke="#000" stroke-linecap="round" stroke-linejoin="round" stroke-miterlimit="10" stroke-width="2.08"/>
        <line id="Línea_689" data-name="Línea 689" x2="12.065" transform="translate(48.166 39.965)" fill="none" stroke="#000" stroke-linecap="round" stroke-linejoin="round" stroke-miterlimit="10" stroke-width="2.08"/>
        <line id="Línea_690" data-name="Línea 690" x2="2.322" transform="translate(48.166 44.79)" fill="none" stroke="#000" stroke-linecap="round" stroke-linejoin="round" stroke-miterlimit="10" stroke-width="2.08"/>
        <line id="Línea_691" data-name="Línea 691" x2="6.275" transform="translate(53.956 44.79)" fill="none" stroke="#000" stroke-linecap="round" stroke-linejoin="round" stroke-miterlimit="10" stroke-width="2.08"/>
        <line id="Línea_692" data-name="Línea 692" x2="12.065" transform="translate(48.166 49.616)" fill="none" stroke="#000" stroke-linecap="round" stroke-linejoin="round" stroke-miterlimit="10" stroke-width="2.08"/>
        <circle id="Elipse_11558" data-name="Elipse 11558" cx="6.972" cy="6.972" r="6.972" transform="translate(47.227 5.963)" fill="#ffd15b"/>
        <path id="Trazado_913024" data-name="Trazado 913024" d="M50.1,15.809a6.97,6.97,0,1,0,.441-4.853" transform="translate(-2.624 -1.04)" fill="none" stroke="#000" stroke-linecap="round" stroke-linejoin="round" stroke-miterlimit="10" stroke-width="2.08"/>
        <path id="Trazado_913025" data-name="Trazado 913025" d="M56.822,13.975v6.972a6.972,6.972,0,0,0,6.972-6.972H56.822Z" transform="translate(-2.624 -1.04)" fill="#fd6930"/>
        <path id="Trazado_913026" data-name="Trazado 913026" d="M56.822,13.975v6.972a6.972,6.972,0,0,0,6.972-6.972H56.822Z" transform="translate(-2.624 -1.04)" fill="none" stroke="#000" stroke-linecap="round" stroke-linejoin="round" stroke-miterlimit="10" stroke-width="2.08"/>
        <line id="Línea_693" data-name="Línea 693" x1="14.628" transform="translate(28.352 5.963)" fill="none" stroke="#000" stroke-linecap="round" stroke-linejoin="round" stroke-miterlimit="10" stroke-width="2.08"/>
        <line id="Línea_694" data-name="Línea 694" x2="2.773" transform="translate(57.458 25.487)" fill="none" stroke="#000" stroke-linecap="round" stroke-linejoin="round" stroke-miterlimit="10" stroke-width="2.08"/>
        <line id="Línea_695" data-name="Línea 695" x2="19.523" transform="translate(6.975 18.235)" fill="none" stroke="#000" stroke-linecap="round" stroke-linejoin="round" stroke-miterlimit="10" stroke-width="2.08"/>
        <line id="Línea_696" data-name="Línea 696" x2="1.049" transform="translate(34.957 18.235)" fill="none" stroke="#000" stroke-linecap="round" stroke-linejoin="round" stroke-miterlimit="10" stroke-width="2.08"/>
        <line id="Línea_697" data-name="Línea 697" x2="1.049" transform="translate(30.302 18.235)" fill="none" stroke="#000" stroke-linecap="round" stroke-linejoin="round" stroke-miterlimit="10" stroke-width="2.08"/>
      </g>
    </g>
  </g>
</svg>
