<svg xmlns="http://www.w3.org/2000/svg" width="82" height="68" viewBox="0 0 82 68">
  <g id="_27" data-name="27" transform="translate(-203.051 -577)">
    <g id="_27-2" data-name="27" transform="translate(221.062 577)">
      <g id="Grupo_1107654" data-name="Grupo 1107654" transform="translate(0 0)">
        <path id="Trazado_915548" data-name="Trazado 915548" d="M322.88,54.206a1.124,1.124,0,0,0,1.589,0,11.194,11.194,0,0,0,0-15.814,1.124,1.124,0,1,0-1.589,1.589,8.946,8.946,0,0,1,0,12.636A1.123,1.123,0,0,0,322.88,54.206Z" transform="translate(-291.882 -32.36)" fill="#73c8e2"/>
        <path id="Trazado_915549" data-name="Trazado 915549" d="M347.2,33.985a1.124,1.124,0,0,0,1.589,1.589,16.837,16.837,0,0,0,0-23.785,1.124,1.124,0,1,0-1.589,1.589A14.587,14.587,0,0,1,347.2,33.985Z" transform="translate(-313.464 -9.744)" fill="#73c8e2"/>
        <path id="Trazado_915550" data-name="Trazado 915550" d="M297.487,71.988a1.124,1.124,0,0,0,1.589,0,5.8,5.8,0,0,0,0-8.205,1.124,1.124,0,1,0-1.589,1.589,3.555,3.555,0,0,1,0,5.027A1.124,1.124,0,0,0,297.487,71.988Z" transform="translate(-269.801 -53.947)" fill="#73c8e2"/>
        <path id="Trazado_915551" data-name="Trazado 915551" d="M158.087,54.206a1.124,1.124,0,0,0,1.589-1.589,8.946,8.946,0,0,1,0-12.636,1.124,1.124,0,0,0-1.589-1.589,11.194,11.194,0,0,0,0,15.814Z" transform="translate(-146.737 -32.36)" fill="#73c8e2"/>
        <path id="Trazado_915552" data-name="Trazado 915552" d="M125.209,90.138A1.124,1.124,0,0,0,126,88.22a14.532,14.532,0,0,1-4.19-11.734,1.124,1.124,0,1,0-2.237-.219,16.772,16.772,0,0,0,4.838,13.543A1.12,1.12,0,0,0,125.209,90.138Z" transform="translate(-115.797 -63.529)" fill="#73c8e2"/>
        <path id="Trazado_915553" data-name="Trazado 915553" d="M130.248,17.954a1.122,1.122,0,0,0,1.5-.533A14.494,14.494,0,0,1,134.6,13.38a1.124,1.124,0,1,0-1.589-1.589,16.731,16.731,0,0,0-3.3,4.666,1.123,1.123,0,0,0,.533,1.5Z" transform="translate(-122.081 -9.745)" fill="#73c8e2"/>
        <path id="Trazado_915554" data-name="Trazado 915554" d="M193.19,72.319a1.124,1.124,0,0,0,.795-1.918,3.555,3.555,0,0,1,0-5.027,1.124,1.124,0,1,0-1.589-1.589,5.8,5.8,0,0,0,0,8.205A1.121,1.121,0,0,0,193.19,72.319Z" transform="translate(-177.733 -53.949)" fill="#73c8e2"/>
        <ellipse id="Elipse_11573" data-name="Elipse 11573" cx="1.124" cy="1.124" rx="1.124" ry="1.124" transform="translate(18.244 22.533)" fill="#73c8e2"/>
        <path id="Trazado_915555" data-name="Trazado 915555" d="M137.049,62.09h-3.092a1,1,0,1,0,0,1.992h2.751v1.926H96.859V64.082H129.05a1,1,0,1,0,0-1.992H126.4l-3.176-24.156a8.018,8.018,0,0,0,7.229-4.885.988.988,0,0,0-.561-1.3,1.032,1.032,0,0,0-1.332.547,5.851,5.851,0,1,1,.131-4.068,1.029,1.029,0,0,0,1.294.628.99.99,0,0,0,.644-1.261A8.029,8.029,0,0,0,123,22.246a8.178,8.178,0,0,0-3.372.724,5.307,5.307,0,0,0-1.818-3.363V16.129a3.878,3.878,0,0,0,0-7.545V7.112h.547a1,1,0,1,0,0-1.992h-.547V4.206h.263a1,1,0,1,0,0-1.992h-.263V1a1.023,1.023,0,0,0-2.044,0V2.214H115.5a1,1,0,1,0,0,1.992h.263V5.12h-.547a1,1,0,1,0,0,1.992h.547V8.583a3.878,3.878,0,0,0,0,7.545v2.363a5.608,5.608,0,0,0-1.592-.23,5.433,5.433,0,0,0-5.5,5.355,5.344,5.344,0,0,0,2.927,4.732l-.341,2.6h-1.9V28.82a1.415,1.415,0,0,0-1.431-1.395h-2.59A1.415,1.415,0,0,0,103.9,28.82v6.242a1.415,1.415,0,0,0,1.431,1.395h2.59a1.415,1.415,0,0,0,1.431-1.395V32.937H111L107.165,62.09H96.519a1.684,1.684,0,0,0-1.7,1.66v2.59a1.684,1.684,0,0,0,1.7,1.66h40.53a1.684,1.684,0,0,0,1.7-1.66V63.75A1.684,1.684,0,0,0,137.049,62.09ZM114.824,12.356a1.961,1.961,0,1,1,1.96,1.91A1.938,1.938,0,0,1,114.824,12.356Zm-7.513,22.109h-1.363V29.418h1.363Zm5.3,1.88,2.873,3.563-3.992,4.951ZM112.365,47l4.419-5.48L121.2,47a1.01,1.01,0,0,0,.323.262L116.784,53.3l-4.742-6.033A1.012,1.012,0,0,0,112.365,47Zm9.711-2.141-3.992-4.951,2.014-2.5a8.128,8.128,0,0,0,1.04.315Zm-.955,17.231h-8.675l4.338-5.518Zm2.575,0-5.625-7.156,4.566-5.808,1.7,12.965Zm-5.42-25.646L116.784,38.3,114,34.838a1.011,1.011,0,0,0-.169-.165l1.632-1.825A7.91,7.91,0,0,0,118.277,36.444Zm-4.107-16.19a3.412,3.412,0,0,1,3.451,3.363,3.283,3.283,0,0,1-.078.708,7.911,7.911,0,0,0-1.745,2.256,3.5,3.5,0,0,1-1.629.4,3.364,3.364,0,1,1,0-6.726Zm0,8.718a5.611,5.611,0,0,0,.866-.068,7.684,7.684,0,0,0-.092,1.188c0,.1,0,.194.008.291l-1.825,2.04.458-3.482A5.64,5.64,0,0,0,114.17,28.972Zm-3.239,20.153,4.566,5.808-5.625,7.156h-.645Z" transform="translate(-94.815 0)" fill="#73c8e2"/>
        <path id="Trazado_915556" data-name="Trazado 915556" d="M280.009,208.241a3.231,3.231,0,1,0,3.231-3.231A3.235,3.235,0,0,0,280.009,208.241Zm4.215,0a.984.984,0,1,1-.984-.984A.985.985,0,0,1,284.224,208.241Z" transform="translate(-255.155 -178.103)" fill="#73c8e2"/>
      </g>
    </g>
    <rect id="Rectángulo_405226" data-name="Rectángulo 405226" width="82" height="68" transform="translate(203.051 577)" fill="none"/>
  </g>
</svg>
