<svg xmlns="http://www.w3.org/2000/svg" width="74" height="74" viewBox="0 0 74 74">
  <g id="_30" data-name="30" transform="translate(-431.706 -2789.5)">
    <circle id="Elipse_11521" data-name="Elipse 11521" cx="37" cy="37" r="37" transform="translate(431.706 2789.5)" fill="#fbfbf9"/>
    <path id="especifico" d="M56.059,29A4.608,4.608,0,0,1,52.8,21.134a2.276,2.276,0,0,0,0-3.215l-3.39-3.389a2.274,2.274,0,0,0-3.215,0,4.608,4.608,0,0,1-7.862-3.256A2.276,2.276,0,0,0,36.063,9H31.269A2.276,2.276,0,0,0,29,11.273a4.608,4.608,0,0,1-7.862,3.256,2.274,2.274,0,0,0-3.215,0L14.53,17.919a2.274,2.274,0,0,0,0,3.215A4.608,4.608,0,0,1,11.273,29,2.276,2.276,0,0,0,9,31.269v4.793a2.276,2.276,0,0,0,2.273,2.273A4.608,4.608,0,0,1,14.53,46.2a2.274,2.274,0,0,0,0,3.215L17.919,52.8a2.274,2.274,0,0,0,3.215,0A4.605,4.605,0,0,1,29,56.059a2.276,2.276,0,0,0,2.273,2.273h4.793a2.276,2.276,0,0,0,2.273-2.273A4.608,4.608,0,0,1,46.2,52.8a2.274,2.274,0,0,0,3.215,0L52.8,49.413a2.276,2.276,0,0,0,0-3.215,4.608,4.608,0,0,1,3.256-7.862,2.276,2.276,0,0,0,2.273-2.273V31.269A2.276,2.276,0,0,0,56.059,29Zm.875,7.067a.876.876,0,0,1-.875.875,6.006,6.006,0,0,0-4.245,10.248.876.876,0,0,1,0,1.238l-3.389,3.389a.876.876,0,0,1-1.238,0,6.006,6.006,0,0,0-10.248,4.245.876.876,0,0,1-.875.875H31.269a.876.876,0,0,1-.875-.875,5.91,5.91,0,0,0-3.706-5.546,6.093,6.093,0,0,0-2.336-.472,5.921,5.921,0,0,0-4.207,1.773.876.876,0,0,1-1.238,0l-3.39-3.389a.876.876,0,0,1,0-1.238,6.006,6.006,0,0,0-4.245-10.248.876.876,0,0,1-.875-.875V31.269a.876.876,0,0,1,.875-.875,6.006,6.006,0,0,0,4.245-10.248.876.876,0,0,1,0-1.238l3.389-3.389a.876.876,0,0,1,1.238,0,6.006,6.006,0,0,0,10.248-4.245.876.876,0,0,1,.875-.875h4.793a.876.876,0,0,1,.875.875,6.006,6.006,0,0,0,10.248,4.245.876.876,0,0,1,1.238,0l3.389,3.389a.876.876,0,0,1,0,1.238,6.006,6.006,0,0,0,4.245,10.248.876.876,0,0,1,.875.875ZM33.666,18.99A14.676,14.676,0,1,0,48.342,33.666,14.693,14.693,0,0,0,33.666,18.99Zm0,27.955A13.278,13.278,0,1,1,46.944,33.666,13.293,13.293,0,0,1,33.666,46.944Zm0-17.676a4.4,4.4,0,1,0,4.4,4.4,4.4,4.4,0,0,0-4.4-4.4Zm0,7.4a3,3,0,1,1,3-3A3,3,0,0,1,33.666,36.666ZM31.239,26.124a.7.7,0,0,1,.989-.989l.739.739V22.093a.7.7,0,1,1,1.4,0v3.782l.739-.74a.7.7,0,1,1,.989.989L34.16,28.057a.7.7,0,0,1-.989,0Zm-3.182,7.048a.7.7,0,0,1,0,.989l-1.933,1.933a.7.7,0,0,1-.989-.989l.739-.739H22.093a.7.7,0,0,1,0-1.4h3.782l-.74-.74a.7.7,0,0,1,.989-.989Zm8.036,8.036a.7.7,0,1,1-.988.989l-.74-.739v3.782a.7.7,0,0,1-1.4,0V41.457l-.739.739a.7.7,0,0,1-.989-.989l1.933-1.933a.7.7,0,0,1,.989,0Zm5.364-8.241h3.782a.7.7,0,1,1,0,1.4H41.457l.739.739a.7.7,0,0,1-.989.989L39.275,34.16a.7.7,0,0,1,0-.989l1.933-1.933a.7.7,0,0,1,.989.989Z" transform="translate(435.04 2792.834)" fill="#692cb7"/>
  </g>
</svg>
