<svg xmlns="http://www.w3.org/2000/svg" xmlns:xlink="http://www.w3.org/1999/xlink" width="295" height="255.5" viewBox="0 0 295 255.5">
  <defs>
    <clipPath id="clip-path">
      <rect id="Rectángulo_405187" data-name="Rectángulo 405187" width="269.898" height="207.314" fill="none"/>
    </clipPath>
    <clipPath id="clip-path-3">
      <rect id="Rectángulo_405166" data-name="Rectángulo 405166" width="269.898" height="204.099" fill="none"/>
    </clipPath>
    <clipPath id="clip-path-4">
      <rect id="Rectángulo_405167" data-name="Rectángulo 405167" width="256.289" height="4.44" fill="none"/>
    </clipPath>
    <clipPath id="clip-path-5">
      <rect id="Rectángulo_405169" data-name="Rectángulo 405169" width="2.336" height="0.258" fill="none"/>
    </clipPath>
    <clipPath id="clip-path-6">
      <rect id="Rectángulo_405170" data-name="Rectángulo 405170" width="8.971" height="14.071" fill="none"/>
    </clipPath>
    <clipPath id="clip-path-7">
      <rect id="Rectángulo_405171" data-name="Rectángulo 405171" width="6.516" height="3.911" fill="none"/>
    </clipPath>
    <clipPath id="clip-path-8">
      <rect id="Rectángulo_405172" data-name="Rectángulo 405172" width="6.108" height="4.429" fill="none"/>
    </clipPath>
    <clipPath id="clip-path-9">
      <rect id="Rectángulo_405173" data-name="Rectángulo 405173" width="22.859" height="13.708" fill="none"/>
    </clipPath>
    <clipPath id="clip-path-10">
      <rect id="Rectángulo_405174" data-name="Rectángulo 405174" width="3.526" height="1.263" fill="none"/>
    </clipPath>
    <clipPath id="clip-path-11">
      <rect id="Rectángulo_405175" data-name="Rectángulo 405175" width="0.384" height="1.672" fill="none"/>
    </clipPath>
    <clipPath id="clip-path-12">
      <rect id="Rectángulo_405176" data-name="Rectángulo 405176" width="0.378" height="1.115" fill="none"/>
    </clipPath>
    <clipPath id="clip-path-13">
      <rect id="Rectángulo_405177" data-name="Rectángulo 405177" width="0.493" height="1.858" fill="none"/>
    </clipPath>
    <clipPath id="clip-path-14">
      <rect id="Rectángulo_405178" data-name="Rectángulo 405178" width="4.051" height="3.865" fill="none"/>
    </clipPath>
    <clipPath id="clip-path-15">
      <rect id="Rectángulo_405179" data-name="Rectángulo 405179" width="6.689" height="4.571" fill="none"/>
    </clipPath>
    <clipPath id="clip-path-16">
      <rect id="Rectángulo_405180" data-name="Rectángulo 405180" width="8.399" height="6.913" fill="none"/>
    </clipPath>
    <clipPath id="clip-path-17">
      <rect id="Rectángulo_405181" data-name="Rectángulo 405181" width="1.115" height="1.19" fill="none"/>
    </clipPath>
    <clipPath id="clip-path-18">
      <rect id="Rectángulo_405182" data-name="Rectángulo 405182" width="1.118" height="1.152" fill="none"/>
    </clipPath>
    <clipPath id="clip-path-19">
      <rect id="Rectángulo_405183" data-name="Rectángulo 405183" width="2.826" height="0.805" fill="none"/>
    </clipPath>
    <clipPath id="clip-path-20">
      <rect id="Rectángulo_405184" data-name="Rectángulo 405184" width="4.422" height="1.407" fill="none"/>
    </clipPath>
    <clipPath id="clip-path-21">
      <rect id="Rectángulo_405185" data-name="Rectángulo 405185" width="29.558" height="15.031" fill="none"/>
    </clipPath>
  </defs>
  <g id="_48" data-name="48" transform="translate(-1125 -3499.183)">
    <rect id="_48-2" data-name="48" width="295" height="255.5" rx="10" transform="translate(1125 3499.183)" fill="#c6e9f3"/>
    <g id="Grupo_1107642" data-name="Grupo 1107642" transform="translate(1150.102 3517)">
      <g id="Grupo_1107641" data-name="Grupo 1107641" transform="translate(-13 3)" clip-path="url(#clip-path)">
        <g id="Grupo_1107640" data-name="Grupo 1107640" transform="translate(0 0)">
          <g id="Grupo_1107639" data-name="Grupo 1107639" clip-path="url(#clip-path)">
            <g id="Grupo_1107584" data-name="Grupo 1107584" transform="translate(0 0)" opacity="0.2">
              <g id="Grupo_1107583" data-name="Grupo 1107583">
                <g id="Grupo_1107582" data-name="Grupo 1107582" clip-path="url(#clip-path-3)">
                  <path id="Trazado_915435" data-name="Trazado 915435" d="M247.257,271.147a.616.616,0,0,1-.185-.029,11.156,11.156,0,0,1-2.878-1.482.613.613,0,1,1,.695-1.01,10.092,10.092,0,0,0,2.554,1.323.613.613,0,0,1-.185,1.2m2.886-.371a.613.613,0,0,1-.4-1.076,5.774,5.774,0,0,0,1.414-2.336.613.613,0,0,1,1.15.426,6.853,6.853,0,0,1-1.76,2.837.612.612,0,0,1-.4.15m-7.969-2.98a.611.611,0,0,1-.425-.171,21.855,21.855,0,0,1-2.108-2.346.613.613,0,0,1,.969-.751,20.63,20.63,0,0,0,1.989,2.214.613.613,0,0,1-.425,1.054m10.316-2.573a.613.613,0,0,1-.605-.714,23.485,23.485,0,0,0,.3-2.971.613.613,0,1,1,1.225.046,24.7,24.7,0,0,1-.312,3.127.613.613,0,0,1-.6.512m-14.043-2.271a.613.613,0,0,1-.54-.322,14.2,14.2,0,0,1-1.209-2.961.613.613,0,1,1,1.182-.324,12.993,12.993,0,0,0,1.106,2.7.613.613,0,0,1-.539.9m14.279-3.843a.613.613,0,0,1-.61-.563,21.072,21.072,0,0,0-.444-2.943.613.613,0,1,1,1.2-.273,22.284,22.284,0,0,1,.471,3.115.613.613,0,0,1-.561.661l-.051,0m-15.765-2.02-.047,0a.613.613,0,0,1-.565-.657,7.415,7.415,0,0,1,.681-2.615c.087-.184.184-.369.288-.551a.613.613,0,1,1,1.062.612c-.088.152-.169.307-.241.461a6.193,6.193,0,0,0-.567,2.185.613.613,0,0,1-.611.567m14.341-3.912a.613.613,0,0,1-.556-.353,7.082,7.082,0,0,0-1.609-2.291.613.613,0,0,1,.82-.911,8.289,8.289,0,0,1,1.9,2.683.613.613,0,0,1-.555.873m-11.469-1.311a.613.613,0,0,1-.395-1.082,11.7,11.7,0,0,1,2.74-1.707.613.613,0,1,1,.5,1.12,10.468,10.468,0,0,0-2.449,1.526.611.611,0,0,1-.394.144m8.535-1.968a.613.613,0,0,1-.26-.058,4.8,4.8,0,0,0-2.057-.42c-.2,0-.411.01-.621.029a.613.613,0,1,1-.114-1.221c.248-.023.5-.035.735-.035a6.016,6.016,0,0,1,2.579.537.613.613,0,0,1-.261,1.168" transform="translate(-187.948 -197.37)" fill="#0f31ac"/>
                  <path id="Trazado_915436" data-name="Trazado 915436" d="M103.435,335.728h-.012a31.049,31.049,0,0,1-3.118-.215.613.613,0,1,1,.148-1.217,29.87,29.87,0,0,0,2.995.206.613.613,0,0,1-.012,1.226m3.064-.08a.613.613,0,0,1-.043-1.224c1-.07,2-.185,2.993-.341a.613.613,0,1,1,.191,1.211c-1.023.162-2.066.281-3.1.353H106.5m-9.134-.677a.61.61,0,0,1-.147-.018,20.593,20.593,0,0,1-3-.98.613.613,0,0,1,.473-1.131,19.381,19.381,0,0,0,2.821.922.613.613,0,0,1-.147,1.208m15.183-.282a.613.613,0,0,1-.149-1.208,28.934,28.934,0,0,0,2.87-.877.613.613,0,1,1,.421,1.151,30.1,30.1,0,0,1-2.992.915.611.611,0,0,1-.15.019m-20.792-2.114a.611.611,0,0,1-.344-.106A12.689,12.689,0,0,1,89,330.353a.613.613,0,1,1,.922-.809,11.46,11.46,0,0,0,2.182,1.911.613.613,0,0,1-.345,1.12m26.526-.021a.613.613,0,0,1-.29-1.154,12.527,12.527,0,0,0,2.412-1.636.613.613,0,1,1,.815.916,13.734,13.734,0,0,1-2.648,1.8.61.61,0,0,1-.289.073m4.287-4.183a.613.613,0,0,1-.582-.8,3.549,3.549,0,0,0,.174-1.113,5,5,0,0,0-.257-1.518.613.613,0,0,1,1.168-.374,6.224,6.224,0,0,1,.316,1.892,4.777,4.777,0,0,1-.235,1.5.613.613,0,0,1-.582.421m-34.8-.358a.613.613,0,0,1-.551-.343,14.591,14.591,0,0,1-1.076-3.007.613.613,0,1,1,1.192-.287,13.361,13.361,0,0,0,.985,2.754.613.613,0,0,1-.55.883m33.312-5.366a.612.612,0,0,1-.5-.264,19.463,19.463,0,0,0-1.892-2.289.613.613,0,0,1,.888-.846,20.676,20.676,0,0,1,2.011,2.435.613.613,0,0,1-.5.963M86.329,322.1a.613.613,0,0,1-.612-.591c-.007-.187-.01-.376-.01-.562a15.329,15.329,0,0,1,.223-2.617.613.613,0,1,1,1.208.209,14.157,14.157,0,0,0-.2,2.408c0,.172,0,.346.009.518a.613.613,0,0,1-.591.634h-.022m30.573-3.92a.61.61,0,0,1-.4-.147c-.749-.641-1.546-1.269-2.371-1.865a.613.613,0,1,1,.718-.993c.851.616,1.676,1.264,2.45,1.927a.613.613,0,0,1-.4,1.078m-29.5-2.065a.613.613,0,0,1-.562-.857,11.41,11.41,0,0,1,1.678-2.757.613.613,0,1,1,.943.783,10.189,10.189,0,0,0-1.5,2.461.613.613,0,0,1-.563.37m24.534-1.521a.61.61,0,0,1-.313-.086l-.306-.18c-.839-.486-1.74-.958-2.675-1.4a.613.613,0,1,1,.527-1.107c.965.459,1.895.947,2.762,1.448l.32.188a.613.613,0,0,1-.314,1.14m-5.849-2.82a.609.609,0,0,1-.22-.041c-.969-.372-1.93-.692-2.855-.951a.613.613,0,1,1,.331-1.181c.961.27,1.958.6,2.963.987a.613.613,0,0,1-.22,1.185m-14.8-.278a.613.613,0,0,1-.325-1.133A10.617,10.617,0,0,1,93.94,309.1a.613.613,0,0,1,.3,1.188,9.384,9.384,0,0,0-2.64,1.114.612.612,0,0,1-.324.093m8.9-1.348a.636.636,0,0,1-.094-.007,18.051,18.051,0,0,0-2.726-.22l-.226,0h-.009a.613.613,0,0,1-.009-1.226l.244,0a19.3,19.3,0,0,1,2.912.234.613.613,0,0,1-.092,1.219" transform="translate(-68.156 -245.48)" fill="#0f31ac"/>
                  <path id="Trazado_915437" data-name="Trazado 915437" d="M43.114,267.329a.613.613,0,0,1,0-1.226c.995,0,2.02-.017,3.049-.046a.613.613,0,0,1,.034,1.225c-1.039.029-2.075.045-3.08.046Zm-3.064-.038h-.017c-1.04-.028-2.076-.072-3.079-.131a.613.613,0,1,1,.072-1.224c.991.058,2.013.1,3.04.129a.613.613,0,0,1-.016,1.226m9.19-.131a.613.613,0,0,1-.031-1.225c1-.052,2.021-.116,3.045-.191a.613.613,0,1,1,.09,1.223c-1.033.076-2.067.14-3.072.192h-.032m-15.3-.231-.058,0c-1.038-.1-2.07-.215-3.066-.349a.613.613,0,1,1,.163-1.215c.98.131,1.995.247,3.017.343a.613.613,0,0,1-.057,1.223m21.415-.216a.613.613,0,0,1-.056-1.223c.994-.093,2.016-.2,3.038-.312a.613.613,0,0,1,.136,1.218c-1.029.115-2.058.221-3.06.315l-.058,0m4.6-.494a.613.613,0,0,1-.147-1.208q1.481-.368,2.976-.736a.613.613,0,0,1,.293,1.191q-1.493.367-2.973.735a.606.606,0,0,1-.148.018m-32.081-.109a.6.6,0,0,1-.109-.01c-1.03-.185-2.049-.395-3.028-.622a.613.613,0,1,1,.277-1.194c.959.223,1.957.428,2.967.61a.613.613,0,0,1-.108,1.216M65.9,264.757a.613.613,0,0,1-.144-1.209c1.014-.246,2.017-.488,2.981-.719a.613.613,0,0,1,.285,1.192c-.963.23-1.964.472-2.977.718a.622.622,0,0,1-.145.017m-43.99-.038a.618.618,0,0,1-.173-.025c-1.009-.3-2-.622-2.944-.968a.613.613,0,1,1,.422-1.151c.92.337,1.885.654,2.868.943a.613.613,0,0,1-.172,1.2m49.95-1.387a.613.613,0,0,1-.14-1.21c1-.236,2.009-.47,2.988-.694a.613.613,0,0,1,.275,1.195c-.976.224-1.98.458-2.982.693a.616.616,0,0,1-.141.016m-55.689-.725a.61.61,0,0,1-.253-.055c-.962-.436-1.9-.908-2.777-1.4a.613.613,0,0,1,.6-1.069c.851.478,1.754.934,2.683,1.356a.613.613,0,0,1-.254,1.171m61.662-.647a.613.613,0,0,1-.134-1.211c1.006-.226,2.013-.449,3-.663a.613.613,0,0,1,.262,1.2c-.98.214-1.985.437-2.989.662a.609.609,0,0,1-.135.015m5.987-1.308a.613.613,0,0,1-.127-1.213c1.009-.214,2.019-.425,3-.627a.613.613,0,0,1,.247,1.2c-.982.2-1.99.412-3,.625a.606.606,0,0,1-.128.014M10.854,259.6a.61.61,0,0,1-.35-.11,28.709,28.709,0,0,1-2.465-1.922.613.613,0,0,1,.807-.923,27.508,27.508,0,0,0,2.359,1.84.613.613,0,0,1-.351,1.116m78.975-.186a.613.613,0,0,1-.119-1.214c1-.2,2.017-.4,3.012-.586a.613.613,0,0,1,.23,1.2c-.993.189-2,.386-3,.584a.615.615,0,0,1-.12.012m6.02-1.149a.613.613,0,0,1-.11-1.216c1-.184,2.018-.366,3.02-.542a.613.613,0,1,1,.212,1.207c-1,.175-2.013.358-3.012.541a.625.625,0,0,1-.111.01m6.036-1.06a.613.613,0,0,1-.1-1.218c1-.168,2.023-.335,3.029-.5a.613.613,0,0,1,.193,1.211c-1,.16-2.018.326-3.019.494a.617.617,0,0,1-.1.008m6.052-.966a.613.613,0,0,1-.091-1.219c1.008-.153,2.03-.3,3.036-.448a.613.613,0,0,1,.174,1.214c-1,.144-2.022.294-3.027.446a.623.623,0,0,1-.093.007M6.262,255.578a.612.612,0,0,1-.456-.2,24.3,24.3,0,0,1-1.945-2.466.613.613,0,0,1,1.01-.695,23.042,23.042,0,0,0,1.846,2.341.613.613,0,0,1-.456,1.023m107.741-.2a.613.613,0,0,1-.082-1.22c1.008-.137,2.032-.271,3.043-.4a.613.613,0,1,1,.155,1.216c-1.008.128-2.029.262-3.033.4a.6.6,0,0,1-.083.006m6.08-.773a.613.613,0,0,1-.072-1.222c1.012-.121,2.038-.238,3.049-.35a.613.613,0,1,1,.135,1.218c-1.008.112-2.031.229-3.04.349a.587.587,0,0,1-.073,0m6.091-.676a.613.613,0,0,1-.062-1.223c1.011-.1,2.039-.206,3.054-.3a.613.613,0,0,1,.116,1.22c-1.012.1-2.037.2-3.045.3a.6.6,0,0,1-.063,0m6.1-.579a.613.613,0,0,1-.052-1.224c1.012-.088,2.041-.173,3.058-.254a.613.613,0,1,1,.1,1.222c-1.014.08-2.04.165-3.049.253l-.054,0m6.11-.484a.613.613,0,0,1-.043-1.224c1.011-.072,2.041-.142,3.062-.207a.613.613,0,0,1,.078,1.223c-1.018.065-2.045.135-3.053.207h-.044m6.117-.391a.613.613,0,0,1-.034-1.225c1.015-.057,2.046-.111,3.065-.161a.613.613,0,0,1,.06,1.225c-1.016.05-2.044.1-3.056.161H144.5m6.121-.3a.613.613,0,0,1-.025-1.226c1.013-.042,2.045-.082,3.067-.117a.613.613,0,1,1,.042,1.225c-1.019.035-2.048.075-3.058.117h-.026m33.705-.2h0c-.88,0-1.791-.018-2.707-.04l-.369-.009a.613.613,0,1,1,.029-1.226l.37.009c.908.022,1.811.036,2.683.04a.613.613,0,0,1,0,1.226m-27.58-.017a.613.613,0,0,1-.017-1.226c1.011-.028,2.043-.053,3.068-.074h.013a.613.613,0,0,1,.012,1.226c-1.022.021-2.051.046-3.059.074h-.017m30.642-.006a.613.613,0,0,1-.012-1.226c1.033-.021,2.056-.056,3.042-.1a.613.613,0,1,1,.06,1.224c-1,.049-2.033.085-3.077.106h-.013m-9.191-.089h-.011c-1.023-.018-2.053-.033-3.061-.045a.613.613,0,0,1,.007-1.226h.007c1.011.012,2.043.027,3.068.045a.613.613,0,0,1-.011,1.226m-15.324-.032a.613.613,0,0,1-.009-1.226c1.017-.014,2.049-.025,3.069-.033h0a.613.613,0,0,1,0,1.226c-1.016.008-2.046.019-3.06.033h-.009m9.194-.039h0c-.864,0-1.738-.007-2.6-.007h-.463a.613.613,0,0,1,0-1.226h.464c.863,0,1.739,0,2.6.007a.613.613,0,0,1,0,1.226m21.434-.144a.613.613,0,0,1-.05-1.224c1.026-.084,2.043-.186,3.023-.3a.613.613,0,1,1,.146,1.217c-.995.119-2.027.223-3.068.308l-.051,0m6.076-.732a.613.613,0,0,1-.1-1.218c1.008-.164,2.011-.35,2.981-.554a.613.613,0,0,1,.252,1.2c-.988.208-2.009.4-3.036.564a.626.626,0,0,1-.1.008M2.808,250.54a.613.613,0,0,1-.548-.338,22.421,22.421,0,0,1-1.213-2.907.613.613,0,0,1,1.162-.391,21.146,21.146,0,0,0,1.147,2.748.613.613,0,0,1-.547.888m202.759-.884a.613.613,0,0,1-.155-1.206c.974-.256,1.953-.54,2.908-.844a.613.613,0,1,1,.372,1.168c-.975.311-1.974.6-2.969.862a.614.614,0,0,1-.156.02m5.83-1.856a.613.613,0,0,1-.216-1.187c.925-.348,1.871-.729,2.811-1.133a.613.613,0,1,1,.485,1.126c-.958.412-1.922.8-2.865,1.155a.613.613,0,0,1-.215.039m5.624-2.414a.613.613,0,0,1-.266-1.166c.881-.423,1.77-.868,2.718-1.363a.613.613,0,0,1,.567,1.087c-.961.5-1.862.952-2.754,1.381a.609.609,0,0,1-.265.061M.867,244.741a.613.613,0,0,1-.6-.507A15.973,15.973,0,0,1,0,241.527c0-.138,0-.215,0-.224v-.021c.008-.091.016-.182.024-.273a.613.613,0,1,1,1.22.115c-.008.082-.015.163-.022.244,0,.02,0,.074,0,.158a14.891,14.891,0,0,0,.246,2.494.614.614,0,0,1-.6.719m221.587-2.176a.613.613,0,0,1-.3-1.15c.808-.446,1.679-.935,2.662-1.5a.613.613,0,0,1,.607,1.065c-.988.563-1.863,1.055-2.677,1.5a.612.612,0,0,1-.3.076m5.323-3.026a.613.613,0,0,1-.308-1.144l.981-.568,1.67-.966a.613.613,0,1,1,.613,1.062l-1.669.966-.981.568a.611.611,0,0,1-.306.083M1.149,238.663a.614.614,0,0,1-.6-.757,25.565,25.565,0,0,1,.928-3,.613.613,0,1,1,1.147.432,24.378,24.378,0,0,0-.883,2.852.613.613,0,0,1-.6.469m231.935-2.182a.613.613,0,0,1-.3-1.146c.945-.539,1.82-1.031,2.673-1.506a.613.613,0,0,1,.6,1.071c-.85.473-1.721.963-2.663,1.5a.611.611,0,0,1-.3.08m5.353-2.975a.613.613,0,0,1-.292-1.153c.911-.492,1.824-.976,2.713-1.439a.613.613,0,1,1,.566,1.087c-.884.46-1.791.941-2.7,1.43a.61.61,0,0,1-.291.074M3.284,232.933a.613.613,0,0,1-.548-.887c.448-.9.958-1.813,1.516-2.723a.613.613,0,0,1,1.046.64c-.539.88-1.032,1.766-1.465,2.631a.613.613,0,0,1-.549.339m240.578-2.272a.613.613,0,0,1-.291-1.153c.887-.477,1.773-.984,2.631-1.506a.613.613,0,1,1,.637,1.047c-.877.534-1.782,1.051-2.688,1.538a.609.609,0,0,1-.29.073M6.469,227.7a.613.613,0,0,1-.5-.969c.581-.813,1.213-1.643,1.879-2.467a.613.613,0,0,1,.954.77c-.651.806-1.269,1.617-1.835,2.41a.612.612,0,0,1-.5.257m242.627-.226a.613.613,0,0,1-.347-1.119c.832-.57,1.657-1.169,2.454-1.78a.613.613,0,0,1,.747.972c-.814.625-1.657,1.237-2.508,1.819a.61.61,0,0,1-.346.107m4.858-3.733a.613.613,0,0,1-.4-1.078c.766-.659,1.52-1.345,2.241-2.04a.613.613,0,0,1,.851.883c-.738.711-1.509,1.413-2.292,2.086a.611.611,0,0,1-.4.148m-243.641-.814a.613.613,0,0,1-.457-1.021c.665-.744,1.374-1.5,2.109-2.261a.613.613,0,0,1,.879.854c-.723.744-1.42,1.492-2.074,2.223a.611.611,0,0,1-.457.2m248.052-3.438a.613.613,0,0,1-.45-1.029c.687-.744,1.356-1.512,1.987-2.284a.613.613,0,1,1,.949.776c-.647.791-1.332,1.579-2.036,2.34a.611.611,0,0,1-.45.2m-243.784-.964a.613.613,0,0,1-.424-1.056c.719-.689,1.48-1.4,2.26-2.1a.613.613,0,1,1,.821.91c-.771.7-1.523,1.393-2.233,2.074a.61.61,0,0,1-.424.171m247.661-3.779a.613.613,0,0,1-.5-.971c.592-.825,1.158-1.67,1.681-2.513a.613.613,0,1,1,1.041.647c-.538.866-1.119,1.735-1.727,2.582a.613.613,0,0,1-.5.256m-243.11-.331a.613.613,0,0,1-.4-1.079c.755-.646,1.549-1.311,2.361-1.976a.613.613,0,1,1,.777.949c-.805.659-1.593,1.318-2.341,1.958a.611.611,0,0,1-.4.147m4.742-3.887a.613.613,0,0,1-.38-1.094c.779-.614,1.574-1.231,2.429-1.886a.613.613,0,1,1,.745.974c-.851.651-1.641,1.265-2.415,1.875a.61.61,0,0,1-.379.132m241.6-.988a.613.613,0,0,1-.542-.9c.474-.9.91-1.818,1.3-2.723a.613.613,0,1,1,1.127.483c-.4.934-.851,1.88-1.339,2.81a.613.613,0,0,1-.543.328M28.8,206.876a.613.613,0,0,1-.335-1.127c.886-.576,1.789-1.11,2.685-1.585a.613.613,0,1,1,.575,1.083c-.864.458-1.735.973-2.591,1.53a.61.61,0,0,1-.334.1m44.656-1.116h-.008c-1-.013-2.04-.066-3.105-.157a.613.613,0,0,1,.1-1.221c1.036.089,2.05.14,3.016.153a.613.613,0,0,1-.008,1.226m3.063-.091a.613.613,0,0,1-.045-1.224c1.008-.075,2.011-.2,2.983-.366a.613.613,0,0,1,.208,1.208c-1.01.174-2.053.3-3.1.38l-.046,0m-9.167-.417a.638.638,0,0,1-.088-.006c-.948-.136-1.945-.3-3.048-.5a.613.613,0,0,1,.22-1.206c1.087.2,2.069.36,3,.493a.613.613,0,0,1-.086,1.22m15.2-.628a.613.613,0,0,1-.164-1.2c.954-.266,1.912-.585,2.849-.949a.613.613,0,0,1,.444,1.143c-.974.378-1.972.71-2.964.986a.613.613,0,0,1-.165.023m-21.23-.455a.619.619,0,0,1-.123-.012q-.908-.185-1.814-.374l-1.189-.246a.613.613,0,0,1,.247-1.2l1.191.246q.9.187,1.81.373a.613.613,0,0,1-.122,1.214m-27.108-.152a.613.613,0,0,1-.232-1.181,29.471,29.471,0,0,1,2.954-1.029.613.613,0,0,1,.341,1.178,28.183,28.183,0,0,0-2.83.986.61.61,0,0,1-.232.046m233.667-.109a.613.613,0,0,1-.583-.8c.318-.97.585-1.944.794-2.9a.613.613,0,0,1,1.2.263c-.218.991-.5,2-.827,3.014a.613.613,0,0,1-.582.422m-212.567-.954a.619.619,0,0,1-.114-.011c-1.1-.206-2.079-.374-3-.513a.613.613,0,1,1,.183-1.212c.935.141,1.931.312,3.043.521a.613.613,0,0,1-.112,1.216m32.947-.539a.613.613,0,0,1-.274-1.162q.194-.1.39-.2c.765-.394,1.517-.82,2.235-1.266a.613.613,0,0,1,.647,1.041c-.745.463-1.526.905-2.32,1.314q-.2.1-.4.2a.611.611,0,0,1-.273.065m-48.172-.1a.613.613,0,0,1-.1-1.217,30.574,30.574,0,0,1,3.1-.377.613.613,0,1,1,.086,1.223,29.308,29.308,0,0,0-2.978.362.626.626,0,0,1-.106.009m9.162-.262a.569.569,0,0,1-.059,0c-1.054-.1-2.039-.158-3.012-.178a.613.613,0,0,1,.025-1.226c1,.02,2.019.08,3.1.183a.613.613,0,0,1-.057,1.223m44.2-2.871a.613.613,0,0,1-.373-1.1c.788-.6,1.554-1.255,2.278-1.934a.613.613,0,0,1,.839.894c-.753.707-1.551,1.384-2.371,2.013a.611.611,0,0,1-.372.126m175.731-1.257a.567.567,0,0,1-.062,0,.613.613,0,0,1-.549-.671c.075-.745.112-1.486.112-2.2,0-.259,0-.519-.015-.774a.613.613,0,1,1,1.225-.047c.01.27.016.546.016.821,0,.757-.04,1.54-.118,2.324a.613.613,0,0,1-.609.552M97.882,195.019A.613.613,0,0,1,97.42,194c.648-.741,1.275-1.53,1.863-2.346a.613.613,0,0,1,.994.717c-.611.846-1.261,1.666-1.934,2.435a.611.611,0,0,1-.462.209m171.028-3.19a.613.613,0,0,1-.6-.49,15.461,15.461,0,0,0-.857-2.815.613.613,0,1,1,1.132-.47,16.688,16.688,0,0,1,.926,3.039.614.614,0,0,1-.6.736m-167.452-1.755a.613.613,0,0,1-.526-.927c.5-.841.987-1.73,1.44-2.643a.613.613,0,1,1,1.1.545c-.467.941-.967,1.859-1.485,2.727a.613.613,0,0,1-.527.3m165.1-3.852a.612.612,0,0,1-.5-.263,13.024,13.024,0,0,0-1.921-2.188.613.613,0,1,1,.828-.9,14.435,14.435,0,0,1,2.1,2.392.613.613,0,0,1-.5.963M104.184,184.6a.613.613,0,0,1-.566-.847c.374-.9.734-1.857,1.07-2.83a.613.613,0,0,1,1.159.4c-.344,1-.712,1.971-1.1,2.9a.613.613,0,0,1-.567.379M262.107,182.1a.61.61,0,0,1-.324-.093,23.863,23.863,0,0,0-2.631-1.407.613.613,0,1,1,.515-1.113,25.052,25.052,0,0,1,2.766,1.479.613.613,0,0,1-.325,1.133m-5.527-2.618a.611.611,0,0,1-.217-.04c-.81-.306-1.722-.63-2.868-1.02a.613.613,0,1,1,.394-1.161c1.16.394,2.084.723,2.907,1.034a.613.613,0,0,1-.217,1.186m-150.39-.66a.613.613,0,0,1-.589-.783c.272-.942.533-1.93.777-2.937a.613.613,0,1,1,1.192.288c-.248,1.024-.513,2.03-.79,2.989a.613.613,0,0,1-.589.443m144.595-1.34a.614.614,0,0,1-.194-.032c-.858-.287-1.875-.629-2.91-.994a.613.613,0,1,1,.408-1.156c1.026.362,2.038.7,2.891.988a.613.613,0,0,1-.194,1.194m-5.775-2.054a.609.609,0,0,1-.223-.042c-1.009-.394-1.943-.783-2.855-1.188a.613.613,0,1,1,.5-1.12c.894.4,1.811.779,2.8,1.166a.613.613,0,0,1-.223,1.184m-5.593-2.5a.611.611,0,0,1-.28-.068c-.929-.478-1.842-.984-2.712-1.5a.613.613,0,0,1,.629-1.053c.848.507,1.738,1,2.644,1.466a.613.613,0,0,1-.281,1.158m-131.78-.063a.628.628,0,0,1-.122-.012.613.613,0,0,1-.479-.723c.195-.961.383-1.969.558-3a.613.613,0,0,1,1.209.206c-.177,1.039-.367,2.06-.565,3.033a.613.613,0,0,1-.6.491m126.528-3.079a.612.612,0,0,1-.349-.109c-.848-.588-1.685-1.212-2.487-1.856a.613.613,0,0,1,.767-.957c.781.626,1.595,1.233,2.419,1.805a.613.613,0,0,1-.35,1.117m-125.492-2.966a.614.614,0,0,1-.608-.7c.139-.967.275-1.986.4-3.028a.613.613,0,1,1,1.217.149c-.129,1.051-.265,2.078-.406,3.054a.613.613,0,0,1-.606.526m120.719-.861a.611.611,0,0,1-.416-.162c-.751-.693-1.494-1.426-2.207-2.178a.613.613,0,1,1,.89-.843c.695.733,1.418,1.446,2.149,2.121a.613.613,0,0,1-.416,1.064m-4.208-4.442a.612.612,0,0,1-.475-.225,31.05,31.05,0,0,1-1.855-2.511.613.613,0,1,1,1.023-.676,29.772,29.772,0,0,0,1.781,2.411.613.613,0,0,1-.474,1m-115.76-.786a.588.588,0,0,1-.065,0,.613.613,0,0,1-.545-.674c.1-.971.2-1.967.3-3.045a.613.613,0,0,1,1.221.113c-.1,1.083-.2,2.085-.3,3.061a.613.613,0,0,1-.609.549m112.4-4.321a.613.613,0,0,1-.548-.337,28.248,28.248,0,0,1-1.249-2.867.613.613,0,1,1,1.148-.429,27.033,27.033,0,0,0,1.195,2.744.613.613,0,0,1-.547.889M110,154.618l-.052,0a.613.613,0,0,1-.56-.662c.077-.916.158-1.917.248-3.061a.613.613,0,0,1,1.222.1c-.09,1.147-.171,2.15-.248,3.068a.613.613,0,0,1-.61.562m109.655-3.924a.613.613,0,0,1-.588-.44c-.218-.74-.42-1.469-.633-2.241q-.1-.356-.2-.716a.613.613,0,0,1,1.181-.329l.2.718c.212.767.413,1.491.628,2.221a.613.613,0,0,1-.588.786m-109.17-2.2-.048,0a.613.613,0,0,1-.564-.658q.117-1.53.236-3.055a.613.613,0,1,1,1.222.1q-.119,1.522-.236,3.052a.613.613,0,0,1-.611.566m107.478-3.686a.613.613,0,0,1-.584-.428c-.322-1.016-.648-1.949-1-2.853a.613.613,0,0,1,1.143-.443c.36.928.7,1.886,1.024,2.926a.613.613,0,0,1-.585.8m-106.994-2.426-.052,0a.613.613,0,0,1-.559-.662c.093-1.1.181-2.1.271-3.062a.613.613,0,1,1,1.221.114c-.089.954-.177,1.952-.27,3.051a.613.613,0,0,1-.61.562M215.737,139.1a.613.613,0,0,1-.554-.351c-.422-.892-.889-1.8-1.387-2.684a.613.613,0,1,1,1.07-.6c.512.914.992,1.842,1.426,2.759a.613.613,0,0,1-.554.875m-104.2-2.833a.6.6,0,0,1-.066,0,.613.613,0,0,1-.544-.675c.114-1.062.233-2.091.355-3.059a.613.613,0,0,1,1.217.153c-.121.961-.239,1.982-.352,3.037a.613.613,0,0,1-.609.548m101.211-2.514a.613.613,0,0,1-.516-.281c-.536-.832-1.113-1.673-1.714-2.5a.613.613,0,1,1,.992-.721c.614.845,1.2,1.7,1.753,2.556a.613.613,0,0,1-.515.945m-100.44-3.573a.6.6,0,0,1-.092-.007.613.613,0,0,1-.516-.7c.157-1.05.326-2.074.5-3.045a.613.613,0,1,1,1.207.217c-.173.959-.339,1.971-.495,3.009a.613.613,0,0,1-.605.522m96.84-1.386a.612.612,0,0,1-.477-.227c-.625-.773-1.286-1.551-1.966-2.314a.613.613,0,1,1,.916-.815c.692.777,1.366,1.571,2,2.358a.613.613,0,0,1-.476,1m-4.073-4.58a.612.612,0,0,1-.44-.186c-.7-.716-1.424-1.435-2.164-2.136a.613.613,0,0,1,.844-.89c.752.713,1.492,1.444,2.2,2.172a.613.613,0,0,1-.439,1.04m-91.672-.069a.613.613,0,0,1-.6-.744c.226-1.036.471-2.048.727-3.007a.613.613,0,0,1,1.185.316c-.251.942-.491,1.935-.714,2.953a.613.613,0,0,1-.6.482M200.63,120a.609.609,0,0,1-.4-.153c-.752-.66-1.534-1.322-2.323-1.967a.613.613,0,1,1,.775-.95c.8.654,1.594,1.325,2.357,2a.613.613,0,0,1-.4,1.074m-85.637-1.768a.614.614,0,0,1-.583-.8c.33-1.01.686-1.991,1.059-2.918a.613.613,0,0,1,1.137.458c-.362.9-.709,1.857-1.031,2.841a.613.613,0,0,1-.583.423m80.888-2.11a.61.61,0,0,1-.37-.125c-.8-.609-1.626-1.215-2.455-1.8a.613.613,0,1,1,.71-1c.839.6,1.677,1.211,2.487,1.827a.613.613,0,0,1-.372,1.1m-4.995-3.546a.611.611,0,0,1-.338-.1c-.839-.556-1.7-1.108-2.563-1.642a.613.613,0,1,1,.645-1.043c.873.54,1.746,1.1,2.595,1.663a.613.613,0,0,1-.339,1.124m-73.6-.015a.613.613,0,0,1-.548-.887c.473-.949.983-1.865,1.516-2.721a.613.613,0,1,1,1.041.648c-.513.824-1,1.705-1.46,2.62a.613.613,0,0,1-.549.34m68.388-3.21a.611.611,0,0,1-.306-.082c-.875-.506-1.771-1.005-2.663-1.485a.613.613,0,0,1,.581-1.08c.9.486,1.81.992,2.695,1.5a.613.613,0,0,1-.307,1.144m-65.151-1.964a.613.613,0,0,1-.482-.991,26.286,26.286,0,0,1,2.067-2.34.613.613,0,0,1,.868.866,25.123,25.123,0,0,0-1.97,2.231.612.612,0,0,1-.483.235m59.748-.945a.61.61,0,0,1-.274-.065c-.908-.454-1.833-.9-2.751-1.324a.613.613,0,0,1,.515-1.113c.929.43,1.866.881,2.785,1.34a.613.613,0,0,1-.275,1.161m-5.57-2.578a.612.612,0,0,1-.24-.049c-.934-.4-1.884-.785-2.821-1.151a.613.613,0,1,1,.445-1.142c.95.37,1.911.762,2.857,1.165a.613.613,0,0,1-.241,1.177m-49.877-.782a.613.613,0,0,1-.377-1.1,25.158,25.158,0,0,1,2.578-1.759.613.613,0,1,1,.627,1.054,23.944,23.944,0,0,0-2.451,1.673.61.61,0,0,1-.376.129m44.164-1.444a.614.614,0,0,1-.2-.035c-.96-.339-1.932-.664-2.888-.967a.613.613,0,1,1,.369-1.169c.97.306,1.954.636,2.927.979a.613.613,0,0,1-.2,1.191m-38.937-1.674a.613.613,0,0,1-.25-1.173,29.653,29.653,0,0,1,2.923-1.116.613.613,0,0,1,.377,1.166,28.364,28.364,0,0,0-2.8,1.07.611.611,0,0,1-.249.053m33.09-.172a.618.618,0,0,1-.164-.023c-.983-.273-1.974-.529-2.947-.761a.613.613,0,0,1,.284-1.193c.987.235,1.994.5,2.991.773a.613.613,0,0,1-.164,1.2m-5.964-1.42a.623.623,0,0,1-.119-.012c-1-.2-2.011-.375-2.994-.525a.613.613,0,0,1,.186-1.212c1,.153,2.025.333,3.046.534a.613.613,0,0,1-.118,1.215m-21.308-.3a.613.613,0,0,1-.133-1.211c.987-.22,2.019-.405,3.065-.55a.613.613,0,0,1,.168,1.215c-1.014.14-2.012.319-2.966.532a.616.616,0,0,1-.134.015m15.248-.621a.644.644,0,0,1-.066,0c-1.018-.108-2.036-.19-3.024-.245a.613.613,0,0,1,.067-1.224c1.009.055,2.048.139,3.087.249a.613.613,0,0,1-.064,1.223m-9.183-.228a.613.613,0,0,1-.04-1.225c1.008-.066,2.051-.1,3.1-.1h0a.613.613,0,0,1,0,1.226c-1.025,0-2.042.036-3.024.1h-.041" transform="translate(0 -76.253)" fill="#0f31ac"/>
                  <path id="Trazado_915438" data-name="Trazado 915438" d="M303.492,154.124a163.631,163.631,0,0,0-11.3,17.771,86.764,86.764,0,0,0-9.826,32.188c-2.4-.113-5.036-.22-7.886-.321-16.878-.6-41.245-.974-68.338-.974-30.8,0-58.078.486-74.834,1.232q-.865.038-1.693.078c-20.92-25.929-63.045-71.1-24.278-89.686a72.645,72.645,0,0,0,7.1-2.723c13.476-5.882,41.169-21.709,38.089-51.55a79.5,79.5,0,0,1-1.049-13.317c0-18.118,5.736-48.15,44.028-46.779a72.807,72.807,0,0,1,57.457,31.519c12.664,18.525,32.914,41.318,49.4,28.306a15.253,15.253,0,0,1,13.539-2.8c11.87,3.334,25.355,20.594-10.408,97.052" transform="translate(-71.191 0.001)" fill="#acbcf8"/>
                </g>
              </g>
            </g>
            <g id="Grupo_1107587" data-name="Grupo 1107587" transform="translate(6.804 202.874)" opacity="0.15">
              <g id="Grupo_1107586" data-name="Grupo 1107586">
                <g id="Grupo_1107585" data-name="Grupo 1107585" clip-path="url(#clip-path-4)">
                  <path id="Trazado_915439" data-name="Trazado 915439" d="M289.517,992.916c0,1.226-57.372,2.22-128.145,2.22-39.932,0-75.6-.316-99.1-.813-5.413-.115-10.18-.238-14.206-.37-2.651-.087-4.981-.177-6.961-.27-5.1-.239-7.878-.5-7.878-.768,0-.344,4.517-.67,12.578-.96,3.3-.119,7.2-.233,11.62-.338,23.275-.558,61.162-.922,103.947-.922,37.634,0,71.479.281,94.923.729,20.643.394,33.222.917,33.222,1.491" transform="translate(-33.227 -990.696)" fill="#040c2b"/>
                </g>
              </g>
            </g>
            <path id="Trazado_915440" data-name="Trazado 915440" d="M341.476,756.108l-12.243.249a2.463,2.463,0,0,1-2.512-2.412L326.5,743.26a2.462,2.462,0,0,1,2.412-2.512l12.243-.249a2.462,2.462,0,0,1,2.512,2.412l.218,10.685a2.463,2.463,0,0,1-2.412,2.512" transform="translate(-259.642 -588.86)" fill="#dee4fc"/>
            <path id="Trazado_915441" data-name="Trazado 915441" d="M378.8,783.369l-.043.8v.016h0l.367.125a2.474,2.474,0,0,1-.293.667l-.007.011-.141-.069-.232-.114-.48.641.17.241a2.206,2.206,0,0,1-.655.3l-.076-.376-.77-.016-.116.426a2.174,2.174,0,0,1-.721-.278l.224-.377-.525-.595-.428.258,0,0-.03-.047a2.469,2.469,0,0,1-.34-.891l.377-.084.043-.815-.389-.122a2.476,2.476,0,0,1,.346-.8l.4.239.539-.585-.214-.36a2.184,2.184,0,0,1,.919-.316l.085.484.77.038.121-.4a1.935,1.935,0,0,1,.694.413l-.248.363.515.627.332-.183a2.483,2.483,0,0,1,.2.7Zm-1.826-1.251a1.38,1.38,0,0,0-.8.236,1.468,1.468,0,0,0-.23.191,1.593,1.593,0,0,0-.048,2.161,1.387,1.387,0,0,0,2.041.041,1.593,1.593,0,0,0,.048-2.161q-.041-.045-.084-.086a1.383,1.383,0,0,0-.926-.382" transform="translate(-297.968 -621.264)" fill="#fff"/>
            <path id="Trazado_915442" data-name="Trazado 915442" d="M374.06,756.382l-.049.938v.019h0l.4.146a3.028,3.028,0,0,1-.322.783l-.008.013-.154-.081-.254-.133-.526.753.186.283a2.351,2.351,0,0,1-.717.349l-.083-.441-.842-.017-.128.5a2.271,2.271,0,0,1-.788-.325l.245-.443-.573-.7-.469.3,0,0-.033-.055a3.02,3.02,0,0,1-.37-1.045l.412-.1.048-.956-.426-.142a3.032,3.032,0,0,1,.379-.942l.437.28.591-.687-.233-.422a2.288,2.288,0,0,1,1.005-.372l.092.568.841.044.133-.471c.076-.034.535.275.758.484l-.272.426.563.735.363-.215a3.074,3.074,0,0,1,.221.826Zm-1.994-1.465a1.437,1.437,0,0,0-.876.279,1.652,1.652,0,0,0-.251.224,1.971,1.971,0,0,0-.056,2.536,1.448,1.448,0,0,0,2.231.045,1.971,1.971,0,0,0,.056-2.536q-.045-.053-.092-.1a1.457,1.457,0,0,0-1.012-.447" transform="translate(-293.896 -599.514)" fill="#fff"/>
            <path id="Trazado_915443" data-name="Trazado 915443" d="M347.433,769.466l-.067,1.291v.026l.006,0,.551.2a4.164,4.164,0,0,1-.443,1.078l-.01.018-.212-.111-.349-.184-.723,1.036.256.389a3.234,3.234,0,0,1-.986.48l-.114-.607-1.158-.023-.176.688a3.121,3.121,0,0,1-1.083-.447l.337-.609-.788-.96-.644.419-.006,0-.045-.076a4.163,4.163,0,0,1-.508-1.439l.567-.136.066-1.317-.585-.2a4.171,4.171,0,0,1,.522-1.3l.6.385.813-.947-.32-.581a3.145,3.145,0,0,1,1.383-.512l.127.782,1.157.06.183-.649c.1-.047.736.379,1.042.667l-.374.586.773,1.012.5-.3a4.237,4.237,0,0,1,.3,1.137Zm-2.742-2.018a1.975,1.975,0,0,0-1.2.384,2.271,2.271,0,0,0-.346.308,2.717,2.717,0,0,0-.077,3.492,1.989,1.989,0,0,0,3.068.062,2.717,2.717,0,0,0,.077-3.492q-.061-.073-.126-.139a2,2,0,0,0-1.392-.615" transform="translate(-271.384 -609.173)" fill="#fff"/>
            <path id="Trazado_915444" data-name="Trazado 915444" d="M275.711,489.337H263.466A2.463,2.463,0,0,1,261,486.875V476.188a2.463,2.463,0,0,1,2.463-2.463h12.246a2.463,2.463,0,0,1,2.463,2.463v10.687a2.463,2.463,0,0,1-2.463,2.463" transform="translate(-207.555 -376.716)" fill="#dee4fc"/>
            <path id="Trazado_915445" data-name="Trazado 915445" d="M284.268,487.378a.713.713,0,0,1-.594-.317,5.564,5.564,0,0,0-9.838-.008.713.713,0,0,1-1.185-.794,6.979,6.979,0,0,1,12.209.01.713.713,0,0,1-.592,1.11" transform="translate(-216.722 -383.827)" fill="#fff"/>
            <path id="Trazado_915446" data-name="Trazado 915446" d="M288.7,499.622a.712.712,0,0,1-.594-.317,3.814,3.814,0,0,0-6.763-.006.713.713,0,0,1-1.185-.794,5.229,5.229,0,0,1,9.134.007.713.713,0,0,1-.592,1.109" transform="translate(-222.688 -394.291)" fill="#fff"/>
            <path id="Trazado_915447" data-name="Trazado 915447" d="M293.125,511.866a.712.712,0,0,1-.594-.317,2.066,2.066,0,0,0-3.688,0,.713.713,0,1,1-1.185-.794,3.479,3.479,0,0,1,6.06,0,.713.713,0,0,1-.592,1.109" transform="translate(-228.656 -404.755)" fill="#fff"/>
            <path id="Trazado_915448" data-name="Trazado 915448" d="M297.063,527.2a1.244,1.244,0,1,0,1.2-1.576,1.427,1.427,0,0,0-1.2,1.576" transform="translate(-236.231 -417.99)" fill="#fff"/>
            <path id="Trazado_915449" data-name="Trazado 915449" d="M754.963,192.387H742.717a2.463,2.463,0,0,1-2.463-2.463V179.238a2.463,2.463,0,0,1,2.463-2.463h12.246a2.463,2.463,0,0,1,2.463,2.463v10.687a2.463,2.463,0,0,1-2.463,2.463" transform="translate(-588.666 -140.575)" fill="#dee4fc"/>
            <path id="Trazado_915450" data-name="Trazado 915450" d="M771.645,201.291a.238.238,0,0,1-.138-.044l-6.485-4.637,6.483-4.71a.238.238,0,1,1,.28.386l-5.948,4.321,5.947,4.252a.238.238,0,0,1-.139.432" transform="translate(-608.362 -152.566)" fill="#fff"/>
            <path id="Trazado_915451" data-name="Trazado 915451" d="M793.519,187.836a1.334,1.334,0,1,1-1.335-1.335,1.335,1.335,0,0,1,1.335,1.335" transform="translate(-628.901 -148.309)" fill="#fff"/>
            <path id="Trazado_915452" data-name="Trazado 915452" d="M793.519,231.59a1.334,1.334,0,1,1-1.335-1.335,1.335,1.335,0,0,1,1.335,1.335" transform="translate(-628.901 -183.103)" fill="#fff"/>
            <path id="Trazado_915453" data-name="Trazado 915453" d="M763.147,209.946a1.334,1.334,0,1,1-1.335-1.335,1.335,1.335,0,0,1,1.335,1.335" transform="translate(-604.748 -165.892)" fill="#fff"/>
            <path id="Trazado_915454" data-name="Trazado 915454" d="M968.7,352.237H956.45a2.463,2.463,0,0,1-2.463-2.463V339.088a2.463,2.463,0,0,1,2.463-2.463H968.7a2.463,2.463,0,0,1,2.463,2.463v10.687a2.463,2.463,0,0,1-2.463,2.463" transform="translate(-758.631 -267.691)" fill="#dee4fc"/>
            <path id="Trazado_915455" data-name="Trazado 915455" d="M972.972,365.834c-.655-2.383,1.744-6.029,4.611-6.029s5.266,3.655,4.611,6.029c-.535,1.938-3,2.638-4.465,2.676-1.645.043-4.211-.69-4.757-2.676" transform="translate(-773.642 -286.124)" fill="#fff"/>
            <path id="Trazado_915456" data-name="Trazado 915456" d="M989.516,349.715a2.252,2.252,0,1,1-2.232-2.549,2.407,2.407,0,0,1,2.232,2.549" transform="translate(-783.333 -276.074)" fill="#fff"/>
            <path id="Trazado_915457" data-name="Trazado 915457" d="M989.516,349.715a2.252,2.252,0,1,1-2.232-2.549A2.407,2.407,0,0,1,989.516,349.715Z" transform="translate(-783.333 -276.074)" fill="none" stroke="#e3e9f7" stroke-miterlimit="10" stroke-width="12"/>
            <path id="Trazado_915458" data-name="Trazado 915458" d="M987.853,669.244H975.608a2.462,2.462,0,0,1-2.463-2.462V656.095a2.463,2.463,0,0,1,2.463-2.463h12.246a2.463,2.463,0,0,1,2.463,2.463v10.687a2.462,2.462,0,0,1-2.463,2.462" transform="translate(-773.866 -519.782)" fill="#dee4fc"/>
            <path id="Trazado_915459" data-name="Trazado 915459" d="M998.829,673.473l-4.492-4.6a4.318,4.318,0,0,0,.389-1.807,3.413,3.413,0,1,0-3.382,3.876,3.107,3.107,0,0,0,2.085-.824l4.457,4.563a.646.646,0,0,0,1-.064.9.9,0,0,0-.056-1.144m-7.484-3.235a3.2,3.2,0,1,1,2.767-3.171,2.993,2.993,0,0,1-2.767,3.171" transform="translate(-785.649 -527.383)" fill="#fff"/>
            <path id="Trazado_915460" data-name="Trazado 915460" d="M993.16,677.09a.145.145,0,0,1-.125-.072,3.37,3.37,0,0,1,0-3.1.145.145,0,0,1,.255.138,3.134,3.134,0,0,0,0,2.818.145.145,0,0,1-.052.2.143.143,0,0,1-.073.02" transform="translate(-789.37 -535.852)" fill="#fff"/>
            <path id="Trazado_915461" data-name="Trazado 915461" d="M802.259,864.117H790.014a2.463,2.463,0,0,1-2.463-2.463V850.968a2.463,2.463,0,0,1,2.463-2.463h12.246a2.463,2.463,0,0,1,2.463,2.463v10.687a2.463,2.463,0,0,1-2.463,2.463" transform="translate(-626.277 -674.749)" fill="#dee4fc"/>
            <rect id="Rectángulo_405168" data-name="Rectángulo 405168" width="8.306" height="11.699" transform="translate(165.706 175.712)" fill="#fff"/>
            <path id="Trazado_915462" data-name="Trazado 915462" d="M819.18,891.942h-6.386a.252.252,0,1,1,0-.5h6.386a.252.252,0,1,1,0,.5" transform="translate(-646.151 -708.891)" fill="#dee4fc"/>
            <path id="Trazado_915463" data-name="Trazado 915463" d="M819.229,898.11h-6.386a.252.252,0,1,1,0-.5h6.386a.252.252,0,1,1,0,.5" transform="translate(-646.19 -713.796)" fill="#dee4fc"/>
            <path id="Trazado_915464" data-name="Trazado 915464" d="M819.277,904.279h-6.386a.252.252,0,1,1,0-.5h6.386a.252.252,0,1,1,0,.5" transform="translate(-646.228 -718.702)" fill="#dee4fc"/>
            <path id="Trazado_915465" data-name="Trazado 915465" d="M817.092,867.52h-4.216a.252.252,0,0,1,0-.5h4.216a.252.252,0,1,1,0,.5" transform="translate(-646.217 -689.47)" fill="#dee4fc"/>
            <path id="Trazado_915466" data-name="Trazado 915466" d="M819.31,873.689h-6.386a.252.252,0,1,1,0-.5h6.386a.252.252,0,1,1,0,.5" transform="translate(-646.254 -694.376)" fill="#dee4fc"/>
            <path id="Trazado_915467" data-name="Trazado 915467" d="M819.359,879.857h-6.386a.252.252,0,1,1,0-.5h6.386a.252.252,0,1,1,0,.5" transform="translate(-646.293 -699.281)" fill="#dee4fc"/>
            <path id="Trazado_915468" data-name="Trazado 915468" d="M819.407,886.026h-6.386a.252.252,0,1,1,0-.5h6.386a.252.252,0,1,1,0,.5" transform="translate(-646.331 -704.187)" fill="#dee4fc"/>
            <path id="Trazado_915469" data-name="Trazado 915469" d="M426.282,253.453H414.037a2.462,2.462,0,0,1-2.463-2.462V240.3a2.463,2.463,0,0,1,2.463-2.463h12.246a2.463,2.463,0,0,1,2.463,2.463v10.687a2.462,2.462,0,0,1-2.463,2.462" transform="translate(-327.292 -189.136)" fill="#dee4fc"/>
            <path id="Trazado_915470" data-name="Trazado 915470" d="M439.806,270.172v5.317a1.014,1.014,0,0,1-1.039.988h-7.421a1.014,1.014,0,0,1-1.039-.988v-5.317a1.014,1.014,0,0,1,1.039-.988h7.421a1.014,1.014,0,0,1,1.039.988" transform="translate(-342.19 -214.061)" fill="#fff"/>
            <path id="Trazado_915471" data-name="Trazado 915471" d="M443.9,248.087a2.9,2.9,0,0,0-2.138-.958,3.155,3.155,0,0,0-3.024,3.272v1.245h.664V250.4a2.367,2.367,0,1,1,4.72,0v1.245h.664V250.4a3.4,3.4,0,0,0-.885-2.313" transform="translate(-348.891 -196.522)" fill="#fff"/>
            <path id="Trazado_915472" data-name="Trazado 915472" d="M451.48,277.616a.7.7,0,1,0-1.4,0,.772.772,0,0,0,.339.65v1.259a.06.06,0,0,0,.058.062h.069a.053.053,0,0,1,.05.055v.146a.053.053,0,0,1-.05.055h-.1a.027.027,0,0,0-.026.028v.057a.027.027,0,0,0,.026.028h.042a.053.053,0,0,1,.05.054v.146a.052.052,0,0,1-.05.054h-.043a.026.026,0,0,0-.025.027v.059a.026.026,0,0,0,.025.026h.1a.053.053,0,0,1,.05.055v.146a.053.053,0,0,1-.05.055h-.069a.06.06,0,0,0-.058.062.354.354,0,0,0,.32.368.345.345,0,0,0,.343-.359V278.3a.765.765,0,0,0,.4-.684" transform="translate(-357.912 -220.163)" fill="#dee4fc"/>
            <path id="Trazado_915473" data-name="Trazado 915473" d="M517.4,277.192h10.114V293.8" transform="translate(-411.444 -220.429)" fill="none" stroke="#e3e9f7" stroke-miterlimit="10" stroke-width="2"/>
            <path id="Trazado_915474" data-name="Trazado 915474" d="M514.276,272.638a1.134,1.134,0,1,1-1.134-1.134,1.134,1.134,0,0,1,1.134,1.134" transform="translate(-407.16 -215.906)" fill="#acbcf8"/>
            <line id="Línea_702" data-name="Línea 702" y2="16.874" transform="translate(159.834 56.702)" fill="none" stroke="#e3e9f7" stroke-miterlimit="10" stroke-width="2"/>
            <path id="Trazado_915475" data-name="Trazado 915475" d="M777.4,270.842a1.134,1.134,0,1,1-1.134-1.134,1.134,1.134,0,0,1,1.134,1.134" transform="translate(-616.401 -214.477)" fill="#acbcf8"/>
            <path id="Trazado_915476" data-name="Trazado 915476" d="M885.141,437.373h22.711v-7.814" transform="translate(-703.883 -341.594)" fill="none" stroke="#e3e9f7" stroke-miterlimit="10" stroke-width="2"/>
            <path id="Trazado_915477" data-name="Trazado 915477" d="M992.928,426.2a1.134,1.134,0,1,1-1.134-1.134,1.134,1.134,0,0,1,1.134,1.134" transform="translate(-787.794 -338.023)" fill="#acbcf8"/>
            <path id="Trazado_915478" data-name="Trazado 915478" d="M883.168,627.032h26.977V629.5" transform="translate(-702.314 -498.629)" fill="none" stroke="#e3e9f7" stroke-miterlimit="10" stroke-width="2"/>
            <path id="Trazado_915479" data-name="Trazado 915479" d="M1011.787,634.546a1.134,1.134,0,1,1-1.134-1.134,1.134,1.134,0,0,1,1.134,1.134" transform="translate(-802.791 -503.702)" fill="#acbcf8"/>
            <path id="Trazado_915480" data-name="Trazado 915480" d="M803.883,760.425l5.33-.391v13.547" transform="translate(-639.265 -604.396)" fill="none" stroke="#e3e9f7" stroke-miterlimit="10" stroke-width="2"/>
            <path id="Trazado_915481" data-name="Trazado 915481" d="M826.792,821.936a1.134,1.134,0,1,1-1.134-1.134,1.134,1.134,0,0,1,1.134,1.134" transform="translate(-655.679 -652.719)" fill="#acbcf8"/>
            <path id="Trazado_915482" data-name="Trazado 915482" d="M388.241,639.213H368.323v15.67" transform="translate(-292.898 -508.315)" fill="none" stroke="#e3e9f7" stroke-miterlimit="10" stroke-width="2"/>
            <path id="Trazado_915483" data-name="Trazado 915483" d="M365.2,711.478a1.134,1.134,0,1,1-1.134-1.134,1.134,1.134,0,0,1,1.134,1.134" transform="translate(-288.613 -564.88)" fill="#acbcf8"/>
            <line id="Línea_703" data-name="Línea 703" x2="15.43" transform="translate(75.67 104.516)" fill="none" stroke="#e3e9f7" stroke-miterlimit="10" stroke-width="2"/>
            <path id="Trazado_915484" data-name="Trazado 915484" d="M366.4,505.978a1.134,1.134,0,1,1-1.134-1.134,1.134,1.134,0,0,1,1.134,1.134" transform="translate(-289.565 -401.462)" fill="#acbcf8"/>
            <circle id="Elipse_11572" data-name="Elipse 11572" cx="44.841" cy="44.841" r="44.841" transform="translate(92.864 71.322)" fill="none" stroke="#e3e9f7" stroke-miterlimit="10" stroke-width="1"/>
            <path id="Trazado_915485" data-name="Trazado 915485" d="M763.193,521.933a.5.5,0,0,1-.5-.5,24.786,24.786,0,0,0-7.984-18.19.5.5,0,1,1,.674-.733,25.642,25.642,0,0,1,8.306,18.923.5.5,0,0,1-.5.5" transform="translate(-600.034 -399.503)" fill="#829cf8"/>
            <path id="Trazado_915486" data-name="Trazado 915486" d="M560.55,485.229a.5.5,0,0,1-.449-.713,25.7,25.7,0,0,1,38.4-9.667.5.5,0,1,1-.589.8,24.525,24.525,0,0,0-14.6-4.773A24.856,24.856,0,0,0,561,484.945a.5.5,0,0,1-.45.283" transform="translate(-445.365 -373.66)" fill="#829cf8"/>
            <path id="Trazado_915487" data-name="Trazado 915487" d="M546.221,563.532a.5.5,0,0,1-.5-.5,44.053,44.053,0,0,1,1.995-11.419.5.5,0,0,1,.938.338,42.745,42.745,0,0,0-1.936,11.081.5.5,0,0,1-.5.5" transform="translate(-433.971 -438.393)" fill="#829cf8"/>
            <path id="Trazado_915488" data-name="Trazado 915488" d="M553.739,515.514l-.242-.967-.008,0a2.531,2.531,0,0,0,1.2-1.017c.573-.8,1.264-2.386,1.3-5.349a20.933,20.933,0,0,1,1.021-6.286,24.79,24.79,0,0,1,2.058-4.635,21.23,21.23,0,0,1,3.734-4.785c3.671-3.5,8.511-5.451,14.383-5.806a.5.5,0,0,1,.06.995c-12.883.779-17.615,9.445-19.289,14.542a19.941,19.941,0,0,0-.971,5.988,10.229,10.229,0,0,1-1.56,6.018,3.321,3.321,0,0,1-1.682,1.3" transform="translate(-440.146 -387.01)" fill="#829cf8"/>
            <path id="Trazado_915489" data-name="Trazado 915489" d="M702.682,503.979a.5.5,0,0,1-.48-.368,20.83,20.83,0,0,0-10.558-13.376,23.262,23.262,0,0,0-7.62-2.572.5.5,0,1,1,.107-.991,23.9,23.9,0,0,1,7.986,2.686,21.958,21.958,0,0,1,11.047,13.993.5.5,0,0,1-.481.629" transform="translate(-543.596 -387.01)" fill="#829cf8"/>
            <path id="Trazado_915490" data-name="Trazado 915490" d="M774.933,599.626a.511.511,0,0,1-.079-.006.5.5,0,0,1-.414-.57,71.681,71.681,0,0,0,.4-14.62.5.5,0,1,1,.993-.084,72.826,72.826,0,0,1-.409,14.861.5.5,0,0,1-.491.42" transform="translate(-615.846 -464.321)" fill="#829cf8"/>
            <path id="Trazado_915491" data-name="Trazado 915491" d="M579.616,520.844l-.051,0a.5.5,0,0,1-.446-.546,23.765,23.765,0,0,1,3.618-9.706,17.979,17.979,0,0,1,4.083-4.392c4.271-3.243,9.89-4.288,16.7-3.106a.5.5,0,1,1-.17.982c-6.525-1.132-11.883-.151-15.926,2.918a19.073,19.073,0,0,0-6.073,8.54,21.876,21.876,0,0,0-1.238,4.864.5.5,0,0,1-.495.448" transform="translate(-460.527 -399.695)" fill="#829cf8"/>
            <path id="Trazado_915492" data-name="Trazado 915492" d="M719.559,545.308a.5.5,0,0,1-.492-.583c2.609-15.126-.176-23.523-2.971-27.9a16.309,16.309,0,0,0-4.493-4.745,9.521,9.521,0,0,0-2.214-1.172.5.5,0,0,1,.295-.952,10.164,10.164,0,0,1,2.418,1.257,17.237,17.237,0,0,1,4.786,5,26.918,26.918,0,0,1,3.759,10.621,57.283,57.283,0,0,1-.6,18.063.5.5,0,0,1-.49.413" transform="translate(-563.843 -405.509)" fill="#829cf8"/>
            <path id="Trazado_915493" data-name="Trazado 915493" d="M562.718,612.443a.5.5,0,0,1-.335-.866c2.827-2.573,3.294-8.728,3.3-8.79a.5.5,0,0,1,.994.07,22.9,22.9,0,0,1-.615,3.62,11.6,11.6,0,0,1-3.007,5.836.5.5,0,0,1-.335.13" transform="translate(-447.089 -478.98)" fill="#829cf8"/>
            <path id="Trazado_915494" data-name="Trazado 915494" d="M645.063,522.3a.5.5,0,0,1-.343-.136c-4.186-3.969-8.852-5.427-13.871-4.333a17.073,17.073,0,0,0-6.372,2.877.5.5,0,0,1-.623-.777,17.754,17.754,0,0,1,6.743-3.064,15.109,15.109,0,0,1,6.921.049,17.639,17.639,0,0,1,7.887,4.525.5.5,0,0,1-.343.86" transform="translate(-495.954 -410.722)" fill="#829cf8"/>
            <path id="Trazado_915495" data-name="Trazado 915495" d="M735.77,583.988a.5.5,0,0,1-.478-.638c1.774-6.062,1.808-20.9,1.809-21.478a25.687,25.687,0,0,0-1.414-7.53,5.253,5.253,0,0,0-1.022-1.82l.006.006.644-.76a5.506,5.506,0,0,1,1.24,2.062,26.6,26.6,0,0,1,1.541,7.991v.033c0,.038,0,3.9-.224,8.482-.3,6.173-.85,10.645-1.625,13.293a.5.5,0,0,1-.478.358" transform="translate(-584.22 -438.777)" fill="#829cf8"/>
            <path id="Trazado_915496" data-name="Trazado 915496" d="M645.39,623.448a.5.5,0,0,1-.435-.741,40.275,40.275,0,0,0,2.938-7.634,65.2,65.2,0,0,0,2.36-20.788.5.5,0,0,1,1-.044,69.025,69.025,0,0,1-.515,12.041,62.129,62.129,0,0,1-1.894,9.1,40.345,40.345,0,0,1-3.014,7.806.5.5,0,0,1-.435.255" transform="translate(-512.832 -472.174)" fill="#829cf8"/>
            <path id="Trazado_915497" data-name="Trazado 915497" d="M627.558,680.21a.5.5,0,0,1-.4-.8c2.926-3.926,4.194-11.414,4.206-11.489a.5.5,0,0,1,.983.163,42.759,42.759,0,0,1-1.025,4.383,23.859,23.859,0,0,1-3.366,7.538.5.5,0,0,1-.4.2" transform="translate(-498.652 -530.817)" fill="#829cf8"/>
            <path id="Trazado_915498" data-name="Trazado 915498" d="M683.219,665.3a.5.5,0,0,1-.451-.708,40.332,40.332,0,0,0,2.805-11.06c.445-3.458.514-6.143.515-6.169a.5.5,0,0,1,1,.024c0,.027-.07,2.754-.521,6.261a39.553,39.553,0,0,1-2.891,11.365.5.5,0,0,1-.452.288" transform="translate(-542.914 -514.408)" fill="#829cf8"/>
            <path id="Trazado_915499" data-name="Trazado 915499" d="M613.877,641.391a.5.5,0,0,1-.384-.815c1.937-2.349,3.455-6.275,4.391-11.355a55.364,55.364,0,0,0,.838-7.1.5.5,0,0,1,1,.036,56.425,56.425,0,0,1-.852,7.235,40.267,40.267,0,0,1-1.629,6.249,18.649,18.649,0,0,1-2.976,5.573.5.5,0,0,1-.385.181" transform="translate(-487.772 -494.338)" fill="#829cf8"/>
            <path id="Trazado_915500" data-name="Trazado 915500" d="M590.149,609.657a.5.5,0,0,1-.433-.743,32.81,32.81,0,0,0,3.976-13.157,29.1,29.1,0,0,0-.036-6.031.5.5,0,1,1,.986-.144,29.631,29.631,0,0,1,.043,6.26,35.394,35.394,0,0,1-1.136,6.343,31.953,31.953,0,0,1-2.965,7.217.5.5,0,0,1-.434.253" transform="translate(-468.903 -468.509)" fill="#829cf8"/>
            <path id="Trazado_915501" data-name="Trazado 915501" d="M676.008,584.905a.5.5,0,0,1-.46-.688c1.595-3.871,2.626-9.716,2.982-16.9.267-5.4.06-9.7.054-9.82-.231-3.847-1.842-6.5-4.787-7.885a10.37,10.37,0,0,0-4.4-.948.5.5,0,1,1-.049-1,11.265,11.265,0,0,1,4.871,1.041,8.8,8.8,0,0,1,3.5,2.9,11.1,11.1,0,0,1,1.853,5.825v0c0,.044.218,4.425-.054,9.923a83.155,83.155,0,0,1-.876,8.865,38.041,38.041,0,0,1-2.179,8.369.5.5,0,0,1-.461.309" transform="translate(-531.904 -435.512)" fill="#829cf8"/>
            <path id="Trazado_915502" data-name="Trazado 915502" d="M605.291,581.577a.5.5,0,0,1-.416-.771c3.781-5.765,3.871-15.176,3.808-17.923a16.9,16.9,0,0,1,.188-2.979,13.484,13.484,0,0,1,1.472-4.484,9.648,9.648,0,0,1,2.134-2.65,7.239,7.239,0,0,1,2.814-1.567.5.5,0,0,1,.224.971,6.426,6.426,0,0,0-2.432,1.389,10.584,10.584,0,0,0-3.228,6.495,15.919,15.919,0,0,0-.177,2.8c.064,2.82-.032,12.486-3.971,18.492a.5.5,0,0,1-.417.225" transform="translate(-480.944 -438.318)" fill="#829cf8"/>
            <path id="Trazado_915503" data-name="Trazado 915503" d="M575.447,570.815a.5.5,0,0,1-.291-.9,7.885,7.885,0,0,0,2.14-3.8,38.079,38.079,0,0,0,1.287-5.43,27.908,27.908,0,0,0,.382-4.7,18.964,18.964,0,0,1,1.881-8.025,17.262,17.262,0,0,1,1.9-3.168.5.5,0,1,1,.776.625,16.673,16.673,0,0,0-1.785,3,17.958,17.958,0,0,0-1.772,7.57,28.906,28.906,0,0,1-.4,4.867,39.064,39.064,0,0,1-1.324,5.574c-.729,2.2-1.549,3.609-2.505,4.295a.5.5,0,0,1-.29.093" transform="translate(-457.211 -433.083)" fill="#829cf8"/>
            <path id="Trazado_915504" data-name="Trazado 915504" d="M635.3,571.071a.5.5,0,0,1-.134-.018.5.5,0,0,1-.347-.613c1.993-7.182,2.01-23.536,2.01-23.7v-.02c.012-.291.016-.584.013-.87a12.424,12.424,0,0,0-11.108-12.256,10.768,10.768,0,0,0-9.421,3.745,16.015,16.015,0,0,0-2.88,4.457.5.5,0,0,1-.929-.36,16.809,16.809,0,0,1,3.074-4.771,13.087,13.087,0,0,1,4.135-3.088,11.552,11.552,0,0,1,6.123-.975,13.315,13.315,0,0,1,8.514,4.328,13.5,13.5,0,0,1,3.488,8.907c0,.3,0,.607-.014.911,0,.235-.008,4.308-.252,9.183-.337,6.728-.941,11.7-1.794,14.774a.5.5,0,0,1-.48.365" transform="translate(-487.053 -423.481)" fill="#829cf8"/>
            <path id="Trazado_915505" data-name="Trazado 915505" d="M651.33,611.085a.5.5,0,0,1-.448-.716,48.418,48.418,0,0,0,2.723-7.848,70.774,70.774,0,0,0,2.286-20.409v0c0-.023-.083-2.384-1.332-3.3a2.244,2.244,0,0,0-2.036-.229l-.056.016h-.041a1.855,1.855,0,0,0-1.043.6,5.562,5.562,0,0,0-1.1,3.843c0,.137.051,1.908-.074,4.158A29.693,29.693,0,0,1,649,594.747a.5.5,0,1,1-.944-.318c1.438-4.27,1.235-11.3,1.233-11.375v-.016c0-2.114.489-3.666,1.452-4.613a2.812,2.812,0,0,1,1.559-.821,3.194,3.194,0,0,1,2.857.4c1.631,1.2,1.73,3.932,1.734,4.076a72.018,72.018,0,0,1-.548,11.661,70.032,70.032,0,0,1-1.779,9.067,48.346,48.346,0,0,1-2.781,8,.5.5,0,0,1-.448.28" transform="translate(-515.324 -459.197)" fill="#829cf8"/>
            <path id="Trazado_915506" data-name="Trazado 915506" d="M652.059,576.847a.506.506,0,0,1-.08-.006.5.5,0,0,1-.413-.571c1.13-7.008-.231-10.26-1.571-11.755a3.943,3.943,0,0,0-2.771-1.435c-.155.008-.312.012-.466.013a5.981,5.981,0,0,0-4.647,1.826c-2.17,2.411-1.784,6.44-1.78,6.481a.5.5,0,0,1-.991.1,12.049,12.049,0,0,1,.073-2.568,8.612,8.612,0,0,1,1.954-4.678,6.931,6.931,0,0,1,5.389-2.16c.138,0,.279,0,.417-.011a4.862,4.862,0,0,1,3.564,1.765,8.888,8.888,0,0,1,1.965,4.363,24.367,24.367,0,0,1-.151,8.216.5.5,0,0,1-.491.419" transform="translate(-508.387 -446.98)" fill="#829cf8"/>
            <path id="Trazado_915507" data-name="Trazado 915507" d="M546.221,480.673a.5.5,0,0,1-.471-.659,22.428,22.428,0,0,1,3.177-5.612,26.526,26.526,0,0,1,11.815-8.892.5.5,0,0,1,.356.931,25.7,25.7,0,0,0-11.351,8.528,21.926,21.926,0,0,0-3.055,5.368.5.5,0,0,1-.471.336" transform="translate(-433.971 -370.157)" fill="#829cf8"/>
            <path id="Trazado_915508" data-name="Trazado 915508" d="M627,459.749a.5.5,0,0,1-.119-.982,39.462,39.462,0,0,1,5.846-.973.5.5,0,0,1,.061.995,39.2,39.2,0,0,0-5.668.946.493.493,0,0,1-.12.015" transform="translate(-498.204 -364.047)" fill="#829cf8"/>
            <path id="Trazado_915509" data-name="Trazado 915509" d="M688.9,471.5a.5.5,0,0,1-.415-.221,29.781,29.781,0,0,0-16.515-11.735,35.293,35.293,0,0,0-9.732-1.515.5.5,0,0,1-.024-1,35.57,35.57,0,0,1,10.007,1.546,33.751,33.751,0,0,1,8.864,4.04,28.646,28.646,0,0,1,8.228,8.106.5.5,0,0,1-.414.775" transform="translate(-526.223 -363.443)" fill="#829cf8"/>
            <path id="Trazado_915510" data-name="Trazado 915510" d="M560.464,455.41a.5.5,0,0,1-.367-.834,19.714,19.714,0,0,1,2.326-2.052,30.858,30.858,0,0,1,6.683-3.893,31.562,31.562,0,0,1,10.729-2.473,37.569,37.569,0,0,1,14.414,2.221.5.5,0,1,1-.329.94c-10.81-3.786-19.224-1.975-24.379.21a29.87,29.87,0,0,0-6.474,3.758,19.271,19.271,0,0,0-2.234,1.963.5.5,0,0,1-.367.161" transform="translate(-445.297 -354.757)" fill="#829cf8"/>
            <path id="Trazado_915511" data-name="Trazado 915511" d="M615.267,443.155a.5.5,0,0,1-.295-.1,37.495,37.495,0,0,0-27.876-6.634,48.63,48.63,0,0,0-9.708,2.431,34,34,0,0,0-3.76,1.594.5.5,0,0,1-.464-.882,34.255,34.255,0,0,1,3.851-1.637,49.633,49.633,0,0,1,9.907-2.488,41.588,41.588,0,0,1,13.639.24,36.767,36.767,0,0,1,15,6.573.5.5,0,0,1-.3.9" transform="translate(-455.581 -345.917)" fill="#829cf8"/>
            <path id="Trazado_915512" data-name="Trazado 915512" d="M623.728,428.81a.5.5,0,0,1-.267-.078c-8.537-5.431-17.914-5.968-24.277-5.462a47.782,47.782,0,0,0-11.929,2.437.5.5,0,0,1-.356-.931,34.429,34.429,0,0,1,3.422-1.038,52.724,52.724,0,0,1,8.752-1.459,45.414,45.414,0,0,1,11.944.562A36.524,36.524,0,0,1,624,427.891a.5.5,0,0,1-.268.918" transform="translate(-466.46 -335.678)" fill="#829cf8"/>
            <path id="Trazado_915513" data-name="Trazado 915513" d="M635.191,412.235a.494.494,0,0,1-.223-.053,40.757,40.757,0,0,0-20.3-4.056,39.319,39.319,0,0,0-9.258,1.513.5.5,0,0,1-.313-.946,39.481,39.481,0,0,1,9.485-1.56,44.211,44.211,0,0,1,9.7.538,39.391,39.391,0,0,1,11.132,3.621.5.5,0,0,1-.224.943" transform="translate(-480.917 -323.71)" fill="#829cf8"/>
            <path id="Trazado_915514" data-name="Trazado 915514" d="M653.443,397.586a.5.5,0,0,1-.254-.07c-5.313-3.153-11.3-3.763-15.394-3.72a36.242,36.242,0,0,0-7.678.858.5.5,0,0,1-.246-.966,36.6,36.6,0,0,1,7.913-.888,35.621,35.621,0,0,1,7.677.722,26.93,26.93,0,0,1,8.236,3.138.5.5,0,0,1-.255.927" transform="translate(-500.589 -312.361)" fill="#829cf8"/>
            <path id="Trazado_915515" data-name="Trazado 915515" d="M743.576,469.252a.5.5,0,0,1-.438-.26c-2.306-4.246-11.289-7.953-11.379-7.989a.5.5,0,0,1,.377-.922,45.763,45.763,0,0,1,4.968,2.466c3.538,2.033,5.863,4.042,6.91,5.97a.5.5,0,0,1-.437.736" transform="translate(-581.664 -365.835)" fill="#829cf8"/>
            <path id="Trazado_915516" data-name="Trazado 915516" d="M438.849,391.488a48.111,48.111,0,0,1,72.763-51.523" transform="translate(-347.975 -264.318)" fill="none" stroke="#acbcf8" stroke-miterlimit="10" stroke-width="1"/>
            <path id="Trazado_915517" data-name="Trazado 915517" d="M546.129,639.212a48.117,48.117,0,0,1-90.122,3.97" transform="translate(-362.626 -508.315)" fill="none" stroke="#acbcf8" stroke-miterlimit="10" stroke-width="1"/>
            <path id="Trazado_915518" data-name="Trazado 915518" d="M821.493,385.716a48.184,48.184,0,0,1,16.653,46.611" transform="translate(-653.269 -306.729)" fill="none" stroke="#acbcf8" stroke-miterlimit="10" stroke-width="1"/>
            <path id="Trazado_915519" data-name="Trazado 915519" d="M549.949,730.859l-.044.071s.194-.017.51-.02a9.515,9.515,0,0,1,2.336.258c1.4.356,2.8,1.184,2.8,3.07l-.047,1.53-.058,1.914-.007.235,0,.009a3.955,3.955,0,0,1-1.185,4.091q-.146.127-.312.248a5.864,5.864,0,0,1-1.193.658l-.026.011a2.767,2.767,0,0,1,.376,1.093h0c.081.746-.187,1.7-1.766,2.292a7.057,7.057,0,0,1-1.1.305c-.271.054-.566.1-.887.137a6.21,6.21,0,0,1-2.639-.483h0c-.056.064-5.239,5.943-12.041,5.537l-5.872,1.524-.316-11.874s1.566-.744,3.386-1.834a25.034,25.034,0,0,0,3.75-2.663s6.987-4.162,10.852-10.108a80.68,80.68,0,0,1,7.47-8.771l.066-.065,2.35-2.313a1.015,1.015,0,0,1,.653.183,1.127,1.127,0,0,1,.386.513,1.867,1.867,0,0,1,.105.38,3.99,3.99,0,0,1-.029,1.3s-.258,1.225-2.515,4.426a6.2,6.2,0,0,1-.667.777,18.208,18.208,0,0,0-1.964,3.735Z" transform="translate(-420.259 -569.146)" fill="#de995f"/>
            <path id="Trazado_915520" data-name="Trazado 915520" d="M656.612,716.788l-1.159,1.222-.375.4a2.035,2.035,0,0,1-.454.118,1.857,1.857,0,0,1-1.5-.5l2.35-2.313a1.014,1.014,0,0,1,.653.183,1.126,1.126,0,0,1,.386.512c.013.033.025.066.036.1.007.02.013.039.018.059s.01.034.014.051.01.042.015.063v0c0,.01,0,.021.007.032l.013.069" transform="translate(-519.373 -569.147)" fill="#ebc29f"/>
            <g id="Grupo_1107590" data-name="Grupo 1107590" transform="translate(130.156 161.763)" opacity="0.15">
              <g id="Grupo_1107589" data-name="Grupo 1107589">
                <g id="Grupo_1107588" data-name="Grupo 1107588" clip-path="url(#clip-path-5)">
                  <path id="Trazado_915521" data-name="Trazado 915521" d="M637.93,790.2l-2.337-.258a9.515,9.515,0,0,1,2.337.258" transform="translate(-635.593 -789.94)"/>
                </g>
              </g>
            </g>
            <g id="Grupo_1107593" data-name="Grupo 1107593" transform="translate(128.308 147.641)" opacity="0.05">
              <g id="Grupo_1107592" data-name="Grupo 1107592">
                <g id="Grupo_1107591" data-name="Grupo 1107591" clip-path="url(#clip-path-6)">
                  <path id="Trazado_915522" data-name="Trazado 915522" d="M635.47,722.28s-.257,1.225-2.515,4.426a6.194,6.194,0,0,1-.668.777,18.2,18.2,0,0,0-1.964,3.735l-2.372,3.831-1.382-.152,7.3-11.985.468-.712,1.159-1.222a3.98,3.98,0,0,1-.029,1.3" transform="translate(-626.569 -720.977)"/>
                </g>
              </g>
            </g>
            <g id="Grupo_1107596" data-name="Grupo 1107596" transform="translate(128.732 164.868)" opacity="0.05">
              <g id="Grupo_1107595" data-name="Grupo 1107595">
                <g id="Grupo_1107594" data-name="Grupo 1107594" clip-path="url(#clip-path-7)">
                  <path id="Trazado_915523" data-name="Trazado 915523" d="M635.1,808.769l-.007.235,0,.009a12.788,12.788,0,0,0-2.467-1.338,21.255,21.255,0,0,0-2.558-.88c-.323-.088-.515-.132-.515-.132-2.676-1.3,1.375-1.561,1.375-1.561a8.391,8.391,0,0,1,4.227,1.753Z" transform="translate(-628.641 -805.102)"/>
                </g>
              </g>
            </g>
            <g id="Grupo_1107599" data-name="Grupo 1107599" transform="translate(127.916 169.347)" opacity="0.05">
              <g id="Grupo_1107598" data-name="Grupo 1107598">
                <g id="Grupo_1107597" data-name="Grupo 1107597" clip-path="url(#clip-path-8)">
                  <path id="Trazado_915524" data-name="Trazado 915524" d="M630.74,830.5q-.146.127-.312.248a5.881,5.881,0,0,1-1.193.658c-.468-.459-.987-.932-1.524-1.361-.3-.242-.611-.469-.919-.671-.1-.065-.2-.127-.3-.187-2.341-1.412-1.784-2.155-1.784-2.155a3.741,3.741,0,0,1,2.49.483,6.693,6.693,0,0,1,3.56,2.824c-.043.031-.047.087-.022.161" transform="translate(-624.654 -826.972)"/>
                </g>
              </g>
            </g>
            <g id="Grupo_1107602" data-name="Grupo 1107602" transform="translate(108.222 170.485)" opacity="0.05">
              <g id="Grupo_1107601" data-name="Grupo 1107601">
                <g id="Grupo_1107600" data-name="Grupo 1107600" clip-path="url(#clip-path-9)">
                  <path id="Trazado_915525" data-name="Trazado 915525" d="M551.34,839.22a7.077,7.077,0,0,1-1.1.305c-.271.053-.566.1-.887.137a6.21,6.21,0,0,1-2.639-.483h0c-.056.064-5.239,5.943-12.041,5.537L528.8,846.24l-.316-11.874s1.566-.744,3.386-1.834c3.356,3.516,4.028,6.8,4.127,8.466a.591.591,0,0,0,.887.476,9.864,9.864,0,0,1,1.8-.772c1.932-.149,7.618-4.422,7.618-4.422,3.465-1.5,4.642,1.134,5.039,2.94" transform="translate(-528.481 -832.532)"/>
                </g>
              </g>
            </g>
            <g id="Grupo_1107605" data-name="Grupo 1107605" transform="translate(126.45 176.355)" opacity="0.15">
              <g id="Grupo_1107604" data-name="Grupo 1107604">
                <g id="Grupo_1107603" data-name="Grupo 1107603" clip-path="url(#clip-path-10)">
                  <path id="Trazado_915526" data-name="Trazado 915526" d="M621.022,862.32c-.271.053-.566.1-.887.137a6.21,6.21,0,0,1-2.639-.483c.244-1.106,2.118-.706,2.118-.706a2.679,2.679,0,0,1,1.407,1.053" transform="translate(-617.496 -861.197)"/>
                </g>
              </g>
            </g>
            <g id="Grupo_1107608" data-name="Grupo 1107608" transform="translate(133.771 163.196)" opacity="0.15">
              <g id="Grupo_1107607" data-name="Grupo 1107607">
                <g id="Grupo_1107606" data-name="Grupo 1107606" clip-path="url(#clip-path-11)">
                  <path id="Trazado_915527" data-name="Trazado 915527" d="M653.248,796.935s.446,1.226.223,1.672c0,0,.483-.558-.223-1.672" transform="translate(-653.248 -796.935)"/>
                </g>
              </g>
            </g>
            <g id="Grupo_1107611" data-name="Grupo 1107611" transform="translate(133.065 163.753)" opacity="0.15">
              <g id="Grupo_1107610" data-name="Grupo 1107610">
                <g id="Grupo_1107609" data-name="Grupo 1107609" clip-path="url(#clip-path-12)">
                  <path id="Trazado_915528" data-name="Trazado 915528" d="M649.8,799.657s.372.149.334,1.115c0,0,.223-.892-.334-1.115" transform="translate(-649.8 -799.657)"/>
                </g>
              </g>
            </g>
            <g id="Grupo_1107614" data-name="Grupo 1107614" transform="translate(133.771 169.216)" opacity="0.15">
              <g id="Grupo_1107613" data-name="Grupo 1107613">
                <g id="Grupo_1107612" data-name="Grupo 1107612" clip-path="url(#clip-path-13)">
                  <path id="Trazado_915529" data-name="Trazado 915529" d="M653.694,826.335s.26,1.561-.446,1.858a4.745,4.745,0,0,0,.446-1.858" transform="translate(-653.248 -826.335)"/>
                </g>
              </g>
            </g>
            <g id="Grupo_1107617" data-name="Grupo 1107617" transform="translate(123.105 169.216)" opacity="0.05">
              <g id="Grupo_1107616" data-name="Grupo 1107616">
                <g id="Grupo_1107615" data-name="Grupo 1107615" clip-path="url(#clip-path-14)">
                  <path id="Trazado_915530" data-name="Trazado 915530" d="M605.215,826.335s-2.267,3.047-4.051,3.865c0,0,2.564-3.27,4.051-3.865" transform="translate(-601.164 -826.335)"/>
                </g>
              </g>
            </g>
            <g id="Grupo_1107620" data-name="Grupo 1107620" transform="translate(119.984 165.202)" opacity="0.05">
              <g id="Grupo_1107619" data-name="Grupo 1107619">
                <g id="Grupo_1107618" data-name="Grupo 1107618" clip-path="url(#clip-path-15)">
                  <path id="Trazado_915531" data-name="Trazado 915531" d="M592.608,806.735a74.257,74.257,0,0,1-6.689,4.571s2.862-4.014,6.689-4.571" transform="translate(-585.919 -806.735)"/>
                </g>
              </g>
            </g>
            <g id="Grupo_1107623" data-name="Grupo 1107623" transform="translate(113.294 164.868)" opacity="0.05">
              <g id="Grupo_1107622" data-name="Grupo 1107622">
                <g id="Grupo_1107621" data-name="Grupo 1107621" clip-path="url(#clip-path-16)">
                  <path id="Trazado_915532" data-name="Trazado 915532" d="M561.652,805.1l-8.4,6.912s6.8-3.456,8.4-6.912" transform="translate(-553.253 -805.101)"/>
                </g>
              </g>
            </g>
            <g id="Grupo_1107626" data-name="Grupo 1107626" transform="translate(129.981 153.905)" opacity="0.15">
              <g id="Grupo_1107625" data-name="Grupo 1107625">
                <g id="Grupo_1107624" data-name="Grupo 1107624" clip-path="url(#clip-path-17)">
                  <path id="Trazado_915533" data-name="Trazado 915533" d="M634.737,751.565a3.416,3.416,0,0,0,1.115,1.189s-.706.074-1.115-1.189" transform="translate(-634.737 -751.565)"/>
                </g>
              </g>
            </g>
            <g id="Grupo_1107629" data-name="Grupo 1107629" transform="translate(129.68 154.499)" opacity="0.15">
              <g id="Grupo_1107628" data-name="Grupo 1107628">
                <g id="Grupo_1107627" data-name="Grupo 1107627" clip-path="url(#clip-path-18)">
                  <path id="Trazado_915534" data-name="Trazado 915534" d="M633.272,754.469s.706,1.152,1.115,1.152c0,0-1.189-.223-1.115-1.152" transform="translate(-633.269 -754.469)"/>
                </g>
              </g>
            </g>
            <path id="Trazado_915535" data-name="Trazado 915535" d="M310.044,850.368q-.119,1.3-.373,2.687a1.876,1.876,0,0,1-1.081,1.376l-24.465,10.9q-1.847.034-3.64.07c-9.965.2-18.636.466-25.528.773l-1.693.078c-2.5-3.1-5.311-6.482-8.247-10.058l58.257-23.436a1.288,1.288,0,0,1,1.412.3c1.718,1.8,6.259,7.542,5.358,17.309" transform="translate(-194.844 -662.151)" fill="#73c8e2"/>
            <g id="Grupo_1107632" data-name="Grupo 1107632" transform="translate(130.054 171.744)" opacity="0.15">
              <g id="Grupo_1107631" data-name="Grupo 1107631">
                <g id="Grupo_1107630" data-name="Grupo 1107630" clip-path="url(#clip-path-19)">
                  <path id="Trazado_915536" data-name="Trazado 915536" d="M637.919,839.126a1.953,1.953,0,0,1-1.783.223l-.123,0c-.3-.242-.611-.469-.919-.671a5.11,5.11,0,0,0,2.826.445" transform="translate(-635.093 -838.681)"/>
                </g>
              </g>
            </g>
            <g id="Grupo_1107635" data-name="Grupo 1107635" transform="translate(129.59 166.034)" opacity="0.15">
              <g id="Grupo_1107634" data-name="Grupo 1107634">
                <g id="Grupo_1107633" data-name="Grupo 1107633" clip-path="url(#clip-path-20)">
                  <path id="Trazado_915537" data-name="Trazado 915537" d="M637.254,811.583c-.007.017-.217.462-1.293.622a21.24,21.24,0,0,0-2.558-.88l-.571-.411s.037-.26.632,0c0,0,2.638,1.337,3.79.669" transform="translate(-632.832 -810.798)"/>
                </g>
              </g>
            </g>
            <g id="Grupo_1107638" data-name="Grupo 1107638" transform="translate(85.643 188.217)" opacity="0.05">
              <g id="Grupo_1107637" data-name="Grupo 1107637">
                <g id="Grupo_1107636" data-name="Grupo 1107636" clip-path="url(#clip-path-21)">
                  <path id="Trazado_915538" data-name="Trazado 915538" d="M447.78,919.125q-.119,1.3-.373,2.687a1.876,1.876,0,0,1-1.081,1.376l-24.465,10.9q-1.847.034-3.64.07Z" transform="translate(-418.222 -919.125)"/>
                </g>
              </g>
            </g>
          </g>
        </g>
      </g>
    </g>
  </g>
</svg>
