<svg id="_6" data-name="6" xmlns="http://www.w3.org/2000/svg" width="74" height="74" viewBox="0 0 74 74">
  <circle id="Elipse_11521" data-name="Elipse 11521" cx="37" cy="37" r="37" fill="#fbfbf9"/>
  <g id="verificacion" transform="translate(12.396 15.551)">
    <path id="Trazado_913415" data-name="Trazado 913415" d="M37,21.308A8.308,8.308,0,1,0,45.308,13,8.318,8.318,0,0,0,37,21.308Zm15.106,0a6.8,6.8,0,1,1-6.8-6.8A6.806,6.806,0,0,1,52.106,21.308Z" transform="translate(-9.809 -3.936)" fill="#692cb7"/>
    <path id="Trazado_913416" data-name="Trazado 913416" d="M42.326,28.749a5.344,5.344,0,0,0-.706-.284A11.312,11.312,0,0,0,41.787,8.36V3.266A2.269,2.269,0,0,0,39.521,1H3.266A2.269,2.269,0,0,0,1,3.266V36.5a2.269,2.269,0,0,0,2.266,2.266H29.841a2.24,2.24,0,0,0-.139.755,2.269,2.269,0,0,0,2.266,2.266h.755v2.266a3.777,3.777,0,1,0,7.553,0V41.769a5.31,5.31,0,0,0,2.05-.539l1.9-.953h3.6V29.7h-3.6Zm3.993-10.377A9.819,9.819,0,1,1,36.5,8.553a9.83,9.83,0,0,1,9.819,9.819Zm-10.6,18a.79.79,0,0,1,.028.131.757.757,0,0,1-.755.755H31.968a.755.755,0,0,1,0-1.511h1.344a2.2,2.2,0,0,0,2.4.625Zm-2.993-2.135h-.755a.755.755,0,1,1,0-1.511h.755Zm0-3.777v.755h-.755a.755.755,0,1,1,0-1.511h.894A2.24,2.24,0,0,0,32.723,30.457ZM3.266,2.511H39.521a.757.757,0,0,1,.755.755V7.7A11.263,11.263,0,0,0,36.5,7.042H2.511V3.266A.757.757,0,0,1,3.266,2.511ZM2.511,36.5V8.553H30.872a11.314,11.314,0,0,0,.272,19.8,2.248,2.248,0,0,0-.853,3.616,2.231,2.231,0,0,0,0,3.021,2.2,2.2,0,0,0-.45,2.266H3.266A.757.757,0,0,1,2.511,36.5Zm28.7,3.021a.757.757,0,0,1,.755-.755h3.021a.755.755,0,0,1,0,1.511H31.968A.757.757,0,0,1,31.212,39.521Zm5.287,6.8a2.269,2.269,0,0,1-2.266-2.266V41.787h.755a2.256,2.256,0,0,0,1.677-3.777,2.209,2.209,0,0,0,.273-2.641,2.242,2.242,0,0,0,.316-1.135V32.723h1.511v11.33A2.269,2.269,0,0,1,36.5,46.318Zm9.819-7.553H43.874l-2.223,1.112a3.794,3.794,0,0,1-1.375.38V33.8a3.472,3.472,0,0,0,1.688.437H43.3V32.723H41.965A1.966,1.966,0,0,1,40.2,31.63l-.209-.418H35.744v3.021a.755.755,0,0,1-1.511,0V30.457a.757.757,0,0,1,.755-.755h4.972a3.8,3.8,0,0,1,1.689.4l2.224,1.112h2.444Z" transform="translate(-1 -1)" fill="#692cb7"/>
    <path id="Trazado_913417" data-name="Trazado 913417" d="M43.361,23.825l-1.068,1.068,2.045,2.045,6.576-6.576-1.068-1.068L44.338,24.8Z" transform="translate(-11.104 -5.476)" fill="#692cb7"/>
    <path id="Trazado_913418" data-name="Trazado 913418" d="M5,5H6.511V6.511H5Z" transform="translate(-1.979 -1.979)" fill="#692cb7"/>
    <path id="Trazado_913419" data-name="Trazado 913419" d="M13,5h1.511V6.511H13Z" transform="translate(-3.936 -1.979)" fill="#692cb7"/>
    <path id="Trazado_913420" data-name="Trazado 913420" d="M9,5h1.511V6.511H9Z" transform="translate(-2.958 -1.979)" fill="#692cb7"/>
    <path id="Trazado_913421" data-name="Trazado 913421" d="M5,20.553h7.553V13H5Zm1.511-6.042h4.532v4.532H6.511Z" transform="translate(-1.979 -3.936)" fill="#692cb7"/>
    <path id="Trazado_913422" data-name="Trazado 913422" d="M17,13H27.574v1.511H17Z" transform="translate(-4.915 -3.936)" fill="#692cb7"/>
    <path id="Trazado_913423" data-name="Trazado 913423" d="M17,17h7.553v1.511H17Z" transform="translate(-4.915 -4.915)" fill="#692cb7"/>
    <path id="Trazado_913424" data-name="Trazado 913424" d="M29,17h1.511v1.511H29Z" transform="translate(-7.851 -4.915)" fill="#692cb7"/>
    <path id="Trazado_913425" data-name="Trazado 913425" d="M17,21H27.574v1.511H17Z" transform="translate(-4.915 -5.894)" fill="#692cb7"/>
    <path id="Trazado_913426" data-name="Trazado 913426" d="M5,32.553h7.553V25H5Zm1.511-6.042h4.532v4.532H6.511Z" transform="translate(-1.979 -6.873)" fill="#692cb7"/>
    <path id="Trazado_913427" data-name="Trazado 913427" d="M17,25H27.574v1.511H17Z" transform="translate(-4.915 -6.873)" fill="#692cb7"/>
    <path id="Trazado_913428" data-name="Trazado 913428" d="M17,29h7.553v1.511H17Z" transform="translate(-4.915 -7.851)" fill="#692cb7"/>
    <path id="Trazado_913429" data-name="Trazado 913429" d="M29,29h1.511v1.511H29Z" transform="translate(-7.851 -7.851)" fill="#692cb7"/>
    <path id="Trazado_913430" data-name="Trazado 913430" d="M17,33H27.574v1.511H17Z" transform="translate(-4.915 -8.83)" fill="#692cb7"/>
    <path id="Trazado_913431" data-name="Trazado 913431" d="M5,44.553h7.553V37H5Zm1.511-6.042h4.532v4.532H6.511Z" transform="translate(-1.979 -9.809)" fill="#692cb7"/>
    <path id="Trazado_913432" data-name="Trazado 913432" d="M21,37h7.553v1.511H21Z" transform="translate(-5.894 -9.809)" fill="#692cb7"/>
    <path id="Trazado_913433" data-name="Trazado 913433" d="M17,37h1.511v1.511H17Z" transform="translate(-4.915 -9.809)" fill="#692cb7"/>
    <path id="Trazado_913434" data-name="Trazado 913434" d="M21,41h7.553v1.511H21Z" transform="translate(-5.894 -10.788)" fill="#692cb7"/>
    <path id="Trazado_913435" data-name="Trazado 913435" d="M17,41h1.511v1.511H17Z" transform="translate(-4.915 -10.788)" fill="#692cb7"/>
    <path id="Trazado_913436" data-name="Trazado 913436" d="M21,45h7.553v1.511H21Z" transform="translate(-5.894 -11.766)" fill="#692cb7"/>
    <path id="Trazado_913437" data-name="Trazado 913437" d="M17,45h1.511v1.511H17Z" transform="translate(-4.915 -11.766)" fill="#692cb7"/>
  </g>
</svg>
